G04 #@! TF.GenerationSoftware,KiCad,Pcbnew,(5.1.4-0-10_14)*
G04 #@! TF.CreationDate,2019-11-07T13:02:38-08:00*
G04 #@! TF.ProjectId,BSPD_2019,42535044-5f32-4303-9139-2e6b69636164,rev?*
G04 #@! TF.SameCoordinates,Original*
G04 #@! TF.FileFunction,Copper,L2,Bot*
G04 #@! TF.FilePolarity,Positive*
%FSLAX46Y46*%
G04 Gerber Fmt 4.6, Leading zero omitted, Abs format (unit mm)*
G04 Created by KiCad (PCBNEW (5.1.4-0-10_14)) date 2019-11-07 13:02:38*
%MOMM*%
%LPD*%
G04 APERTURE LIST*
%ADD10C,0.100000*%
%ADD11C,0.150000*%
%ADD12C,0.300000*%
%ADD13C,0.400000*%
%ADD14C,2.000000*%
%ADD15O,1.000000X1.000000*%
%ADD16R,1.000000X1.000000*%
%ADD17C,2.500000*%
%ADD18C,5.000000*%
%ADD19R,2.300000X2.300000*%
%ADD20C,2.300000*%
%ADD21C,0.685800*%
%ADD22C,0.254000*%
%ADD23C,0.152400*%
G04 APERTURE END LIST*
D10*
D11*
X177002200Y-166007200D02*
X177002200Y-198007200D01*
X285002200Y-198007200D01*
X285002200Y-166007200D01*
X177002200Y-166007200D01*
D10*
D11*
X10000000Y-10000000D02*
X10000000Y-200007200D01*
X287002200Y-200007200D01*
X287002200Y-10000000D01*
X10000000Y-10000000D01*
D10*
D11*
X12000000Y-12000000D02*
X12000000Y-198007200D01*
X285002200Y-198007200D01*
X285002200Y-12000000D01*
X12000000Y-12000000D01*
D10*
D11*
X60000000Y-12000000D02*
X60000000Y-10000000D01*
D10*
D11*
X110000000Y-12000000D02*
X110000000Y-10000000D01*
D10*
D11*
X160000000Y-12000000D02*
X160000000Y-10000000D01*
D10*
D11*
X210000000Y-12000000D02*
X210000000Y-10000000D01*
D10*
D11*
X260000000Y-12000000D02*
X260000000Y-10000000D01*
D10*
D11*
X36065476Y-11588095D02*
X35322619Y-11588095D01*
X35694047Y-11588095D02*
X35694047Y-10288095D01*
X35570238Y-10473809D01*
X35446428Y-10597619D01*
X35322619Y-10659523D01*
D10*
D11*
X85322619Y-10411904D02*
X85384523Y-10350000D01*
X85508333Y-10288095D01*
X85817857Y-10288095D01*
X85941666Y-10350000D01*
X86003571Y-10411904D01*
X86065476Y-10535714D01*
X86065476Y-10659523D01*
X86003571Y-10845238D01*
X85260714Y-11588095D01*
X86065476Y-11588095D01*
D10*
D11*
X135260714Y-10288095D02*
X136065476Y-10288095D01*
X135632142Y-10783333D01*
X135817857Y-10783333D01*
X135941666Y-10845238D01*
X136003571Y-10907142D01*
X136065476Y-11030952D01*
X136065476Y-11340476D01*
X136003571Y-11464285D01*
X135941666Y-11526190D01*
X135817857Y-11588095D01*
X135446428Y-11588095D01*
X135322619Y-11526190D01*
X135260714Y-11464285D01*
D10*
D11*
X185941666Y-10721428D02*
X185941666Y-11588095D01*
X185632142Y-10226190D02*
X185322619Y-11154761D01*
X186127380Y-11154761D01*
D10*
D11*
X236003571Y-10288095D02*
X235384523Y-10288095D01*
X235322619Y-10907142D01*
X235384523Y-10845238D01*
X235508333Y-10783333D01*
X235817857Y-10783333D01*
X235941666Y-10845238D01*
X236003571Y-10907142D01*
X236065476Y-11030952D01*
X236065476Y-11340476D01*
X236003571Y-11464285D01*
X235941666Y-11526190D01*
X235817857Y-11588095D01*
X235508333Y-11588095D01*
X235384523Y-11526190D01*
X235322619Y-11464285D01*
D10*
D11*
X285941666Y-10288095D02*
X285694047Y-10288095D01*
X285570238Y-10350000D01*
X285508333Y-10411904D01*
X285384523Y-10597619D01*
X285322619Y-10845238D01*
X285322619Y-11340476D01*
X285384523Y-11464285D01*
X285446428Y-11526190D01*
X285570238Y-11588095D01*
X285817857Y-11588095D01*
X285941666Y-11526190D01*
X286003571Y-11464285D01*
X286065476Y-11340476D01*
X286065476Y-11030952D01*
X286003571Y-10907142D01*
X285941666Y-10845238D01*
X285817857Y-10783333D01*
X285570238Y-10783333D01*
X285446428Y-10845238D01*
X285384523Y-10907142D01*
X285322619Y-11030952D01*
D10*
D11*
X60000000Y-198007200D02*
X60000000Y-200007200D01*
D10*
D11*
X110000000Y-198007200D02*
X110000000Y-200007200D01*
D10*
D11*
X160000000Y-198007200D02*
X160000000Y-200007200D01*
D10*
D11*
X210000000Y-198007200D02*
X210000000Y-200007200D01*
D10*
D11*
X260000000Y-198007200D02*
X260000000Y-200007200D01*
D10*
D11*
X36065476Y-199595295D02*
X35322619Y-199595295D01*
X35694047Y-199595295D02*
X35694047Y-198295295D01*
X35570238Y-198481009D01*
X35446428Y-198604819D01*
X35322619Y-198666723D01*
D10*
D11*
X85322619Y-198419104D02*
X85384523Y-198357200D01*
X85508333Y-198295295D01*
X85817857Y-198295295D01*
X85941666Y-198357200D01*
X86003571Y-198419104D01*
X86065476Y-198542914D01*
X86065476Y-198666723D01*
X86003571Y-198852438D01*
X85260714Y-199595295D01*
X86065476Y-199595295D01*
D10*
D11*
X135260714Y-198295295D02*
X136065476Y-198295295D01*
X135632142Y-198790533D01*
X135817857Y-198790533D01*
X135941666Y-198852438D01*
X136003571Y-198914342D01*
X136065476Y-199038152D01*
X136065476Y-199347676D01*
X136003571Y-199471485D01*
X135941666Y-199533390D01*
X135817857Y-199595295D01*
X135446428Y-199595295D01*
X135322619Y-199533390D01*
X135260714Y-199471485D01*
D10*
D11*
X185941666Y-198728628D02*
X185941666Y-199595295D01*
X185632142Y-198233390D02*
X185322619Y-199161961D01*
X186127380Y-199161961D01*
D10*
D11*
X236003571Y-198295295D02*
X235384523Y-198295295D01*
X235322619Y-198914342D01*
X235384523Y-198852438D01*
X235508333Y-198790533D01*
X235817857Y-198790533D01*
X235941666Y-198852438D01*
X236003571Y-198914342D01*
X236065476Y-199038152D01*
X236065476Y-199347676D01*
X236003571Y-199471485D01*
X235941666Y-199533390D01*
X235817857Y-199595295D01*
X235508333Y-199595295D01*
X235384523Y-199533390D01*
X235322619Y-199471485D01*
D10*
D11*
X285941666Y-198295295D02*
X285694047Y-198295295D01*
X285570238Y-198357200D01*
X285508333Y-198419104D01*
X285384523Y-198604819D01*
X285322619Y-198852438D01*
X285322619Y-199347676D01*
X285384523Y-199471485D01*
X285446428Y-199533390D01*
X285570238Y-199595295D01*
X285817857Y-199595295D01*
X285941666Y-199533390D01*
X286003571Y-199471485D01*
X286065476Y-199347676D01*
X286065476Y-199038152D01*
X286003571Y-198914342D01*
X285941666Y-198852438D01*
X285817857Y-198790533D01*
X285570238Y-198790533D01*
X285446428Y-198852438D01*
X285384523Y-198914342D01*
X285322619Y-199038152D01*
D10*
D11*
X10000000Y-60000000D02*
X12000000Y-60000000D01*
D10*
D11*
X10000000Y-110000000D02*
X12000000Y-110000000D01*
D10*
D11*
X10000000Y-160000000D02*
X12000000Y-160000000D01*
D10*
D11*
X10690476Y-35216666D02*
X11309523Y-35216666D01*
X10566666Y-35588095D02*
X11000000Y-34288095D01*
X11433333Y-35588095D01*
D10*
D11*
X11092857Y-84907142D02*
X11278571Y-84969047D01*
X11340476Y-85030952D01*
X11402380Y-85154761D01*
X11402380Y-85340476D01*
X11340476Y-85464285D01*
X11278571Y-85526190D01*
X11154761Y-85588095D01*
X10659523Y-85588095D01*
X10659523Y-84288095D01*
X11092857Y-84288095D01*
X11216666Y-84350000D01*
X11278571Y-84411904D01*
X11340476Y-84535714D01*
X11340476Y-84659523D01*
X11278571Y-84783333D01*
X11216666Y-84845238D01*
X11092857Y-84907142D01*
X10659523Y-84907142D01*
D10*
D11*
X11402380Y-135464285D02*
X11340476Y-135526190D01*
X11154761Y-135588095D01*
X11030952Y-135588095D01*
X10845238Y-135526190D01*
X10721428Y-135402380D01*
X10659523Y-135278571D01*
X10597619Y-135030952D01*
X10597619Y-134845238D01*
X10659523Y-134597619D01*
X10721428Y-134473809D01*
X10845238Y-134350000D01*
X11030952Y-134288095D01*
X11154761Y-134288095D01*
X11340476Y-134350000D01*
X11402380Y-134411904D01*
D10*
D11*
X10659523Y-185588095D02*
X10659523Y-184288095D01*
X10969047Y-184288095D01*
X11154761Y-184350000D01*
X11278571Y-184473809D01*
X11340476Y-184597619D01*
X11402380Y-184845238D01*
X11402380Y-185030952D01*
X11340476Y-185278571D01*
X11278571Y-185402380D01*
X11154761Y-185526190D01*
X10969047Y-185588095D01*
X10659523Y-185588095D01*
D10*
D11*
X287002200Y-60000000D02*
X285002200Y-60000000D01*
D10*
D11*
X287002200Y-110000000D02*
X285002200Y-110000000D01*
D10*
D11*
X287002200Y-160000000D02*
X285002200Y-160000000D01*
D10*
D11*
X285692676Y-35216666D02*
X286311723Y-35216666D01*
X285568866Y-35588095D02*
X286002200Y-34288095D01*
X286435533Y-35588095D01*
D10*
D11*
X286095057Y-84907142D02*
X286280771Y-84969047D01*
X286342676Y-85030952D01*
X286404580Y-85154761D01*
X286404580Y-85340476D01*
X286342676Y-85464285D01*
X286280771Y-85526190D01*
X286156961Y-85588095D01*
X285661723Y-85588095D01*
X285661723Y-84288095D01*
X286095057Y-84288095D01*
X286218866Y-84350000D01*
X286280771Y-84411904D01*
X286342676Y-84535714D01*
X286342676Y-84659523D01*
X286280771Y-84783333D01*
X286218866Y-84845238D01*
X286095057Y-84907142D01*
X285661723Y-84907142D01*
D10*
D11*
X286404580Y-135464285D02*
X286342676Y-135526190D01*
X286156961Y-135588095D01*
X286033152Y-135588095D01*
X285847438Y-135526190D01*
X285723628Y-135402380D01*
X285661723Y-135278571D01*
X285599819Y-135030952D01*
X285599819Y-134845238D01*
X285661723Y-134597619D01*
X285723628Y-134473809D01*
X285847438Y-134350000D01*
X286033152Y-134288095D01*
X286156961Y-134288095D01*
X286342676Y-134350000D01*
X286404580Y-134411904D01*
D10*
D11*
X285661723Y-185588095D02*
X285661723Y-184288095D01*
X285971247Y-184288095D01*
X286156961Y-184350000D01*
X286280771Y-184473809D01*
X286342676Y-184597619D01*
X286404580Y-184845238D01*
X286404580Y-185030952D01*
X286342676Y-185278571D01*
X286280771Y-185402380D01*
X286156961Y-185526190D01*
X285971247Y-185588095D01*
X285661723Y-185588095D01*
D10*
D11*
X200434342Y-193785771D02*
X200434342Y-192285771D01*
X200791485Y-192285771D01*
X201005771Y-192357200D01*
X201148628Y-192500057D01*
X201220057Y-192642914D01*
X201291485Y-192928628D01*
X201291485Y-193142914D01*
X201220057Y-193428628D01*
X201148628Y-193571485D01*
X201005771Y-193714342D01*
X200791485Y-193785771D01*
X200434342Y-193785771D01*
X202577200Y-193785771D02*
X202577200Y-193000057D01*
X202505771Y-192857200D01*
X202362914Y-192785771D01*
X202077200Y-192785771D01*
X201934342Y-192857200D01*
X202577200Y-193714342D02*
X202434342Y-193785771D01*
X202077200Y-193785771D01*
X201934342Y-193714342D01*
X201862914Y-193571485D01*
X201862914Y-193428628D01*
X201934342Y-193285771D01*
X202077200Y-193214342D01*
X202434342Y-193214342D01*
X202577200Y-193142914D01*
X203077200Y-192785771D02*
X203648628Y-192785771D01*
X203291485Y-192285771D02*
X203291485Y-193571485D01*
X203362914Y-193714342D01*
X203505771Y-193785771D01*
X203648628Y-193785771D01*
X204720057Y-193714342D02*
X204577200Y-193785771D01*
X204291485Y-193785771D01*
X204148628Y-193714342D01*
X204077200Y-193571485D01*
X204077200Y-193000057D01*
X204148628Y-192857200D01*
X204291485Y-192785771D01*
X204577200Y-192785771D01*
X204720057Y-192857200D01*
X204791485Y-193000057D01*
X204791485Y-193142914D01*
X204077200Y-193285771D01*
X205434342Y-193642914D02*
X205505771Y-193714342D01*
X205434342Y-193785771D01*
X205362914Y-193714342D01*
X205434342Y-193642914D01*
X205434342Y-193785771D01*
X205434342Y-192857200D02*
X205505771Y-192928628D01*
X205434342Y-193000057D01*
X205362914Y-192928628D01*
X205434342Y-192857200D01*
X205434342Y-193000057D01*
D10*
D11*
X177002200Y-194507200D02*
X285002200Y-194507200D01*
D10*
D11*
X178434342Y-196585771D02*
X178434342Y-195085771D01*
X179291485Y-196585771D02*
X178648628Y-195728628D01*
X179291485Y-195085771D02*
X178434342Y-195942914D01*
X179934342Y-196585771D02*
X179934342Y-195585771D01*
X179934342Y-195085771D02*
X179862914Y-195157200D01*
X179934342Y-195228628D01*
X180005771Y-195157200D01*
X179934342Y-195085771D01*
X179934342Y-195228628D01*
X181505771Y-196442914D02*
X181434342Y-196514342D01*
X181220057Y-196585771D01*
X181077200Y-196585771D01*
X180862914Y-196514342D01*
X180720057Y-196371485D01*
X180648628Y-196228628D01*
X180577200Y-195942914D01*
X180577200Y-195728628D01*
X180648628Y-195442914D01*
X180720057Y-195300057D01*
X180862914Y-195157200D01*
X181077200Y-195085771D01*
X181220057Y-195085771D01*
X181434342Y-195157200D01*
X181505771Y-195228628D01*
X182791485Y-196585771D02*
X182791485Y-195800057D01*
X182720057Y-195657200D01*
X182577200Y-195585771D01*
X182291485Y-195585771D01*
X182148628Y-195657200D01*
X182791485Y-196514342D02*
X182648628Y-196585771D01*
X182291485Y-196585771D01*
X182148628Y-196514342D01*
X182077200Y-196371485D01*
X182077200Y-196228628D01*
X182148628Y-196085771D01*
X182291485Y-196014342D01*
X182648628Y-196014342D01*
X182791485Y-195942914D01*
X184148628Y-196585771D02*
X184148628Y-195085771D01*
X184148628Y-196514342D02*
X184005771Y-196585771D01*
X183720057Y-196585771D01*
X183577200Y-196514342D01*
X183505771Y-196442914D01*
X183434342Y-196300057D01*
X183434342Y-195871485D01*
X183505771Y-195728628D01*
X183577200Y-195657200D01*
X183720057Y-195585771D01*
X184005771Y-195585771D01*
X184148628Y-195657200D01*
X186005771Y-195800057D02*
X186505771Y-195800057D01*
X186720057Y-196585771D02*
X186005771Y-196585771D01*
X186005771Y-195085771D01*
X186720057Y-195085771D01*
X187362914Y-196442914D02*
X187434342Y-196514342D01*
X187362914Y-196585771D01*
X187291485Y-196514342D01*
X187362914Y-196442914D01*
X187362914Y-196585771D01*
X188077200Y-196585771D02*
X188077200Y-195085771D01*
X188434342Y-195085771D01*
X188648628Y-195157200D01*
X188791485Y-195300057D01*
X188862914Y-195442914D01*
X188934342Y-195728628D01*
X188934342Y-195942914D01*
X188862914Y-196228628D01*
X188791485Y-196371485D01*
X188648628Y-196514342D01*
X188434342Y-196585771D01*
X188077200Y-196585771D01*
X189577200Y-196442914D02*
X189648628Y-196514342D01*
X189577200Y-196585771D01*
X189505771Y-196514342D01*
X189577200Y-196442914D01*
X189577200Y-196585771D01*
X190220057Y-196157200D02*
X190934342Y-196157200D01*
X190077200Y-196585771D02*
X190577200Y-195085771D01*
X191077200Y-196585771D01*
X191577200Y-196442914D02*
X191648628Y-196514342D01*
X191577200Y-196585771D01*
X191505771Y-196514342D01*
X191577200Y-196442914D01*
X191577200Y-196585771D01*
X194577200Y-196585771D02*
X194577200Y-195085771D01*
X194720057Y-196014342D02*
X195148628Y-196585771D01*
X195148628Y-195585771D02*
X194577200Y-196157200D01*
X195791485Y-196585771D02*
X195791485Y-195585771D01*
X195791485Y-195085771D02*
X195720057Y-195157200D01*
X195791485Y-195228628D01*
X195862914Y-195157200D01*
X195791485Y-195085771D01*
X195791485Y-195228628D01*
X197148628Y-196514342D02*
X197005771Y-196585771D01*
X196720057Y-196585771D01*
X196577200Y-196514342D01*
X196505771Y-196442914D01*
X196434342Y-196300057D01*
X196434342Y-195871485D01*
X196505771Y-195728628D01*
X196577200Y-195657200D01*
X196720057Y-195585771D01*
X197005771Y-195585771D01*
X197148628Y-195657200D01*
X198434342Y-196585771D02*
X198434342Y-195800057D01*
X198362914Y-195657200D01*
X198220057Y-195585771D01*
X197934342Y-195585771D01*
X197791485Y-195657200D01*
X198434342Y-196514342D02*
X198291485Y-196585771D01*
X197934342Y-196585771D01*
X197791485Y-196514342D01*
X197720057Y-196371485D01*
X197720057Y-196228628D01*
X197791485Y-196085771D01*
X197934342Y-196014342D01*
X198291485Y-196014342D01*
X198434342Y-195942914D01*
X199791485Y-196585771D02*
X199791485Y-195085771D01*
X199791485Y-196514342D02*
X199648628Y-196585771D01*
X199362914Y-196585771D01*
X199220057Y-196514342D01*
X199148628Y-196442914D01*
X199077200Y-196300057D01*
X199077200Y-195871485D01*
X199148628Y-195728628D01*
X199220057Y-195657200D01*
X199362914Y-195585771D01*
X199648628Y-195585771D01*
X199791485Y-195657200D01*
X202077200Y-197157200D02*
X202005771Y-197085771D01*
X201862914Y-196871485D01*
X201791485Y-196728628D01*
X201720057Y-196514342D01*
X201648628Y-196157200D01*
X201648628Y-195871485D01*
X201720057Y-195514342D01*
X201791485Y-195300057D01*
X201862914Y-195157200D01*
X202005771Y-194942914D01*
X202077200Y-194871485D01*
X203362914Y-195085771D02*
X202648628Y-195085771D01*
X202577200Y-195800057D01*
X202648628Y-195728628D01*
X202791485Y-195657200D01*
X203148628Y-195657200D01*
X203291485Y-195728628D01*
X203362914Y-195800057D01*
X203434342Y-195942914D01*
X203434342Y-196300057D01*
X203362914Y-196442914D01*
X203291485Y-196514342D01*
X203148628Y-196585771D01*
X202791485Y-196585771D01*
X202648628Y-196514342D01*
X202577200Y-196442914D01*
X204077200Y-196442914D02*
X204148628Y-196514342D01*
X204077200Y-196585771D01*
X204005771Y-196514342D01*
X204077200Y-196442914D01*
X204077200Y-196585771D01*
X205577200Y-196585771D02*
X204720057Y-196585771D01*
X205148628Y-196585771D02*
X205148628Y-195085771D01*
X205005771Y-195300057D01*
X204862914Y-195442914D01*
X204720057Y-195514342D01*
X206220057Y-196442914D02*
X206291485Y-196514342D01*
X206220057Y-196585771D01*
X206148628Y-196514342D01*
X206220057Y-196442914D01*
X206220057Y-196585771D01*
X207577200Y-195585771D02*
X207577200Y-196585771D01*
X207220057Y-195014342D02*
X206862914Y-196085771D01*
X207791485Y-196085771D01*
X208362914Y-196014342D02*
X209505771Y-196014342D01*
X210505771Y-195085771D02*
X210648628Y-195085771D01*
X210791485Y-195157200D01*
X210862914Y-195228628D01*
X210934342Y-195371485D01*
X211005771Y-195657200D01*
X211005771Y-196014342D01*
X210934342Y-196300057D01*
X210862914Y-196442914D01*
X210791485Y-196514342D01*
X210648628Y-196585771D01*
X210505771Y-196585771D01*
X210362914Y-196514342D01*
X210291485Y-196442914D01*
X210220057Y-196300057D01*
X210148628Y-196014342D01*
X210148628Y-195657200D01*
X210220057Y-195371485D01*
X210291485Y-195228628D01*
X210362914Y-195157200D01*
X210505771Y-195085771D01*
X211648628Y-196014342D02*
X212791485Y-196014342D01*
X214291485Y-196585771D02*
X213434342Y-196585771D01*
X213862914Y-196585771D02*
X213862914Y-195085771D01*
X213720057Y-195300057D01*
X213577200Y-195442914D01*
X213434342Y-195514342D01*
X215220057Y-195085771D02*
X215362914Y-195085771D01*
X215505771Y-195157200D01*
X215577200Y-195228628D01*
X215648628Y-195371485D01*
X215720057Y-195657200D01*
X215720057Y-196014342D01*
X215648628Y-196300057D01*
X215577200Y-196442914D01*
X215505771Y-196514342D01*
X215362914Y-196585771D01*
X215220057Y-196585771D01*
X215077200Y-196514342D01*
X215005771Y-196442914D01*
X214934342Y-196300057D01*
X214862914Y-196014342D01*
X214862914Y-195657200D01*
X214934342Y-195371485D01*
X215005771Y-195228628D01*
X215077200Y-195157200D01*
X215220057Y-195085771D01*
X216005771Y-196728628D02*
X217148628Y-196728628D01*
X218291485Y-196585771D02*
X217434342Y-196585771D01*
X217862914Y-196585771D02*
X217862914Y-195085771D01*
X217720057Y-195300057D01*
X217577200Y-195442914D01*
X217434342Y-195514342D01*
X219577200Y-195585771D02*
X219577200Y-196585771D01*
X219220057Y-195014342D02*
X218862914Y-196085771D01*
X219791485Y-196085771D01*
X220220057Y-197157200D02*
X220291485Y-197085771D01*
X220434342Y-196871485D01*
X220505771Y-196728628D01*
X220577200Y-196514342D01*
X220648628Y-196157200D01*
X220648628Y-195871485D01*
X220577200Y-195514342D01*
X220505771Y-195300057D01*
X220434342Y-195157200D01*
X220291485Y-194942914D01*
X220220057Y-194871485D01*
D10*
D11*
X177002200Y-191507200D02*
X285002200Y-191507200D01*
D10*
D12*
X264411485Y-193785771D02*
X263911485Y-193071485D01*
X263554342Y-193785771D02*
X263554342Y-192285771D01*
X264125771Y-192285771D01*
X264268628Y-192357200D01*
X264340057Y-192428628D01*
X264411485Y-192571485D01*
X264411485Y-192785771D01*
X264340057Y-192928628D01*
X264268628Y-193000057D01*
X264125771Y-193071485D01*
X263554342Y-193071485D01*
X265625771Y-193714342D02*
X265482914Y-193785771D01*
X265197200Y-193785771D01*
X265054342Y-193714342D01*
X264982914Y-193571485D01*
X264982914Y-193000057D01*
X265054342Y-192857200D01*
X265197200Y-192785771D01*
X265482914Y-192785771D01*
X265625771Y-192857200D01*
X265697200Y-193000057D01*
X265697200Y-193142914D01*
X264982914Y-193285771D01*
X266197200Y-192785771D02*
X266554342Y-193785771D01*
X266911485Y-192785771D01*
X267482914Y-193642914D02*
X267554342Y-193714342D01*
X267482914Y-193785771D01*
X267411485Y-193714342D01*
X267482914Y-193642914D01*
X267482914Y-193785771D01*
X267482914Y-192857200D02*
X267554342Y-192928628D01*
X267482914Y-193000057D01*
X267411485Y-192928628D01*
X267482914Y-192857200D01*
X267482914Y-193000057D01*
D10*
D11*
X178362914Y-193714342D02*
X178577200Y-193785771D01*
X178934342Y-193785771D01*
X179077200Y-193714342D01*
X179148628Y-193642914D01*
X179220057Y-193500057D01*
X179220057Y-193357200D01*
X179148628Y-193214342D01*
X179077200Y-193142914D01*
X178934342Y-193071485D01*
X178648628Y-193000057D01*
X178505771Y-192928628D01*
X178434342Y-192857200D01*
X178362914Y-192714342D01*
X178362914Y-192571485D01*
X178434342Y-192428628D01*
X178505771Y-192357200D01*
X178648628Y-192285771D01*
X179005771Y-192285771D01*
X179220057Y-192357200D01*
X179862914Y-193785771D02*
X179862914Y-192785771D01*
X179862914Y-192285771D02*
X179791485Y-192357200D01*
X179862914Y-192428628D01*
X179934342Y-192357200D01*
X179862914Y-192285771D01*
X179862914Y-192428628D01*
X180434342Y-192785771D02*
X181220057Y-192785771D01*
X180434342Y-193785771D01*
X181220057Y-193785771D01*
X182362914Y-193714342D02*
X182220057Y-193785771D01*
X181934342Y-193785771D01*
X181791485Y-193714342D01*
X181720057Y-193571485D01*
X181720057Y-193000057D01*
X181791485Y-192857200D01*
X181934342Y-192785771D01*
X182220057Y-192785771D01*
X182362914Y-192857200D01*
X182434342Y-193000057D01*
X182434342Y-193142914D01*
X181720057Y-193285771D01*
X183077200Y-193642914D02*
X183148628Y-193714342D01*
X183077200Y-193785771D01*
X183005771Y-193714342D01*
X183077200Y-193642914D01*
X183077200Y-193785771D01*
X183077200Y-192857200D02*
X183148628Y-192928628D01*
X183077200Y-193000057D01*
X183005771Y-192928628D01*
X183077200Y-192857200D01*
X183077200Y-193000057D01*
X184862914Y-193357200D02*
X185577200Y-193357200D01*
X184720057Y-193785771D02*
X185220057Y-192285771D01*
X185720057Y-193785771D01*
X186862914Y-192785771D02*
X186862914Y-193785771D01*
X186505771Y-192214342D02*
X186148628Y-193285771D01*
X187077200Y-193285771D01*
D10*
D11*
X263434342Y-196585771D02*
X263434342Y-195085771D01*
X264791485Y-196585771D02*
X264791485Y-195085771D01*
X264791485Y-196514342D02*
X264648628Y-196585771D01*
X264362914Y-196585771D01*
X264220057Y-196514342D01*
X264148628Y-196442914D01*
X264077200Y-196300057D01*
X264077200Y-195871485D01*
X264148628Y-195728628D01*
X264220057Y-195657200D01*
X264362914Y-195585771D01*
X264648628Y-195585771D01*
X264791485Y-195657200D01*
X265505771Y-196442914D02*
X265577200Y-196514342D01*
X265505771Y-196585771D01*
X265434342Y-196514342D01*
X265505771Y-196442914D01*
X265505771Y-196585771D01*
X265505771Y-195657200D02*
X265577200Y-195728628D01*
X265505771Y-195800057D01*
X265434342Y-195728628D01*
X265505771Y-195657200D01*
X265505771Y-195800057D01*
X268148628Y-196585771D02*
X267291485Y-196585771D01*
X267720057Y-196585771D02*
X267720057Y-195085771D01*
X267577200Y-195300057D01*
X267434342Y-195442914D01*
X267291485Y-195514342D01*
X269862914Y-195014342D02*
X268577200Y-196942914D01*
X271148628Y-196585771D02*
X270291485Y-196585771D01*
X270720057Y-196585771D02*
X270720057Y-195085771D01*
X270577200Y-195300057D01*
X270434342Y-195442914D01*
X270291485Y-195514342D01*
D10*
D11*
X177002200Y-187507200D02*
X285002200Y-187507200D01*
D10*
D13*
X178714580Y-188211961D02*
X179857438Y-188211961D01*
X179036009Y-190211961D02*
X179286009Y-188211961D01*
X180274104Y-190211961D02*
X180440771Y-188878628D01*
X180524104Y-188211961D02*
X180416961Y-188307200D01*
X180500295Y-188402438D01*
X180607438Y-188307200D01*
X180524104Y-188211961D01*
X180500295Y-188402438D01*
X181107438Y-188878628D02*
X181869342Y-188878628D01*
X181476485Y-188211961D02*
X181262200Y-189926247D01*
X181333628Y-190116723D01*
X181512200Y-190211961D01*
X181702676Y-190211961D01*
X182655057Y-190211961D02*
X182476485Y-190116723D01*
X182405057Y-189926247D01*
X182619342Y-188211961D01*
X184190771Y-190116723D02*
X183988390Y-190211961D01*
X183607438Y-190211961D01*
X183428866Y-190116723D01*
X183357438Y-189926247D01*
X183452676Y-189164342D01*
X183571723Y-188973866D01*
X183774104Y-188878628D01*
X184155057Y-188878628D01*
X184333628Y-188973866D01*
X184405057Y-189164342D01*
X184381247Y-189354819D01*
X183405057Y-189545295D01*
X185155057Y-190021485D02*
X185238390Y-190116723D01*
X185131247Y-190211961D01*
X185047914Y-190116723D01*
X185155057Y-190021485D01*
X185131247Y-190211961D01*
X185286009Y-188973866D02*
X185369342Y-189069104D01*
X185262200Y-189164342D01*
X185178866Y-189069104D01*
X185286009Y-188973866D01*
X185262200Y-189164342D01*
D10*
D11*
X178934342Y-185600057D02*
X178434342Y-185600057D01*
X178434342Y-186385771D02*
X178434342Y-184885771D01*
X179148628Y-184885771D01*
X179720057Y-186385771D02*
X179720057Y-185385771D01*
X179720057Y-184885771D02*
X179648628Y-184957200D01*
X179720057Y-185028628D01*
X179791485Y-184957200D01*
X179720057Y-184885771D01*
X179720057Y-185028628D01*
X180648628Y-186385771D02*
X180505771Y-186314342D01*
X180434342Y-186171485D01*
X180434342Y-184885771D01*
X181791485Y-186314342D02*
X181648628Y-186385771D01*
X181362914Y-186385771D01*
X181220057Y-186314342D01*
X181148628Y-186171485D01*
X181148628Y-185600057D01*
X181220057Y-185457200D01*
X181362914Y-185385771D01*
X181648628Y-185385771D01*
X181791485Y-185457200D01*
X181862914Y-185600057D01*
X181862914Y-185742914D01*
X181148628Y-185885771D01*
X182505771Y-186242914D02*
X182577200Y-186314342D01*
X182505771Y-186385771D01*
X182434342Y-186314342D01*
X182505771Y-186242914D01*
X182505771Y-186385771D01*
X182505771Y-185457200D02*
X182577200Y-185528628D01*
X182505771Y-185600057D01*
X182434342Y-185528628D01*
X182505771Y-185457200D01*
X182505771Y-185600057D01*
X184862914Y-185600057D02*
X185077200Y-185671485D01*
X185148628Y-185742914D01*
X185220057Y-185885771D01*
X185220057Y-186100057D01*
X185148628Y-186242914D01*
X185077200Y-186314342D01*
X184934342Y-186385771D01*
X184362914Y-186385771D01*
X184362914Y-184885771D01*
X184862914Y-184885771D01*
X185005771Y-184957200D01*
X185077200Y-185028628D01*
X185148628Y-185171485D01*
X185148628Y-185314342D01*
X185077200Y-185457200D01*
X185005771Y-185528628D01*
X184862914Y-185600057D01*
X184362914Y-185600057D01*
X185791485Y-186314342D02*
X186005771Y-186385771D01*
X186362914Y-186385771D01*
X186505771Y-186314342D01*
X186577200Y-186242914D01*
X186648628Y-186100057D01*
X186648628Y-185957200D01*
X186577200Y-185814342D01*
X186505771Y-185742914D01*
X186362914Y-185671485D01*
X186077200Y-185600057D01*
X185934342Y-185528628D01*
X185862914Y-185457200D01*
X185791485Y-185314342D01*
X185791485Y-185171485D01*
X185862914Y-185028628D01*
X185934342Y-184957200D01*
X186077200Y-184885771D01*
X186434342Y-184885771D01*
X186648628Y-184957200D01*
X187291485Y-186385771D02*
X187291485Y-184885771D01*
X187862914Y-184885771D01*
X188005771Y-184957200D01*
X188077200Y-185028628D01*
X188148628Y-185171485D01*
X188148628Y-185385771D01*
X188077200Y-185528628D01*
X188005771Y-185600057D01*
X187862914Y-185671485D01*
X187291485Y-185671485D01*
X188791485Y-186385771D02*
X188791485Y-184885771D01*
X189148628Y-184885771D01*
X189362914Y-184957200D01*
X189505771Y-185100057D01*
X189577200Y-185242914D01*
X189648628Y-185528628D01*
X189648628Y-185742914D01*
X189577200Y-186028628D01*
X189505771Y-186171485D01*
X189362914Y-186314342D01*
X189148628Y-186385771D01*
X188791485Y-186385771D01*
X189934342Y-186528628D02*
X191077200Y-186528628D01*
X191362914Y-185028628D02*
X191434342Y-184957200D01*
X191577200Y-184885771D01*
X191934342Y-184885771D01*
X192077200Y-184957200D01*
X192148628Y-185028628D01*
X192220057Y-185171485D01*
X192220057Y-185314342D01*
X192148628Y-185528628D01*
X191291485Y-186385771D01*
X192220057Y-186385771D01*
X193148628Y-184885771D02*
X193291485Y-184885771D01*
X193434342Y-184957200D01*
X193505771Y-185028628D01*
X193577200Y-185171485D01*
X193648628Y-185457200D01*
X193648628Y-185814342D01*
X193577200Y-186100057D01*
X193505771Y-186242914D01*
X193434342Y-186314342D01*
X193291485Y-186385771D01*
X193148628Y-186385771D01*
X193005771Y-186314342D01*
X192934342Y-186242914D01*
X192862914Y-186100057D01*
X192791485Y-185814342D01*
X192791485Y-185457200D01*
X192862914Y-185171485D01*
X192934342Y-185028628D01*
X193005771Y-184957200D01*
X193148628Y-184885771D01*
X195077200Y-186385771D02*
X194220057Y-186385771D01*
X194648628Y-186385771D02*
X194648628Y-184885771D01*
X194505771Y-185100057D01*
X194362914Y-185242914D01*
X194220057Y-185314342D01*
X195791485Y-186385771D02*
X196077200Y-186385771D01*
X196220057Y-186314342D01*
X196291485Y-186242914D01*
X196434342Y-186028628D01*
X196505771Y-185742914D01*
X196505771Y-185171485D01*
X196434342Y-185028628D01*
X196362914Y-184957200D01*
X196220057Y-184885771D01*
X195934342Y-184885771D01*
X195791485Y-184957200D01*
X195720057Y-185028628D01*
X195648628Y-185171485D01*
X195648628Y-185528628D01*
X195720057Y-185671485D01*
X195791485Y-185742914D01*
X195934342Y-185814342D01*
X196220057Y-185814342D01*
X196362914Y-185742914D01*
X196434342Y-185671485D01*
X196505771Y-185528628D01*
X197148628Y-186242914D02*
X197220057Y-186314342D01*
X197148628Y-186385771D01*
X197077200Y-186314342D01*
X197148628Y-186242914D01*
X197148628Y-186385771D01*
X197862914Y-186385771D02*
X197862914Y-184885771D01*
X198005771Y-185814342D02*
X198434342Y-186385771D01*
X198434342Y-185385771D02*
X197862914Y-185957200D01*
X199077200Y-186385771D02*
X199077200Y-185385771D01*
X199077200Y-184885771D02*
X199005771Y-184957200D01*
X199077200Y-185028628D01*
X199148628Y-184957200D01*
X199077200Y-184885771D01*
X199077200Y-185028628D01*
X200434342Y-186314342D02*
X200291485Y-186385771D01*
X200005771Y-186385771D01*
X199862914Y-186314342D01*
X199791485Y-186242914D01*
X199720057Y-186100057D01*
X199720057Y-185671485D01*
X199791485Y-185528628D01*
X199862914Y-185457200D01*
X200005771Y-185385771D01*
X200291485Y-185385771D01*
X200434342Y-185457200D01*
X201720057Y-186385771D02*
X201720057Y-185600057D01*
X201648628Y-185457200D01*
X201505771Y-185385771D01*
X201220057Y-185385771D01*
X201077200Y-185457200D01*
X201720057Y-186314342D02*
X201577200Y-186385771D01*
X201220057Y-186385771D01*
X201077200Y-186314342D01*
X201005771Y-186171485D01*
X201005771Y-186028628D01*
X201077200Y-185885771D01*
X201220057Y-185814342D01*
X201577200Y-185814342D01*
X201720057Y-185742914D01*
X203077200Y-186385771D02*
X203077200Y-184885771D01*
X203077200Y-186314342D02*
X202934342Y-186385771D01*
X202648628Y-186385771D01*
X202505771Y-186314342D01*
X202434342Y-186242914D01*
X202362914Y-186100057D01*
X202362914Y-185671485D01*
X202434342Y-185528628D01*
X202505771Y-185457200D01*
X202648628Y-185385771D01*
X202934342Y-185385771D01*
X203077200Y-185457200D01*
X203434342Y-186528628D02*
X204577200Y-186528628D01*
X204934342Y-185385771D02*
X204934342Y-186885771D01*
X204934342Y-185457200D02*
X205077200Y-185385771D01*
X205362914Y-185385771D01*
X205505771Y-185457200D01*
X205577200Y-185528628D01*
X205648628Y-185671485D01*
X205648628Y-186100057D01*
X205577200Y-186242914D01*
X205505771Y-186314342D01*
X205362914Y-186385771D01*
X205077200Y-186385771D01*
X204934342Y-186314342D01*
X206934342Y-186314342D02*
X206791485Y-186385771D01*
X206505771Y-186385771D01*
X206362914Y-186314342D01*
X206291485Y-186242914D01*
X206220057Y-186100057D01*
X206220057Y-185671485D01*
X206291485Y-185528628D01*
X206362914Y-185457200D01*
X206505771Y-185385771D01*
X206791485Y-185385771D01*
X206934342Y-185457200D01*
X207577200Y-186385771D02*
X207577200Y-184885771D01*
X207577200Y-185457200D02*
X207720057Y-185385771D01*
X208005771Y-185385771D01*
X208148628Y-185457200D01*
X208220057Y-185528628D01*
X208291485Y-185671485D01*
X208291485Y-186100057D01*
X208220057Y-186242914D01*
X208148628Y-186314342D01*
X208005771Y-186385771D01*
X207720057Y-186385771D01*
X207577200Y-186314342D01*
D10*
D11*
X177002200Y-181507200D02*
X285002200Y-181507200D01*
D10*
D11*
X178362914Y-183614342D02*
X178577200Y-183685771D01*
X178934342Y-183685771D01*
X179077200Y-183614342D01*
X179148628Y-183542914D01*
X179220057Y-183400057D01*
X179220057Y-183257200D01*
X179148628Y-183114342D01*
X179077200Y-183042914D01*
X178934342Y-182971485D01*
X178648628Y-182900057D01*
X178505771Y-182828628D01*
X178434342Y-182757200D01*
X178362914Y-182614342D01*
X178362914Y-182471485D01*
X178434342Y-182328628D01*
X178505771Y-182257200D01*
X178648628Y-182185771D01*
X179005771Y-182185771D01*
X179220057Y-182257200D01*
X179862914Y-183685771D02*
X179862914Y-182185771D01*
X180505771Y-183685771D02*
X180505771Y-182900057D01*
X180434342Y-182757200D01*
X180291485Y-182685771D01*
X180077200Y-182685771D01*
X179934342Y-182757200D01*
X179862914Y-182828628D01*
X181791485Y-183614342D02*
X181648628Y-183685771D01*
X181362914Y-183685771D01*
X181220057Y-183614342D01*
X181148628Y-183471485D01*
X181148628Y-182900057D01*
X181220057Y-182757200D01*
X181362914Y-182685771D01*
X181648628Y-182685771D01*
X181791485Y-182757200D01*
X181862914Y-182900057D01*
X181862914Y-183042914D01*
X181148628Y-183185771D01*
X183077200Y-183614342D02*
X182934342Y-183685771D01*
X182648628Y-183685771D01*
X182505771Y-183614342D01*
X182434342Y-183471485D01*
X182434342Y-182900057D01*
X182505771Y-182757200D01*
X182648628Y-182685771D01*
X182934342Y-182685771D01*
X183077200Y-182757200D01*
X183148628Y-182900057D01*
X183148628Y-183042914D01*
X182434342Y-183185771D01*
X183577200Y-182685771D02*
X184148628Y-182685771D01*
X183791485Y-182185771D02*
X183791485Y-183471485D01*
X183862914Y-183614342D01*
X184005771Y-183685771D01*
X184148628Y-183685771D01*
X184648628Y-183542914D02*
X184720057Y-183614342D01*
X184648628Y-183685771D01*
X184577200Y-183614342D01*
X184648628Y-183542914D01*
X184648628Y-183685771D01*
X184648628Y-182757200D02*
X184720057Y-182828628D01*
X184648628Y-182900057D01*
X184577200Y-182828628D01*
X184648628Y-182757200D01*
X184648628Y-182900057D01*
D10*
D11*
X197002200Y-191507200D02*
X197002200Y-194507200D01*
D10*
D11*
X261002200Y-191507200D02*
X261002200Y-198007200D01*
D14*
X145923000Y-85598000D03*
D15*
X163322000Y-82042000D03*
D16*
X162052000Y-82042000D03*
D17*
X108994000Y-100810000D03*
X108994000Y-104310000D03*
X108994000Y-107810000D03*
X112494000Y-107810000D03*
X112494000Y-104310000D03*
X112494000Y-100810000D03*
X108994000Y-90310000D03*
X108994000Y-93810000D03*
X108994000Y-97310000D03*
X112494000Y-97310000D03*
X112494000Y-93810000D03*
X112494000Y-90310000D03*
D18*
X106794000Y-114810000D03*
X106794000Y-83310000D03*
D19*
X161988500Y-87503000D03*
D20*
X155988500Y-89503000D03*
X167988500Y-89503000D03*
X155988500Y-101703000D03*
X167988500Y-101703000D03*
D14*
X114935000Y-86207600D03*
X118821200Y-96240600D03*
X168846500Y-112458500D03*
X138290300Y-107823000D03*
X115265200Y-110032800D03*
X144018000Y-92265500D03*
D21*
X150241000Y-114046000D03*
X141224000Y-115062000D03*
X128397000Y-110871000D03*
X128397000Y-115316000D03*
X136144000Y-116713000D03*
X123952000Y-105537000D03*
X158242000Y-114046000D03*
X133667500Y-94615000D03*
X123952000Y-91313000D03*
X138557000Y-81953090D03*
X134747000Y-99314000D03*
X151003000Y-95377000D03*
X143129000Y-106426000D03*
X115570000Y-114681000D03*
X120904000Y-115062000D03*
X133858020Y-95630980D03*
X131572000Y-93977400D03*
X148209000Y-107188000D03*
X134366000Y-88011000D03*
X152527000Y-108585000D03*
X132714999Y-91948001D03*
X133286500Y-90297000D03*
X131826000Y-88772994D03*
D22*
X133225580Y-95630980D02*
X131572000Y-93977400D01*
X133858020Y-95630980D02*
X133225580Y-95630980D01*
X114125001Y-96527119D02*
X114125001Y-98092881D01*
X114060158Y-96462276D02*
X114125001Y-96527119D01*
X127337434Y-83185000D02*
X114060158Y-96462276D01*
X159893000Y-97798500D02*
X159893000Y-86233000D01*
X156845000Y-83185000D02*
X127337434Y-83185000D01*
X159893000Y-86233000D02*
X156845000Y-83185000D01*
X155988500Y-101703000D02*
X159893000Y-97798500D01*
X114125001Y-99178999D02*
X112776000Y-100528000D01*
X114125001Y-98092881D02*
X114125001Y-99178999D01*
X127127000Y-82677000D02*
X112494000Y-97310000D01*
X157162500Y-82677000D02*
X127127000Y-82677000D01*
X161988500Y-87503000D02*
X157162500Y-82677000D01*
D23*
X134366000Y-93345000D02*
X148209000Y-107188000D01*
X134366000Y-88011000D02*
X134366000Y-93345000D01*
X132714999Y-92709999D02*
X132714999Y-91948001D01*
X148590000Y-108585000D02*
X132714999Y-92709999D01*
X132714999Y-92432934D02*
X132714999Y-91948001D01*
X132714999Y-92709999D02*
X132714999Y-92432934D01*
X152527000Y-108585000D02*
X148590000Y-108585000D01*
X133286500Y-90297000D02*
X131826000Y-88836500D01*
X131826000Y-88836500D02*
X131826000Y-88772994D01*
D22*
G36*
X169081687Y-77749018D02*
G01*
X169430079Y-77854203D01*
X169751409Y-78025057D01*
X170033428Y-78255067D01*
X170265401Y-78535474D01*
X170438494Y-78855603D01*
X170546109Y-79203250D01*
X170587600Y-79598015D01*
X170587601Y-118392769D01*
X170548683Y-118789686D01*
X170443497Y-119138079D01*
X170272643Y-119459409D01*
X170042635Y-119741425D01*
X169762224Y-119973402D01*
X169442094Y-120146495D01*
X169094454Y-120254108D01*
X168699685Y-120295600D01*
X103704821Y-120295600D01*
X103307914Y-120256683D01*
X102959521Y-120151497D01*
X102638191Y-119980643D01*
X102356175Y-119750635D01*
X102124198Y-119470224D01*
X101951105Y-119150094D01*
X101843492Y-118802454D01*
X101802000Y-118407685D01*
X101802000Y-118256617D01*
X166984500Y-118256617D01*
X166984500Y-118598383D01*
X167051175Y-118933581D01*
X167181963Y-119249331D01*
X167371837Y-119533498D01*
X167613502Y-119775163D01*
X167897669Y-119965037D01*
X168213419Y-120095825D01*
X168548617Y-120162500D01*
X168890383Y-120162500D01*
X169225581Y-120095825D01*
X169541331Y-119965037D01*
X169825498Y-119775163D01*
X170067163Y-119533498D01*
X170257037Y-119249331D01*
X170387825Y-118933581D01*
X170454500Y-118598383D01*
X170454500Y-118256617D01*
X170387825Y-117921419D01*
X170257037Y-117605669D01*
X170067163Y-117321502D01*
X169825498Y-117079837D01*
X169541331Y-116889963D01*
X169225581Y-116759175D01*
X168890383Y-116692500D01*
X168548617Y-116692500D01*
X168213419Y-116759175D01*
X167897669Y-116889963D01*
X167613502Y-117079837D01*
X167371837Y-117321502D01*
X167181963Y-117605669D01*
X167051175Y-117921419D01*
X166984500Y-118256617D01*
X101802000Y-118256617D01*
X101802000Y-117013148D01*
X104770457Y-117013148D01*
X105046627Y-117431118D01*
X105591557Y-117721649D01*
X106182696Y-117900287D01*
X106797328Y-117960168D01*
X107411831Y-117898990D01*
X108002592Y-117719103D01*
X108541373Y-117431118D01*
X108817543Y-117013148D01*
X106794000Y-114989605D01*
X104770457Y-117013148D01*
X101802000Y-117013148D01*
X101802000Y-114813328D01*
X103643832Y-114813328D01*
X103705010Y-115427831D01*
X103884897Y-116018592D01*
X104172882Y-116557373D01*
X104590852Y-116833543D01*
X106614395Y-114810000D01*
X106973605Y-114810000D01*
X108997148Y-116833543D01*
X109415118Y-116557373D01*
X109705649Y-116012443D01*
X109884287Y-115421304D01*
X109944168Y-114806672D01*
X109882990Y-114192169D01*
X109703103Y-113601408D01*
X109699097Y-113593913D01*
X167890692Y-113593913D01*
X167986456Y-113858314D01*
X168276071Y-113999204D01*
X168587608Y-114080884D01*
X168909095Y-114100218D01*
X169228175Y-114056461D01*
X169532588Y-113951295D01*
X169706544Y-113858314D01*
X169802308Y-113593913D01*
X168846500Y-112638105D01*
X167890692Y-113593913D01*
X109699097Y-113593913D01*
X109415118Y-113062627D01*
X108997148Y-112786457D01*
X106973605Y-114810000D01*
X106614395Y-114810000D01*
X104590852Y-112786457D01*
X104172882Y-113062627D01*
X103882351Y-113607557D01*
X103703713Y-114198696D01*
X103643832Y-114813328D01*
X101802000Y-114813328D01*
X101802000Y-112606852D01*
X104770457Y-112606852D01*
X106794000Y-114630395D01*
X108817543Y-112606852D01*
X108760880Y-112521095D01*
X167204782Y-112521095D01*
X167248539Y-112840175D01*
X167353705Y-113144588D01*
X167446686Y-113318544D01*
X167711087Y-113414308D01*
X168666895Y-112458500D01*
X169026105Y-112458500D01*
X169981913Y-113414308D01*
X170246314Y-113318544D01*
X170387204Y-113028929D01*
X170468884Y-112717392D01*
X170488218Y-112395905D01*
X170444461Y-112076825D01*
X170339295Y-111772412D01*
X170246314Y-111598456D01*
X169981913Y-111502692D01*
X169026105Y-112458500D01*
X168666895Y-112458500D01*
X167711087Y-111502692D01*
X167446686Y-111598456D01*
X167305796Y-111888071D01*
X167224116Y-112199608D01*
X167204782Y-112521095D01*
X108760880Y-112521095D01*
X108541373Y-112188882D01*
X107996443Y-111898351D01*
X107405304Y-111719713D01*
X106790672Y-111659832D01*
X106176169Y-111721010D01*
X105585408Y-111900897D01*
X105046627Y-112188882D01*
X104770457Y-112606852D01*
X101802000Y-112606852D01*
X101802000Y-109871767D01*
X113630200Y-109871767D01*
X113630200Y-110193833D01*
X113693032Y-110509712D01*
X113816282Y-110807263D01*
X113995213Y-111075052D01*
X114222948Y-111302787D01*
X114490737Y-111481718D01*
X114788288Y-111604968D01*
X115104167Y-111667800D01*
X115426233Y-111667800D01*
X115742112Y-111604968D01*
X116039663Y-111481718D01*
X116277070Y-111323087D01*
X167890692Y-111323087D01*
X168846500Y-112278895D01*
X169802308Y-111323087D01*
X169706544Y-111058686D01*
X169416929Y-110917796D01*
X169105392Y-110836116D01*
X168783905Y-110816782D01*
X168464825Y-110860539D01*
X168160412Y-110965705D01*
X167986456Y-111058686D01*
X167890692Y-111323087D01*
X116277070Y-111323087D01*
X116307452Y-111302787D01*
X116535187Y-111075052D01*
X116714118Y-110807263D01*
X116837368Y-110509712D01*
X116900200Y-110193833D01*
X116900200Y-109871767D01*
X116837368Y-109555888D01*
X116714118Y-109258337D01*
X116535187Y-108990548D01*
X116307452Y-108762813D01*
X116039663Y-108583882D01*
X115742112Y-108460632D01*
X115426233Y-108397800D01*
X115104167Y-108397800D01*
X114788288Y-108460632D01*
X114490737Y-108583882D01*
X114222948Y-108762813D01*
X113995213Y-108990548D01*
X113816282Y-109258337D01*
X113693032Y-109555888D01*
X113630200Y-109871767D01*
X101802000Y-109871767D01*
X101802000Y-90124344D01*
X107109000Y-90124344D01*
X107109000Y-90495656D01*
X107181439Y-90859834D01*
X107323534Y-91202882D01*
X107529825Y-91511618D01*
X107792382Y-91774175D01*
X108101118Y-91980466D01*
X108293130Y-92060000D01*
X108101118Y-92139534D01*
X107792382Y-92345825D01*
X107529825Y-92608382D01*
X107323534Y-92917118D01*
X107181439Y-93260166D01*
X107109000Y-93624344D01*
X107109000Y-93995656D01*
X107181439Y-94359834D01*
X107323534Y-94702882D01*
X107529825Y-95011618D01*
X107792382Y-95274175D01*
X108101118Y-95480466D01*
X108293130Y-95560000D01*
X108101118Y-95639534D01*
X107792382Y-95845825D01*
X107529825Y-96108382D01*
X107323534Y-96417118D01*
X107181439Y-96760166D01*
X107109000Y-97124344D01*
X107109000Y-97495656D01*
X107181439Y-97859834D01*
X107323534Y-98202882D01*
X107529825Y-98511618D01*
X107792382Y-98774175D01*
X108101118Y-98980466D01*
X108293130Y-99060000D01*
X108101118Y-99139534D01*
X107792382Y-99345825D01*
X107529825Y-99608382D01*
X107323534Y-99917118D01*
X107181439Y-100260166D01*
X107109000Y-100624344D01*
X107109000Y-100995656D01*
X107181439Y-101359834D01*
X107323534Y-101702882D01*
X107529825Y-102011618D01*
X107792382Y-102274175D01*
X108101118Y-102480466D01*
X108293130Y-102560000D01*
X108101118Y-102639534D01*
X107792382Y-102845825D01*
X107529825Y-103108382D01*
X107323534Y-103417118D01*
X107181439Y-103760166D01*
X107109000Y-104124344D01*
X107109000Y-104495656D01*
X107181439Y-104859834D01*
X107323534Y-105202882D01*
X107529825Y-105511618D01*
X107792382Y-105774175D01*
X108101118Y-105980466D01*
X108293130Y-106060000D01*
X108101118Y-106139534D01*
X107792382Y-106345825D01*
X107529825Y-106608382D01*
X107323534Y-106917118D01*
X107181439Y-107260166D01*
X107109000Y-107624344D01*
X107109000Y-107995656D01*
X107181439Y-108359834D01*
X107323534Y-108702882D01*
X107529825Y-109011618D01*
X107792382Y-109274175D01*
X108101118Y-109480466D01*
X108444166Y-109622561D01*
X108808344Y-109695000D01*
X109179656Y-109695000D01*
X109543834Y-109622561D01*
X109886882Y-109480466D01*
X110195618Y-109274175D01*
X110346188Y-109123605D01*
X111360000Y-109123605D01*
X111485914Y-109413577D01*
X111818126Y-109579433D01*
X112176312Y-109677290D01*
X112546706Y-109703389D01*
X112915075Y-109656725D01*
X113267262Y-109539094D01*
X113502086Y-109413577D01*
X113628000Y-109123605D01*
X112494000Y-107989605D01*
X111360000Y-109123605D01*
X110346188Y-109123605D01*
X110458175Y-109011618D01*
X110664466Y-108702882D01*
X110742188Y-108515244D01*
X110764906Y-108583262D01*
X110890423Y-108818086D01*
X111180395Y-108944000D01*
X112314395Y-107810000D01*
X112673605Y-107810000D01*
X113807605Y-108944000D01*
X114097577Y-108818086D01*
X114263433Y-108485874D01*
X114361290Y-108127688D01*
X114387389Y-107757294D01*
X114375314Y-107661967D01*
X136655300Y-107661967D01*
X136655300Y-107984033D01*
X136718132Y-108299912D01*
X136841382Y-108597463D01*
X137020313Y-108865252D01*
X137248048Y-109092987D01*
X137515837Y-109271918D01*
X137813388Y-109395168D01*
X138129267Y-109458000D01*
X138451333Y-109458000D01*
X138767212Y-109395168D01*
X139064763Y-109271918D01*
X139332552Y-109092987D01*
X139560287Y-108865252D01*
X139739218Y-108597463D01*
X139862468Y-108299912D01*
X139925300Y-107984033D01*
X139925300Y-107661967D01*
X139862468Y-107346088D01*
X139739218Y-107048537D01*
X139560287Y-106780748D01*
X139332552Y-106553013D01*
X139064763Y-106374082D01*
X138767212Y-106250832D01*
X138451333Y-106188000D01*
X138129267Y-106188000D01*
X137813388Y-106250832D01*
X137515837Y-106374082D01*
X137248048Y-106553013D01*
X137020313Y-106780748D01*
X136841382Y-107048537D01*
X136718132Y-107346088D01*
X136655300Y-107661967D01*
X114375314Y-107661967D01*
X114340725Y-107388925D01*
X114223094Y-107036738D01*
X114097577Y-106801914D01*
X113807605Y-106676000D01*
X112673605Y-107810000D01*
X112314395Y-107810000D01*
X111180395Y-106676000D01*
X110890423Y-106801914D01*
X110740847Y-107101518D01*
X110664466Y-106917118D01*
X110458175Y-106608382D01*
X110195618Y-106345825D01*
X109886882Y-106139534D01*
X109694870Y-106060000D01*
X109886882Y-105980466D01*
X110195618Y-105774175D01*
X110458175Y-105511618D01*
X110664466Y-105202882D01*
X110744000Y-105010870D01*
X110823534Y-105202882D01*
X111029825Y-105511618D01*
X111292382Y-105774175D01*
X111601118Y-105980466D01*
X111788756Y-106058188D01*
X111720738Y-106080906D01*
X111485914Y-106206423D01*
X111360000Y-106496395D01*
X112494000Y-107630395D01*
X113628000Y-106496395D01*
X113502086Y-106206423D01*
X113202482Y-106056847D01*
X113386882Y-105980466D01*
X113695618Y-105774175D01*
X113958175Y-105511618D01*
X114164466Y-105202882D01*
X114306561Y-104859834D01*
X114379000Y-104495656D01*
X114379000Y-104124344D01*
X114306561Y-103760166D01*
X114164466Y-103417118D01*
X113958175Y-103108382D01*
X113695618Y-102845825D01*
X113386882Y-102639534D01*
X113194870Y-102560000D01*
X113386882Y-102480466D01*
X113695618Y-102274175D01*
X113958175Y-102011618D01*
X114164466Y-101702882D01*
X114306561Y-101359834D01*
X114379000Y-100995656D01*
X114379000Y-100624344D01*
X114306561Y-100260166D01*
X114252347Y-100129283D01*
X114637347Y-99744283D01*
X114666423Y-99720421D01*
X114758371Y-99608382D01*
X114761646Y-99604392D01*
X114832402Y-99472015D01*
X114832403Y-99472014D01*
X114875975Y-99328377D01*
X114887001Y-99216425D01*
X114887001Y-99216422D01*
X114890687Y-99178999D01*
X114887001Y-99141576D01*
X114887001Y-96713063D01*
X115520497Y-96079567D01*
X117186200Y-96079567D01*
X117186200Y-96401633D01*
X117249032Y-96717512D01*
X117372282Y-97015063D01*
X117551213Y-97282852D01*
X117778948Y-97510587D01*
X118046737Y-97689518D01*
X118344288Y-97812768D01*
X118660167Y-97875600D01*
X118982233Y-97875600D01*
X119298112Y-97812768D01*
X119595663Y-97689518D01*
X119863452Y-97510587D01*
X120091187Y-97282852D01*
X120270118Y-97015063D01*
X120393368Y-96717512D01*
X120456200Y-96401633D01*
X120456200Y-96079567D01*
X120393368Y-95763688D01*
X120270118Y-95466137D01*
X120091187Y-95198348D01*
X119863452Y-94970613D01*
X119595663Y-94791682D01*
X119298112Y-94668432D01*
X118982233Y-94605600D01*
X118660167Y-94605600D01*
X118344288Y-94668432D01*
X118046737Y-94791682D01*
X117778948Y-94970613D01*
X117551213Y-95198348D01*
X117372282Y-95466137D01*
X117249032Y-95763688D01*
X117186200Y-96079567D01*
X115520497Y-96079567D01*
X117718979Y-93881085D01*
X130594100Y-93881085D01*
X130594100Y-94073715D01*
X130631680Y-94262643D01*
X130705396Y-94440610D01*
X130812415Y-94600775D01*
X130948625Y-94736985D01*
X131108790Y-94844004D01*
X131286757Y-94917720D01*
X131471422Y-94954452D01*
X132660301Y-96143332D01*
X132684158Y-96172402D01*
X132800188Y-96267625D01*
X132932565Y-96338382D01*
X133076202Y-96381954D01*
X133188154Y-96392980D01*
X133188156Y-96392980D01*
X133225579Y-96396666D01*
X133241438Y-96395104D01*
X133394810Y-96497584D01*
X133572777Y-96571300D01*
X133761705Y-96608880D01*
X133954335Y-96608880D01*
X134143263Y-96571300D01*
X134321230Y-96497584D01*
X134481395Y-96390565D01*
X134617605Y-96254355D01*
X134724624Y-96094190D01*
X134798340Y-95916223D01*
X134817767Y-95818555D01*
X148062407Y-109063196D01*
X148084673Y-109090327D01*
X148111804Y-109112593D01*
X148111809Y-109112598D01*
X148192967Y-109179202D01*
X148316518Y-109245242D01*
X148359687Y-109258337D01*
X148450580Y-109285909D01*
X148555064Y-109296200D01*
X148555071Y-109296200D01*
X148590000Y-109299640D01*
X148624928Y-109296200D01*
X151855240Y-109296200D01*
X151903625Y-109344585D01*
X152063790Y-109451604D01*
X152241757Y-109525320D01*
X152430685Y-109562900D01*
X152623315Y-109562900D01*
X152812243Y-109525320D01*
X152990210Y-109451604D01*
X153150375Y-109344585D01*
X153286585Y-109208375D01*
X153393604Y-109048210D01*
X153467320Y-108870243D01*
X153504900Y-108681315D01*
X153504900Y-108488685D01*
X153467320Y-108299757D01*
X153393604Y-108121790D01*
X153286585Y-107961625D01*
X153150375Y-107825415D01*
X152990210Y-107718396D01*
X152812243Y-107644680D01*
X152623315Y-107607100D01*
X152430685Y-107607100D01*
X152241757Y-107644680D01*
X152063790Y-107718396D01*
X151903625Y-107825415D01*
X151855240Y-107873800D01*
X148906160Y-107873800D01*
X148968585Y-107811375D01*
X149075604Y-107651210D01*
X149149320Y-107473243D01*
X149186900Y-107284315D01*
X149186900Y-107091685D01*
X149149320Y-106902757D01*
X149075604Y-106724790D01*
X148968585Y-106564625D01*
X148832375Y-106428415D01*
X148672210Y-106321396D01*
X148494243Y-106247680D01*
X148305315Y-106210100D01*
X148236889Y-106210100D01*
X135077200Y-93050413D01*
X135077200Y-92104467D01*
X142383000Y-92104467D01*
X142383000Y-92426533D01*
X142445832Y-92742412D01*
X142569082Y-93039963D01*
X142748013Y-93307752D01*
X142975748Y-93535487D01*
X143243537Y-93714418D01*
X143541088Y-93837668D01*
X143856967Y-93900500D01*
X144179033Y-93900500D01*
X144494912Y-93837668D01*
X144792463Y-93714418D01*
X145060252Y-93535487D01*
X145287987Y-93307752D01*
X145466918Y-93039963D01*
X145590168Y-92742412D01*
X145653000Y-92426533D01*
X145653000Y-92104467D01*
X145590168Y-91788588D01*
X145466918Y-91491037D01*
X145287987Y-91223248D01*
X145060252Y-90995513D01*
X144792463Y-90816582D01*
X144494912Y-90693332D01*
X144179033Y-90630500D01*
X143856967Y-90630500D01*
X143541088Y-90693332D01*
X143243537Y-90816582D01*
X142975748Y-90995513D01*
X142748013Y-91223248D01*
X142569082Y-91491037D01*
X142445832Y-91788588D01*
X142383000Y-92104467D01*
X135077200Y-92104467D01*
X135077200Y-89327193D01*
X154203500Y-89327193D01*
X154203500Y-89678807D01*
X154272096Y-90023665D01*
X154406653Y-90348515D01*
X154602000Y-90640871D01*
X154850629Y-90889500D01*
X155142985Y-91084847D01*
X155467835Y-91219404D01*
X155812693Y-91288000D01*
X156164307Y-91288000D01*
X156509165Y-91219404D01*
X156834015Y-91084847D01*
X157126371Y-90889500D01*
X157375000Y-90640871D01*
X157570347Y-90348515D01*
X157704904Y-90023665D01*
X157773500Y-89678807D01*
X157773500Y-89327193D01*
X157704904Y-88982335D01*
X157570347Y-88657485D01*
X157375000Y-88365129D01*
X157126371Y-88116500D01*
X156834015Y-87921153D01*
X156509165Y-87786596D01*
X156164307Y-87718000D01*
X155812693Y-87718000D01*
X155467835Y-87786596D01*
X155142985Y-87921153D01*
X154850629Y-88116500D01*
X154602000Y-88365129D01*
X154406653Y-88657485D01*
X154272096Y-88982335D01*
X154203500Y-89327193D01*
X135077200Y-89327193D01*
X135077200Y-88682760D01*
X135125585Y-88634375D01*
X135232604Y-88474210D01*
X135306320Y-88296243D01*
X135343900Y-88107315D01*
X135343900Y-87914685D01*
X135306320Y-87725757D01*
X135232604Y-87547790D01*
X135125585Y-87387625D01*
X134989375Y-87251415D01*
X134829210Y-87144396D01*
X134651243Y-87070680D01*
X134462315Y-87033100D01*
X134269685Y-87033100D01*
X134080757Y-87070680D01*
X133902790Y-87144396D01*
X133742625Y-87251415D01*
X133606415Y-87387625D01*
X133499396Y-87547790D01*
X133425680Y-87725757D01*
X133388100Y-87914685D01*
X133388100Y-88107315D01*
X133425680Y-88296243D01*
X133499396Y-88474210D01*
X133606415Y-88634375D01*
X133654800Y-88682760D01*
X133654800Y-89391083D01*
X133571743Y-89356680D01*
X133382815Y-89319100D01*
X133314388Y-89319100D01*
X132803900Y-88808613D01*
X132803900Y-88676679D01*
X132766320Y-88487751D01*
X132692604Y-88309784D01*
X132585585Y-88149619D01*
X132449375Y-88013409D01*
X132289210Y-87906390D01*
X132111243Y-87832674D01*
X131922315Y-87795094D01*
X131729685Y-87795094D01*
X131540757Y-87832674D01*
X131362790Y-87906390D01*
X131202625Y-88013409D01*
X131066415Y-88149619D01*
X130959396Y-88309784D01*
X130885680Y-88487751D01*
X130848100Y-88676679D01*
X130848100Y-88869309D01*
X130885680Y-89058237D01*
X130959396Y-89236204D01*
X131066415Y-89396369D01*
X131202625Y-89532579D01*
X131362790Y-89639598D01*
X131540757Y-89713314D01*
X131729685Y-89750894D01*
X131734607Y-89750894D01*
X132308600Y-90324888D01*
X132308600Y-90393315D01*
X132346180Y-90582243D01*
X132419896Y-90760210D01*
X132526915Y-90920375D01*
X132583616Y-90977076D01*
X132429756Y-91007681D01*
X132251789Y-91081397D01*
X132091624Y-91188416D01*
X131955414Y-91324626D01*
X131848395Y-91484791D01*
X131774679Y-91662758D01*
X131737099Y-91851686D01*
X131737099Y-92044316D01*
X131774679Y-92233244D01*
X131848395Y-92411211D01*
X131955414Y-92571376D01*
X132003799Y-92619761D01*
X132003799Y-92675073D01*
X132000359Y-92709999D01*
X132003799Y-92744925D01*
X132003799Y-92744934D01*
X132014090Y-92849418D01*
X132054757Y-92983479D01*
X132120797Y-93107031D01*
X132209672Y-93215325D01*
X132236810Y-93237597D01*
X133670445Y-94671233D01*
X133572777Y-94690660D01*
X133424365Y-94752134D01*
X132549052Y-93876822D01*
X132512320Y-93692157D01*
X132438604Y-93514190D01*
X132331585Y-93354025D01*
X132195375Y-93217815D01*
X132035210Y-93110796D01*
X131857243Y-93037080D01*
X131668315Y-92999500D01*
X131475685Y-92999500D01*
X131286757Y-93037080D01*
X131108790Y-93110796D01*
X130948625Y-93217815D01*
X130812415Y-93354025D01*
X130705396Y-93514190D01*
X130631680Y-93692157D01*
X130594100Y-93881085D01*
X117718979Y-93881085D01*
X126163097Y-85436967D01*
X144288000Y-85436967D01*
X144288000Y-85759033D01*
X144350832Y-86074912D01*
X144474082Y-86372463D01*
X144653013Y-86640252D01*
X144880748Y-86867987D01*
X145148537Y-87046918D01*
X145446088Y-87170168D01*
X145761967Y-87233000D01*
X146084033Y-87233000D01*
X146399912Y-87170168D01*
X146697463Y-87046918D01*
X146965252Y-86867987D01*
X147192987Y-86640252D01*
X147371918Y-86372463D01*
X147495168Y-86074912D01*
X147558000Y-85759033D01*
X147558000Y-85436967D01*
X147495168Y-85121088D01*
X147371918Y-84823537D01*
X147192987Y-84555748D01*
X146965252Y-84328013D01*
X146697463Y-84149082D01*
X146399912Y-84025832D01*
X146084033Y-83963000D01*
X145761967Y-83963000D01*
X145446088Y-84025832D01*
X145148537Y-84149082D01*
X144880748Y-84328013D01*
X144653013Y-84555748D01*
X144474082Y-84823537D01*
X144350832Y-85121088D01*
X144288000Y-85436967D01*
X126163097Y-85436967D01*
X127653065Y-83947000D01*
X156529370Y-83947000D01*
X159131001Y-86548632D01*
X159131000Y-97482869D01*
X156592681Y-100021189D01*
X156509165Y-99986596D01*
X156164307Y-99918000D01*
X155812693Y-99918000D01*
X155467835Y-99986596D01*
X155142985Y-100121153D01*
X154850629Y-100316500D01*
X154602000Y-100565129D01*
X154406653Y-100857485D01*
X154272096Y-101182335D01*
X154203500Y-101527193D01*
X154203500Y-101878807D01*
X154272096Y-102223665D01*
X154406653Y-102548515D01*
X154602000Y-102840871D01*
X154850629Y-103089500D01*
X155142985Y-103284847D01*
X155467835Y-103419404D01*
X155812693Y-103488000D01*
X156164307Y-103488000D01*
X156509165Y-103419404D01*
X156834015Y-103284847D01*
X157126371Y-103089500D01*
X157375000Y-102840871D01*
X157570347Y-102548515D01*
X157704904Y-102223665D01*
X157773500Y-101878807D01*
X157773500Y-101527193D01*
X166203500Y-101527193D01*
X166203500Y-101878807D01*
X166272096Y-102223665D01*
X166406653Y-102548515D01*
X166602000Y-102840871D01*
X166850629Y-103089500D01*
X167142985Y-103284847D01*
X167467835Y-103419404D01*
X167812693Y-103488000D01*
X168164307Y-103488000D01*
X168509165Y-103419404D01*
X168834015Y-103284847D01*
X169126371Y-103089500D01*
X169375000Y-102840871D01*
X169570347Y-102548515D01*
X169704904Y-102223665D01*
X169773500Y-101878807D01*
X169773500Y-101527193D01*
X169704904Y-101182335D01*
X169570347Y-100857485D01*
X169375000Y-100565129D01*
X169126371Y-100316500D01*
X168834015Y-100121153D01*
X168509165Y-99986596D01*
X168164307Y-99918000D01*
X167812693Y-99918000D01*
X167467835Y-99986596D01*
X167142985Y-100121153D01*
X166850629Y-100316500D01*
X166602000Y-100565129D01*
X166406653Y-100857485D01*
X166272096Y-101182335D01*
X166203500Y-101527193D01*
X157773500Y-101527193D01*
X157704904Y-101182335D01*
X157670311Y-101098819D01*
X160405353Y-98363778D01*
X160434422Y-98339922D01*
X160514572Y-98242259D01*
X160529645Y-98223893D01*
X160600401Y-98091516D01*
X160600402Y-98091515D01*
X160643974Y-97947878D01*
X160655000Y-97835926D01*
X160655000Y-97835923D01*
X160658686Y-97798500D01*
X160655000Y-97761077D01*
X160655000Y-90745349D01*
X166925756Y-90745349D01*
X167039618Y-91025090D01*
X167354796Y-91180961D01*
X167694326Y-91272349D01*
X168045161Y-91295741D01*
X168393819Y-91250240D01*
X168726900Y-91137594D01*
X168937382Y-91025090D01*
X169051244Y-90745349D01*
X167988500Y-89682605D01*
X166925756Y-90745349D01*
X160655000Y-90745349D01*
X160655000Y-89559661D01*
X166195759Y-89559661D01*
X166241260Y-89908319D01*
X166353906Y-90241400D01*
X166466410Y-90451882D01*
X166746151Y-90565744D01*
X167808895Y-89503000D01*
X168168105Y-89503000D01*
X169230849Y-90565744D01*
X169510590Y-90451882D01*
X169666461Y-90136704D01*
X169757849Y-89797174D01*
X169781241Y-89446339D01*
X169735740Y-89097681D01*
X169623094Y-88764600D01*
X169510590Y-88554118D01*
X169230849Y-88440256D01*
X168168105Y-89503000D01*
X167808895Y-89503000D01*
X166746151Y-88440256D01*
X166466410Y-88554118D01*
X166310539Y-88869296D01*
X166219151Y-89208826D01*
X166195759Y-89559661D01*
X160655000Y-89559661D01*
X160655000Y-89260909D01*
X160714018Y-89278812D01*
X160838500Y-89291072D01*
X163138500Y-89291072D01*
X163262982Y-89278812D01*
X163382680Y-89242502D01*
X163492994Y-89183537D01*
X163589685Y-89104185D01*
X163669037Y-89007494D01*
X163728002Y-88897180D01*
X163764312Y-88777482D01*
X163776572Y-88653000D01*
X163776572Y-88260651D01*
X166925756Y-88260651D01*
X167988500Y-89323395D01*
X169051244Y-88260651D01*
X168937382Y-87980910D01*
X168622204Y-87825039D01*
X168282674Y-87733651D01*
X167931839Y-87710259D01*
X167583181Y-87755760D01*
X167250100Y-87868406D01*
X167039618Y-87980910D01*
X166925756Y-88260651D01*
X163776572Y-88260651D01*
X163776572Y-86353000D01*
X163764312Y-86228518D01*
X163728002Y-86108820D01*
X163669037Y-85998506D01*
X163589685Y-85901815D01*
X163492994Y-85822463D01*
X163382680Y-85763498D01*
X163262982Y-85727188D01*
X163138500Y-85714928D01*
X161278058Y-85714928D01*
X157727784Y-82164654D01*
X157703922Y-82135578D01*
X157587892Y-82040355D01*
X157455515Y-81969598D01*
X157311878Y-81926026D01*
X157199926Y-81915000D01*
X157199923Y-81915000D01*
X157162500Y-81911314D01*
X157125077Y-81915000D01*
X127164422Y-81915000D01*
X127126999Y-81911314D01*
X127089576Y-81915000D01*
X127089574Y-81915000D01*
X126977622Y-81926026D01*
X126833985Y-81969598D01*
X126701608Y-82040355D01*
X126585578Y-82135578D01*
X126561721Y-82164648D01*
X114264152Y-94462217D01*
X114306561Y-94359834D01*
X114379000Y-93995656D01*
X114379000Y-93624344D01*
X114306561Y-93260166D01*
X114164466Y-92917118D01*
X113958175Y-92608382D01*
X113695618Y-92345825D01*
X113386882Y-92139534D01*
X113194870Y-92060000D01*
X113386882Y-91980466D01*
X113695618Y-91774175D01*
X113958175Y-91511618D01*
X114164466Y-91202882D01*
X114306561Y-90859834D01*
X114379000Y-90495656D01*
X114379000Y-90124344D01*
X114306561Y-89760166D01*
X114164466Y-89417118D01*
X113958175Y-89108382D01*
X113695618Y-88845825D01*
X113386882Y-88639534D01*
X113043834Y-88497439D01*
X112679656Y-88425000D01*
X112308344Y-88425000D01*
X111944166Y-88497439D01*
X111601118Y-88639534D01*
X111292382Y-88845825D01*
X111029825Y-89108382D01*
X110823534Y-89417118D01*
X110744000Y-89609130D01*
X110664466Y-89417118D01*
X110458175Y-89108382D01*
X110195618Y-88845825D01*
X109886882Y-88639534D01*
X109543834Y-88497439D01*
X109179656Y-88425000D01*
X108808344Y-88425000D01*
X108444166Y-88497439D01*
X108101118Y-88639534D01*
X107792382Y-88845825D01*
X107529825Y-89108382D01*
X107323534Y-89417118D01*
X107181439Y-89760166D01*
X107109000Y-90124344D01*
X101802000Y-90124344D01*
X101802000Y-85513148D01*
X104770457Y-85513148D01*
X105046627Y-85931118D01*
X105591557Y-86221649D01*
X106182696Y-86400287D01*
X106797328Y-86460168D01*
X107411831Y-86398990D01*
X108002592Y-86219103D01*
X108325383Y-86046567D01*
X113300000Y-86046567D01*
X113300000Y-86368633D01*
X113362832Y-86684512D01*
X113486082Y-86982063D01*
X113665013Y-87249852D01*
X113892748Y-87477587D01*
X114160537Y-87656518D01*
X114458088Y-87779768D01*
X114773967Y-87842600D01*
X115096033Y-87842600D01*
X115411912Y-87779768D01*
X115709463Y-87656518D01*
X115977252Y-87477587D01*
X116204987Y-87249852D01*
X116383918Y-86982063D01*
X116507168Y-86684512D01*
X116570000Y-86368633D01*
X116570000Y-86046567D01*
X116507168Y-85730688D01*
X116383918Y-85433137D01*
X116204987Y-85165348D01*
X115977252Y-84937613D01*
X115709463Y-84758682D01*
X115411912Y-84635432D01*
X115096033Y-84572600D01*
X114773967Y-84572600D01*
X114458088Y-84635432D01*
X114160537Y-84758682D01*
X113892748Y-84937613D01*
X113665013Y-85165348D01*
X113486082Y-85433137D01*
X113362832Y-85730688D01*
X113300000Y-86046567D01*
X108325383Y-86046567D01*
X108541373Y-85931118D01*
X108817543Y-85513148D01*
X106794000Y-83489605D01*
X104770457Y-85513148D01*
X101802000Y-85513148D01*
X101802000Y-83313328D01*
X103643832Y-83313328D01*
X103705010Y-83927831D01*
X103884897Y-84518592D01*
X104172882Y-85057373D01*
X104590852Y-85333543D01*
X106614395Y-83310000D01*
X106973605Y-83310000D01*
X108997148Y-85333543D01*
X109415118Y-85057373D01*
X109705649Y-84512443D01*
X109884287Y-83921304D01*
X109944168Y-83306672D01*
X109882990Y-82692169D01*
X109703103Y-82101408D01*
X109415118Y-81562627D01*
X109383901Y-81542000D01*
X160913928Y-81542000D01*
X160913928Y-82542000D01*
X160926188Y-82666482D01*
X160962498Y-82786180D01*
X161021463Y-82896494D01*
X161100815Y-82993185D01*
X161197506Y-83072537D01*
X161307820Y-83131502D01*
X161427518Y-83167812D01*
X161552000Y-83180072D01*
X162552000Y-83180072D01*
X162676482Y-83167812D01*
X162796180Y-83131502D01*
X162874379Y-83089703D01*
X162885553Y-83095676D01*
X163099501Y-83160577D01*
X163266248Y-83177000D01*
X163377752Y-83177000D01*
X163544499Y-83160577D01*
X163758447Y-83095676D01*
X163955623Y-82990284D01*
X164128449Y-82848449D01*
X164270284Y-82675623D01*
X164375676Y-82478447D01*
X164440577Y-82264499D01*
X164462491Y-82042000D01*
X164440577Y-81819501D01*
X164375676Y-81605553D01*
X164270284Y-81408377D01*
X164128449Y-81235551D01*
X163955623Y-81093716D01*
X163758447Y-80988324D01*
X163544499Y-80923423D01*
X163377752Y-80907000D01*
X163266248Y-80907000D01*
X163099501Y-80923423D01*
X162885553Y-80988324D01*
X162874379Y-80994297D01*
X162796180Y-80952498D01*
X162676482Y-80916188D01*
X162552000Y-80903928D01*
X161552000Y-80903928D01*
X161427518Y-80916188D01*
X161307820Y-80952498D01*
X161197506Y-81011463D01*
X161100815Y-81090815D01*
X161021463Y-81187506D01*
X160962498Y-81297820D01*
X160926188Y-81417518D01*
X160913928Y-81542000D01*
X109383901Y-81542000D01*
X108997148Y-81286457D01*
X106973605Y-83310000D01*
X106614395Y-83310000D01*
X104590852Y-81286457D01*
X104172882Y-81562627D01*
X103882351Y-82107557D01*
X103703713Y-82698696D01*
X103643832Y-83313328D01*
X101802000Y-83313328D01*
X101802000Y-81106852D01*
X104770457Y-81106852D01*
X106794000Y-83130395D01*
X108817543Y-81106852D01*
X108541373Y-80688882D01*
X107996443Y-80398351D01*
X107405304Y-80219713D01*
X106790672Y-80159832D01*
X106176169Y-80221010D01*
X105585408Y-80400897D01*
X105046627Y-80688882D01*
X104770457Y-81106852D01*
X101802000Y-81106852D01*
X101802000Y-79610044D01*
X101821877Y-79407317D01*
X166984500Y-79407317D01*
X166984500Y-79749083D01*
X167051175Y-80084281D01*
X167181963Y-80400031D01*
X167371837Y-80684198D01*
X167613502Y-80925863D01*
X167897669Y-81115737D01*
X168213419Y-81246525D01*
X168548617Y-81313200D01*
X168890383Y-81313200D01*
X169225581Y-81246525D01*
X169541331Y-81115737D01*
X169825498Y-80925863D01*
X170067163Y-80684198D01*
X170257037Y-80400031D01*
X170387825Y-80084281D01*
X170454500Y-79749083D01*
X170454500Y-79407317D01*
X170387825Y-79072119D01*
X170257037Y-78756369D01*
X170067163Y-78472202D01*
X169825498Y-78230537D01*
X169541331Y-78040663D01*
X169225581Y-77909875D01*
X168890383Y-77843200D01*
X168548617Y-77843200D01*
X168213419Y-77909875D01*
X167897669Y-78040663D01*
X167613502Y-78230537D01*
X167371837Y-78472202D01*
X167181963Y-78756369D01*
X167051175Y-79072119D01*
X166984500Y-79407317D01*
X101821877Y-79407317D01*
X101840640Y-79215960D01*
X101945842Y-78867514D01*
X102116722Y-78546135D01*
X102346765Y-78264076D01*
X102627220Y-78032062D01*
X102947390Y-77858948D01*
X103296427Y-77750902D01*
X103670598Y-77710100D01*
X168684779Y-77710100D01*
X169081687Y-77749018D01*
X169081687Y-77749018D01*
G37*
X169081687Y-77749018D02*
X169430079Y-77854203D01*
X169751409Y-78025057D01*
X170033428Y-78255067D01*
X170265401Y-78535474D01*
X170438494Y-78855603D01*
X170546109Y-79203250D01*
X170587600Y-79598015D01*
X170587601Y-118392769D01*
X170548683Y-118789686D01*
X170443497Y-119138079D01*
X170272643Y-119459409D01*
X170042635Y-119741425D01*
X169762224Y-119973402D01*
X169442094Y-120146495D01*
X169094454Y-120254108D01*
X168699685Y-120295600D01*
X103704821Y-120295600D01*
X103307914Y-120256683D01*
X102959521Y-120151497D01*
X102638191Y-119980643D01*
X102356175Y-119750635D01*
X102124198Y-119470224D01*
X101951105Y-119150094D01*
X101843492Y-118802454D01*
X101802000Y-118407685D01*
X101802000Y-118256617D01*
X166984500Y-118256617D01*
X166984500Y-118598383D01*
X167051175Y-118933581D01*
X167181963Y-119249331D01*
X167371837Y-119533498D01*
X167613502Y-119775163D01*
X167897669Y-119965037D01*
X168213419Y-120095825D01*
X168548617Y-120162500D01*
X168890383Y-120162500D01*
X169225581Y-120095825D01*
X169541331Y-119965037D01*
X169825498Y-119775163D01*
X170067163Y-119533498D01*
X170257037Y-119249331D01*
X170387825Y-118933581D01*
X170454500Y-118598383D01*
X170454500Y-118256617D01*
X170387825Y-117921419D01*
X170257037Y-117605669D01*
X170067163Y-117321502D01*
X169825498Y-117079837D01*
X169541331Y-116889963D01*
X169225581Y-116759175D01*
X168890383Y-116692500D01*
X168548617Y-116692500D01*
X168213419Y-116759175D01*
X167897669Y-116889963D01*
X167613502Y-117079837D01*
X167371837Y-117321502D01*
X167181963Y-117605669D01*
X167051175Y-117921419D01*
X166984500Y-118256617D01*
X101802000Y-118256617D01*
X101802000Y-117013148D01*
X104770457Y-117013148D01*
X105046627Y-117431118D01*
X105591557Y-117721649D01*
X106182696Y-117900287D01*
X106797328Y-117960168D01*
X107411831Y-117898990D01*
X108002592Y-117719103D01*
X108541373Y-117431118D01*
X108817543Y-117013148D01*
X106794000Y-114989605D01*
X104770457Y-117013148D01*
X101802000Y-117013148D01*
X101802000Y-114813328D01*
X103643832Y-114813328D01*
X103705010Y-115427831D01*
X103884897Y-116018592D01*
X104172882Y-116557373D01*
X104590852Y-116833543D01*
X106614395Y-114810000D01*
X106973605Y-114810000D01*
X108997148Y-116833543D01*
X109415118Y-116557373D01*
X109705649Y-116012443D01*
X109884287Y-115421304D01*
X109944168Y-114806672D01*
X109882990Y-114192169D01*
X109703103Y-113601408D01*
X109699097Y-113593913D01*
X167890692Y-113593913D01*
X167986456Y-113858314D01*
X168276071Y-113999204D01*
X168587608Y-114080884D01*
X168909095Y-114100218D01*
X169228175Y-114056461D01*
X169532588Y-113951295D01*
X169706544Y-113858314D01*
X169802308Y-113593913D01*
X168846500Y-112638105D01*
X167890692Y-113593913D01*
X109699097Y-113593913D01*
X109415118Y-113062627D01*
X108997148Y-112786457D01*
X106973605Y-114810000D01*
X106614395Y-114810000D01*
X104590852Y-112786457D01*
X104172882Y-113062627D01*
X103882351Y-113607557D01*
X103703713Y-114198696D01*
X103643832Y-114813328D01*
X101802000Y-114813328D01*
X101802000Y-112606852D01*
X104770457Y-112606852D01*
X106794000Y-114630395D01*
X108817543Y-112606852D01*
X108760880Y-112521095D01*
X167204782Y-112521095D01*
X167248539Y-112840175D01*
X167353705Y-113144588D01*
X167446686Y-113318544D01*
X167711087Y-113414308D01*
X168666895Y-112458500D01*
X169026105Y-112458500D01*
X169981913Y-113414308D01*
X170246314Y-113318544D01*
X170387204Y-113028929D01*
X170468884Y-112717392D01*
X170488218Y-112395905D01*
X170444461Y-112076825D01*
X170339295Y-111772412D01*
X170246314Y-111598456D01*
X169981913Y-111502692D01*
X169026105Y-112458500D01*
X168666895Y-112458500D01*
X167711087Y-111502692D01*
X167446686Y-111598456D01*
X167305796Y-111888071D01*
X167224116Y-112199608D01*
X167204782Y-112521095D01*
X108760880Y-112521095D01*
X108541373Y-112188882D01*
X107996443Y-111898351D01*
X107405304Y-111719713D01*
X106790672Y-111659832D01*
X106176169Y-111721010D01*
X105585408Y-111900897D01*
X105046627Y-112188882D01*
X104770457Y-112606852D01*
X101802000Y-112606852D01*
X101802000Y-109871767D01*
X113630200Y-109871767D01*
X113630200Y-110193833D01*
X113693032Y-110509712D01*
X113816282Y-110807263D01*
X113995213Y-111075052D01*
X114222948Y-111302787D01*
X114490737Y-111481718D01*
X114788288Y-111604968D01*
X115104167Y-111667800D01*
X115426233Y-111667800D01*
X115742112Y-111604968D01*
X116039663Y-111481718D01*
X116277070Y-111323087D01*
X167890692Y-111323087D01*
X168846500Y-112278895D01*
X169802308Y-111323087D01*
X169706544Y-111058686D01*
X169416929Y-110917796D01*
X169105392Y-110836116D01*
X168783905Y-110816782D01*
X168464825Y-110860539D01*
X168160412Y-110965705D01*
X167986456Y-111058686D01*
X167890692Y-111323087D01*
X116277070Y-111323087D01*
X116307452Y-111302787D01*
X116535187Y-111075052D01*
X116714118Y-110807263D01*
X116837368Y-110509712D01*
X116900200Y-110193833D01*
X116900200Y-109871767D01*
X116837368Y-109555888D01*
X116714118Y-109258337D01*
X116535187Y-108990548D01*
X116307452Y-108762813D01*
X116039663Y-108583882D01*
X115742112Y-108460632D01*
X115426233Y-108397800D01*
X115104167Y-108397800D01*
X114788288Y-108460632D01*
X114490737Y-108583882D01*
X114222948Y-108762813D01*
X113995213Y-108990548D01*
X113816282Y-109258337D01*
X113693032Y-109555888D01*
X113630200Y-109871767D01*
X101802000Y-109871767D01*
X101802000Y-90124344D01*
X107109000Y-90124344D01*
X107109000Y-90495656D01*
X107181439Y-90859834D01*
X107323534Y-91202882D01*
X107529825Y-91511618D01*
X107792382Y-91774175D01*
X108101118Y-91980466D01*
X108293130Y-92060000D01*
X108101118Y-92139534D01*
X107792382Y-92345825D01*
X107529825Y-92608382D01*
X107323534Y-92917118D01*
X107181439Y-93260166D01*
X107109000Y-93624344D01*
X107109000Y-93995656D01*
X107181439Y-94359834D01*
X107323534Y-94702882D01*
X107529825Y-95011618D01*
X107792382Y-95274175D01*
X108101118Y-95480466D01*
X108293130Y-95560000D01*
X108101118Y-95639534D01*
X107792382Y-95845825D01*
X107529825Y-96108382D01*
X107323534Y-96417118D01*
X107181439Y-96760166D01*
X107109000Y-97124344D01*
X107109000Y-97495656D01*
X107181439Y-97859834D01*
X107323534Y-98202882D01*
X107529825Y-98511618D01*
X107792382Y-98774175D01*
X108101118Y-98980466D01*
X108293130Y-99060000D01*
X108101118Y-99139534D01*
X107792382Y-99345825D01*
X107529825Y-99608382D01*
X107323534Y-99917118D01*
X107181439Y-100260166D01*
X107109000Y-100624344D01*
X107109000Y-100995656D01*
X107181439Y-101359834D01*
X107323534Y-101702882D01*
X107529825Y-102011618D01*
X107792382Y-102274175D01*
X108101118Y-102480466D01*
X108293130Y-102560000D01*
X108101118Y-102639534D01*
X107792382Y-102845825D01*
X107529825Y-103108382D01*
X107323534Y-103417118D01*
X107181439Y-103760166D01*
X107109000Y-104124344D01*
X107109000Y-104495656D01*
X107181439Y-104859834D01*
X107323534Y-105202882D01*
X107529825Y-105511618D01*
X107792382Y-105774175D01*
X108101118Y-105980466D01*
X108293130Y-106060000D01*
X108101118Y-106139534D01*
X107792382Y-106345825D01*
X107529825Y-106608382D01*
X107323534Y-106917118D01*
X107181439Y-107260166D01*
X107109000Y-107624344D01*
X107109000Y-107995656D01*
X107181439Y-108359834D01*
X107323534Y-108702882D01*
X107529825Y-109011618D01*
X107792382Y-109274175D01*
X108101118Y-109480466D01*
X108444166Y-109622561D01*
X108808344Y-109695000D01*
X109179656Y-109695000D01*
X109543834Y-109622561D01*
X109886882Y-109480466D01*
X110195618Y-109274175D01*
X110346188Y-109123605D01*
X111360000Y-109123605D01*
X111485914Y-109413577D01*
X111818126Y-109579433D01*
X112176312Y-109677290D01*
X112546706Y-109703389D01*
X112915075Y-109656725D01*
X113267262Y-109539094D01*
X113502086Y-109413577D01*
X113628000Y-109123605D01*
X112494000Y-107989605D01*
X111360000Y-109123605D01*
X110346188Y-109123605D01*
X110458175Y-109011618D01*
X110664466Y-108702882D01*
X110742188Y-108515244D01*
X110764906Y-108583262D01*
X110890423Y-108818086D01*
X111180395Y-108944000D01*
X112314395Y-107810000D01*
X112673605Y-107810000D01*
X113807605Y-108944000D01*
X114097577Y-108818086D01*
X114263433Y-108485874D01*
X114361290Y-108127688D01*
X114387389Y-107757294D01*
X114375314Y-107661967D01*
X136655300Y-107661967D01*
X136655300Y-107984033D01*
X136718132Y-108299912D01*
X136841382Y-108597463D01*
X137020313Y-108865252D01*
X137248048Y-109092987D01*
X137515837Y-109271918D01*
X137813388Y-109395168D01*
X138129267Y-109458000D01*
X138451333Y-109458000D01*
X138767212Y-109395168D01*
X139064763Y-109271918D01*
X139332552Y-109092987D01*
X139560287Y-108865252D01*
X139739218Y-108597463D01*
X139862468Y-108299912D01*
X139925300Y-107984033D01*
X139925300Y-107661967D01*
X139862468Y-107346088D01*
X139739218Y-107048537D01*
X139560287Y-106780748D01*
X139332552Y-106553013D01*
X139064763Y-106374082D01*
X138767212Y-106250832D01*
X138451333Y-106188000D01*
X138129267Y-106188000D01*
X137813388Y-106250832D01*
X137515837Y-106374082D01*
X137248048Y-106553013D01*
X137020313Y-106780748D01*
X136841382Y-107048537D01*
X136718132Y-107346088D01*
X136655300Y-107661967D01*
X114375314Y-107661967D01*
X114340725Y-107388925D01*
X114223094Y-107036738D01*
X114097577Y-106801914D01*
X113807605Y-106676000D01*
X112673605Y-107810000D01*
X112314395Y-107810000D01*
X111180395Y-106676000D01*
X110890423Y-106801914D01*
X110740847Y-107101518D01*
X110664466Y-106917118D01*
X110458175Y-106608382D01*
X110195618Y-106345825D01*
X109886882Y-106139534D01*
X109694870Y-106060000D01*
X109886882Y-105980466D01*
X110195618Y-105774175D01*
X110458175Y-105511618D01*
X110664466Y-105202882D01*
X110744000Y-105010870D01*
X110823534Y-105202882D01*
X111029825Y-105511618D01*
X111292382Y-105774175D01*
X111601118Y-105980466D01*
X111788756Y-106058188D01*
X111720738Y-106080906D01*
X111485914Y-106206423D01*
X111360000Y-106496395D01*
X112494000Y-107630395D01*
X113628000Y-106496395D01*
X113502086Y-106206423D01*
X113202482Y-106056847D01*
X113386882Y-105980466D01*
X113695618Y-105774175D01*
X113958175Y-105511618D01*
X114164466Y-105202882D01*
X114306561Y-104859834D01*
X114379000Y-104495656D01*
X114379000Y-104124344D01*
X114306561Y-103760166D01*
X114164466Y-103417118D01*
X113958175Y-103108382D01*
X113695618Y-102845825D01*
X113386882Y-102639534D01*
X113194870Y-102560000D01*
X113386882Y-102480466D01*
X113695618Y-102274175D01*
X113958175Y-102011618D01*
X114164466Y-101702882D01*
X114306561Y-101359834D01*
X114379000Y-100995656D01*
X114379000Y-100624344D01*
X114306561Y-100260166D01*
X114252347Y-100129283D01*
X114637347Y-99744283D01*
X114666423Y-99720421D01*
X114758371Y-99608382D01*
X114761646Y-99604392D01*
X114832402Y-99472015D01*
X114832403Y-99472014D01*
X114875975Y-99328377D01*
X114887001Y-99216425D01*
X114887001Y-99216422D01*
X114890687Y-99178999D01*
X114887001Y-99141576D01*
X114887001Y-96713063D01*
X115520497Y-96079567D01*
X117186200Y-96079567D01*
X117186200Y-96401633D01*
X117249032Y-96717512D01*
X117372282Y-97015063D01*
X117551213Y-97282852D01*
X117778948Y-97510587D01*
X118046737Y-97689518D01*
X118344288Y-97812768D01*
X118660167Y-97875600D01*
X118982233Y-97875600D01*
X119298112Y-97812768D01*
X119595663Y-97689518D01*
X119863452Y-97510587D01*
X120091187Y-97282852D01*
X120270118Y-97015063D01*
X120393368Y-96717512D01*
X120456200Y-96401633D01*
X120456200Y-96079567D01*
X120393368Y-95763688D01*
X120270118Y-95466137D01*
X120091187Y-95198348D01*
X119863452Y-94970613D01*
X119595663Y-94791682D01*
X119298112Y-94668432D01*
X118982233Y-94605600D01*
X118660167Y-94605600D01*
X118344288Y-94668432D01*
X118046737Y-94791682D01*
X117778948Y-94970613D01*
X117551213Y-95198348D01*
X117372282Y-95466137D01*
X117249032Y-95763688D01*
X117186200Y-96079567D01*
X115520497Y-96079567D01*
X117718979Y-93881085D01*
X130594100Y-93881085D01*
X130594100Y-94073715D01*
X130631680Y-94262643D01*
X130705396Y-94440610D01*
X130812415Y-94600775D01*
X130948625Y-94736985D01*
X131108790Y-94844004D01*
X131286757Y-94917720D01*
X131471422Y-94954452D01*
X132660301Y-96143332D01*
X132684158Y-96172402D01*
X132800188Y-96267625D01*
X132932565Y-96338382D01*
X133076202Y-96381954D01*
X133188154Y-96392980D01*
X133188156Y-96392980D01*
X133225579Y-96396666D01*
X133241438Y-96395104D01*
X133394810Y-96497584D01*
X133572777Y-96571300D01*
X133761705Y-96608880D01*
X133954335Y-96608880D01*
X134143263Y-96571300D01*
X134321230Y-96497584D01*
X134481395Y-96390565D01*
X134617605Y-96254355D01*
X134724624Y-96094190D01*
X134798340Y-95916223D01*
X134817767Y-95818555D01*
X148062407Y-109063196D01*
X148084673Y-109090327D01*
X148111804Y-109112593D01*
X148111809Y-109112598D01*
X148192967Y-109179202D01*
X148316518Y-109245242D01*
X148359687Y-109258337D01*
X148450580Y-109285909D01*
X148555064Y-109296200D01*
X148555071Y-109296200D01*
X148590000Y-109299640D01*
X148624928Y-109296200D01*
X151855240Y-109296200D01*
X151903625Y-109344585D01*
X152063790Y-109451604D01*
X152241757Y-109525320D01*
X152430685Y-109562900D01*
X152623315Y-109562900D01*
X152812243Y-109525320D01*
X152990210Y-109451604D01*
X153150375Y-109344585D01*
X153286585Y-109208375D01*
X153393604Y-109048210D01*
X153467320Y-108870243D01*
X153504900Y-108681315D01*
X153504900Y-108488685D01*
X153467320Y-108299757D01*
X153393604Y-108121790D01*
X153286585Y-107961625D01*
X153150375Y-107825415D01*
X152990210Y-107718396D01*
X152812243Y-107644680D01*
X152623315Y-107607100D01*
X152430685Y-107607100D01*
X152241757Y-107644680D01*
X152063790Y-107718396D01*
X151903625Y-107825415D01*
X151855240Y-107873800D01*
X148906160Y-107873800D01*
X148968585Y-107811375D01*
X149075604Y-107651210D01*
X149149320Y-107473243D01*
X149186900Y-107284315D01*
X149186900Y-107091685D01*
X149149320Y-106902757D01*
X149075604Y-106724790D01*
X148968585Y-106564625D01*
X148832375Y-106428415D01*
X148672210Y-106321396D01*
X148494243Y-106247680D01*
X148305315Y-106210100D01*
X148236889Y-106210100D01*
X135077200Y-93050413D01*
X135077200Y-92104467D01*
X142383000Y-92104467D01*
X142383000Y-92426533D01*
X142445832Y-92742412D01*
X142569082Y-93039963D01*
X142748013Y-93307752D01*
X142975748Y-93535487D01*
X143243537Y-93714418D01*
X143541088Y-93837668D01*
X143856967Y-93900500D01*
X144179033Y-93900500D01*
X144494912Y-93837668D01*
X144792463Y-93714418D01*
X145060252Y-93535487D01*
X145287987Y-93307752D01*
X145466918Y-93039963D01*
X145590168Y-92742412D01*
X145653000Y-92426533D01*
X145653000Y-92104467D01*
X145590168Y-91788588D01*
X145466918Y-91491037D01*
X145287987Y-91223248D01*
X145060252Y-90995513D01*
X144792463Y-90816582D01*
X144494912Y-90693332D01*
X144179033Y-90630500D01*
X143856967Y-90630500D01*
X143541088Y-90693332D01*
X143243537Y-90816582D01*
X142975748Y-90995513D01*
X142748013Y-91223248D01*
X142569082Y-91491037D01*
X142445832Y-91788588D01*
X142383000Y-92104467D01*
X135077200Y-92104467D01*
X135077200Y-89327193D01*
X154203500Y-89327193D01*
X154203500Y-89678807D01*
X154272096Y-90023665D01*
X154406653Y-90348515D01*
X154602000Y-90640871D01*
X154850629Y-90889500D01*
X155142985Y-91084847D01*
X155467835Y-91219404D01*
X155812693Y-91288000D01*
X156164307Y-91288000D01*
X156509165Y-91219404D01*
X156834015Y-91084847D01*
X157126371Y-90889500D01*
X157375000Y-90640871D01*
X157570347Y-90348515D01*
X157704904Y-90023665D01*
X157773500Y-89678807D01*
X157773500Y-89327193D01*
X157704904Y-88982335D01*
X157570347Y-88657485D01*
X157375000Y-88365129D01*
X157126371Y-88116500D01*
X156834015Y-87921153D01*
X156509165Y-87786596D01*
X156164307Y-87718000D01*
X155812693Y-87718000D01*
X155467835Y-87786596D01*
X155142985Y-87921153D01*
X154850629Y-88116500D01*
X154602000Y-88365129D01*
X154406653Y-88657485D01*
X154272096Y-88982335D01*
X154203500Y-89327193D01*
X135077200Y-89327193D01*
X135077200Y-88682760D01*
X135125585Y-88634375D01*
X135232604Y-88474210D01*
X135306320Y-88296243D01*
X135343900Y-88107315D01*
X135343900Y-87914685D01*
X135306320Y-87725757D01*
X135232604Y-87547790D01*
X135125585Y-87387625D01*
X134989375Y-87251415D01*
X134829210Y-87144396D01*
X134651243Y-87070680D01*
X134462315Y-87033100D01*
X134269685Y-87033100D01*
X134080757Y-87070680D01*
X133902790Y-87144396D01*
X133742625Y-87251415D01*
X133606415Y-87387625D01*
X133499396Y-87547790D01*
X133425680Y-87725757D01*
X133388100Y-87914685D01*
X133388100Y-88107315D01*
X133425680Y-88296243D01*
X133499396Y-88474210D01*
X133606415Y-88634375D01*
X133654800Y-88682760D01*
X133654800Y-89391083D01*
X133571743Y-89356680D01*
X133382815Y-89319100D01*
X133314388Y-89319100D01*
X132803900Y-88808613D01*
X132803900Y-88676679D01*
X132766320Y-88487751D01*
X132692604Y-88309784D01*
X132585585Y-88149619D01*
X132449375Y-88013409D01*
X132289210Y-87906390D01*
X132111243Y-87832674D01*
X131922315Y-87795094D01*
X131729685Y-87795094D01*
X131540757Y-87832674D01*
X131362790Y-87906390D01*
X131202625Y-88013409D01*
X131066415Y-88149619D01*
X130959396Y-88309784D01*
X130885680Y-88487751D01*
X130848100Y-88676679D01*
X130848100Y-88869309D01*
X130885680Y-89058237D01*
X130959396Y-89236204D01*
X131066415Y-89396369D01*
X131202625Y-89532579D01*
X131362790Y-89639598D01*
X131540757Y-89713314D01*
X131729685Y-89750894D01*
X131734607Y-89750894D01*
X132308600Y-90324888D01*
X132308600Y-90393315D01*
X132346180Y-90582243D01*
X132419896Y-90760210D01*
X132526915Y-90920375D01*
X132583616Y-90977076D01*
X132429756Y-91007681D01*
X132251789Y-91081397D01*
X132091624Y-91188416D01*
X131955414Y-91324626D01*
X131848395Y-91484791D01*
X131774679Y-91662758D01*
X131737099Y-91851686D01*
X131737099Y-92044316D01*
X131774679Y-92233244D01*
X131848395Y-92411211D01*
X131955414Y-92571376D01*
X132003799Y-92619761D01*
X132003799Y-92675073D01*
X132000359Y-92709999D01*
X132003799Y-92744925D01*
X132003799Y-92744934D01*
X132014090Y-92849418D01*
X132054757Y-92983479D01*
X132120797Y-93107031D01*
X132209672Y-93215325D01*
X132236810Y-93237597D01*
X133670445Y-94671233D01*
X133572777Y-94690660D01*
X133424365Y-94752134D01*
X132549052Y-93876822D01*
X132512320Y-93692157D01*
X132438604Y-93514190D01*
X132331585Y-93354025D01*
X132195375Y-93217815D01*
X132035210Y-93110796D01*
X131857243Y-93037080D01*
X131668315Y-92999500D01*
X131475685Y-92999500D01*
X131286757Y-93037080D01*
X131108790Y-93110796D01*
X130948625Y-93217815D01*
X130812415Y-93354025D01*
X130705396Y-93514190D01*
X130631680Y-93692157D01*
X130594100Y-93881085D01*
X117718979Y-93881085D01*
X126163097Y-85436967D01*
X144288000Y-85436967D01*
X144288000Y-85759033D01*
X144350832Y-86074912D01*
X144474082Y-86372463D01*
X144653013Y-86640252D01*
X144880748Y-86867987D01*
X145148537Y-87046918D01*
X145446088Y-87170168D01*
X145761967Y-87233000D01*
X146084033Y-87233000D01*
X146399912Y-87170168D01*
X146697463Y-87046918D01*
X146965252Y-86867987D01*
X147192987Y-86640252D01*
X147371918Y-86372463D01*
X147495168Y-86074912D01*
X147558000Y-85759033D01*
X147558000Y-85436967D01*
X147495168Y-85121088D01*
X147371918Y-84823537D01*
X147192987Y-84555748D01*
X146965252Y-84328013D01*
X146697463Y-84149082D01*
X146399912Y-84025832D01*
X146084033Y-83963000D01*
X145761967Y-83963000D01*
X145446088Y-84025832D01*
X145148537Y-84149082D01*
X144880748Y-84328013D01*
X144653013Y-84555748D01*
X144474082Y-84823537D01*
X144350832Y-85121088D01*
X144288000Y-85436967D01*
X126163097Y-85436967D01*
X127653065Y-83947000D01*
X156529370Y-83947000D01*
X159131001Y-86548632D01*
X159131000Y-97482869D01*
X156592681Y-100021189D01*
X156509165Y-99986596D01*
X156164307Y-99918000D01*
X155812693Y-99918000D01*
X155467835Y-99986596D01*
X155142985Y-100121153D01*
X154850629Y-100316500D01*
X154602000Y-100565129D01*
X154406653Y-100857485D01*
X154272096Y-101182335D01*
X154203500Y-101527193D01*
X154203500Y-101878807D01*
X154272096Y-102223665D01*
X154406653Y-102548515D01*
X154602000Y-102840871D01*
X154850629Y-103089500D01*
X155142985Y-103284847D01*
X155467835Y-103419404D01*
X155812693Y-103488000D01*
X156164307Y-103488000D01*
X156509165Y-103419404D01*
X156834015Y-103284847D01*
X157126371Y-103089500D01*
X157375000Y-102840871D01*
X157570347Y-102548515D01*
X157704904Y-102223665D01*
X157773500Y-101878807D01*
X157773500Y-101527193D01*
X166203500Y-101527193D01*
X166203500Y-101878807D01*
X166272096Y-102223665D01*
X166406653Y-102548515D01*
X166602000Y-102840871D01*
X166850629Y-103089500D01*
X167142985Y-103284847D01*
X167467835Y-103419404D01*
X167812693Y-103488000D01*
X168164307Y-103488000D01*
X168509165Y-103419404D01*
X168834015Y-103284847D01*
X169126371Y-103089500D01*
X169375000Y-102840871D01*
X169570347Y-102548515D01*
X169704904Y-102223665D01*
X169773500Y-101878807D01*
X169773500Y-101527193D01*
X169704904Y-101182335D01*
X169570347Y-100857485D01*
X169375000Y-100565129D01*
X169126371Y-100316500D01*
X168834015Y-100121153D01*
X168509165Y-99986596D01*
X168164307Y-99918000D01*
X167812693Y-99918000D01*
X167467835Y-99986596D01*
X167142985Y-100121153D01*
X166850629Y-100316500D01*
X166602000Y-100565129D01*
X166406653Y-100857485D01*
X166272096Y-101182335D01*
X166203500Y-101527193D01*
X157773500Y-101527193D01*
X157704904Y-101182335D01*
X157670311Y-101098819D01*
X160405353Y-98363778D01*
X160434422Y-98339922D01*
X160514572Y-98242259D01*
X160529645Y-98223893D01*
X160600401Y-98091516D01*
X160600402Y-98091515D01*
X160643974Y-97947878D01*
X160655000Y-97835926D01*
X160655000Y-97835923D01*
X160658686Y-97798500D01*
X160655000Y-97761077D01*
X160655000Y-90745349D01*
X166925756Y-90745349D01*
X167039618Y-91025090D01*
X167354796Y-91180961D01*
X167694326Y-91272349D01*
X168045161Y-91295741D01*
X168393819Y-91250240D01*
X168726900Y-91137594D01*
X168937382Y-91025090D01*
X169051244Y-90745349D01*
X167988500Y-89682605D01*
X166925756Y-90745349D01*
X160655000Y-90745349D01*
X160655000Y-89559661D01*
X166195759Y-89559661D01*
X166241260Y-89908319D01*
X166353906Y-90241400D01*
X166466410Y-90451882D01*
X166746151Y-90565744D01*
X167808895Y-89503000D01*
X168168105Y-89503000D01*
X169230849Y-90565744D01*
X169510590Y-90451882D01*
X169666461Y-90136704D01*
X169757849Y-89797174D01*
X169781241Y-89446339D01*
X169735740Y-89097681D01*
X169623094Y-88764600D01*
X169510590Y-88554118D01*
X169230849Y-88440256D01*
X168168105Y-89503000D01*
X167808895Y-89503000D01*
X166746151Y-88440256D01*
X166466410Y-88554118D01*
X166310539Y-88869296D01*
X166219151Y-89208826D01*
X166195759Y-89559661D01*
X160655000Y-89559661D01*
X160655000Y-89260909D01*
X160714018Y-89278812D01*
X160838500Y-89291072D01*
X163138500Y-89291072D01*
X163262982Y-89278812D01*
X163382680Y-89242502D01*
X163492994Y-89183537D01*
X163589685Y-89104185D01*
X163669037Y-89007494D01*
X163728002Y-88897180D01*
X163764312Y-88777482D01*
X163776572Y-88653000D01*
X163776572Y-88260651D01*
X166925756Y-88260651D01*
X167988500Y-89323395D01*
X169051244Y-88260651D01*
X168937382Y-87980910D01*
X168622204Y-87825039D01*
X168282674Y-87733651D01*
X167931839Y-87710259D01*
X167583181Y-87755760D01*
X167250100Y-87868406D01*
X167039618Y-87980910D01*
X166925756Y-88260651D01*
X163776572Y-88260651D01*
X163776572Y-86353000D01*
X163764312Y-86228518D01*
X163728002Y-86108820D01*
X163669037Y-85998506D01*
X163589685Y-85901815D01*
X163492994Y-85822463D01*
X163382680Y-85763498D01*
X163262982Y-85727188D01*
X163138500Y-85714928D01*
X161278058Y-85714928D01*
X157727784Y-82164654D01*
X157703922Y-82135578D01*
X157587892Y-82040355D01*
X157455515Y-81969598D01*
X157311878Y-81926026D01*
X157199926Y-81915000D01*
X157199923Y-81915000D01*
X157162500Y-81911314D01*
X157125077Y-81915000D01*
X127164422Y-81915000D01*
X127126999Y-81911314D01*
X127089576Y-81915000D01*
X127089574Y-81915000D01*
X126977622Y-81926026D01*
X126833985Y-81969598D01*
X126701608Y-82040355D01*
X126585578Y-82135578D01*
X126561721Y-82164648D01*
X114264152Y-94462217D01*
X114306561Y-94359834D01*
X114379000Y-93995656D01*
X114379000Y-93624344D01*
X114306561Y-93260166D01*
X114164466Y-92917118D01*
X113958175Y-92608382D01*
X113695618Y-92345825D01*
X113386882Y-92139534D01*
X113194870Y-92060000D01*
X113386882Y-91980466D01*
X113695618Y-91774175D01*
X113958175Y-91511618D01*
X114164466Y-91202882D01*
X114306561Y-90859834D01*
X114379000Y-90495656D01*
X114379000Y-90124344D01*
X114306561Y-89760166D01*
X114164466Y-89417118D01*
X113958175Y-89108382D01*
X113695618Y-88845825D01*
X113386882Y-88639534D01*
X113043834Y-88497439D01*
X112679656Y-88425000D01*
X112308344Y-88425000D01*
X111944166Y-88497439D01*
X111601118Y-88639534D01*
X111292382Y-88845825D01*
X111029825Y-89108382D01*
X110823534Y-89417118D01*
X110744000Y-89609130D01*
X110664466Y-89417118D01*
X110458175Y-89108382D01*
X110195618Y-88845825D01*
X109886882Y-88639534D01*
X109543834Y-88497439D01*
X109179656Y-88425000D01*
X108808344Y-88425000D01*
X108444166Y-88497439D01*
X108101118Y-88639534D01*
X107792382Y-88845825D01*
X107529825Y-89108382D01*
X107323534Y-89417118D01*
X107181439Y-89760166D01*
X107109000Y-90124344D01*
X101802000Y-90124344D01*
X101802000Y-85513148D01*
X104770457Y-85513148D01*
X105046627Y-85931118D01*
X105591557Y-86221649D01*
X106182696Y-86400287D01*
X106797328Y-86460168D01*
X107411831Y-86398990D01*
X108002592Y-86219103D01*
X108325383Y-86046567D01*
X113300000Y-86046567D01*
X113300000Y-86368633D01*
X113362832Y-86684512D01*
X113486082Y-86982063D01*
X113665013Y-87249852D01*
X113892748Y-87477587D01*
X114160537Y-87656518D01*
X114458088Y-87779768D01*
X114773967Y-87842600D01*
X115096033Y-87842600D01*
X115411912Y-87779768D01*
X115709463Y-87656518D01*
X115977252Y-87477587D01*
X116204987Y-87249852D01*
X116383918Y-86982063D01*
X116507168Y-86684512D01*
X116570000Y-86368633D01*
X116570000Y-86046567D01*
X116507168Y-85730688D01*
X116383918Y-85433137D01*
X116204987Y-85165348D01*
X115977252Y-84937613D01*
X115709463Y-84758682D01*
X115411912Y-84635432D01*
X115096033Y-84572600D01*
X114773967Y-84572600D01*
X114458088Y-84635432D01*
X114160537Y-84758682D01*
X113892748Y-84937613D01*
X113665013Y-85165348D01*
X113486082Y-85433137D01*
X113362832Y-85730688D01*
X113300000Y-86046567D01*
X108325383Y-86046567D01*
X108541373Y-85931118D01*
X108817543Y-85513148D01*
X106794000Y-83489605D01*
X104770457Y-85513148D01*
X101802000Y-85513148D01*
X101802000Y-83313328D01*
X103643832Y-83313328D01*
X103705010Y-83927831D01*
X103884897Y-84518592D01*
X104172882Y-85057373D01*
X104590852Y-85333543D01*
X106614395Y-83310000D01*
X106973605Y-83310000D01*
X108997148Y-85333543D01*
X109415118Y-85057373D01*
X109705649Y-84512443D01*
X109884287Y-83921304D01*
X109944168Y-83306672D01*
X109882990Y-82692169D01*
X109703103Y-82101408D01*
X109415118Y-81562627D01*
X109383901Y-81542000D01*
X160913928Y-81542000D01*
X160913928Y-82542000D01*
X160926188Y-82666482D01*
X160962498Y-82786180D01*
X161021463Y-82896494D01*
X161100815Y-82993185D01*
X161197506Y-83072537D01*
X161307820Y-83131502D01*
X161427518Y-83167812D01*
X161552000Y-83180072D01*
X162552000Y-83180072D01*
X162676482Y-83167812D01*
X162796180Y-83131502D01*
X162874379Y-83089703D01*
X162885553Y-83095676D01*
X163099501Y-83160577D01*
X163266248Y-83177000D01*
X163377752Y-83177000D01*
X163544499Y-83160577D01*
X163758447Y-83095676D01*
X163955623Y-82990284D01*
X164128449Y-82848449D01*
X164270284Y-82675623D01*
X164375676Y-82478447D01*
X164440577Y-82264499D01*
X164462491Y-82042000D01*
X164440577Y-81819501D01*
X164375676Y-81605553D01*
X164270284Y-81408377D01*
X164128449Y-81235551D01*
X163955623Y-81093716D01*
X163758447Y-80988324D01*
X163544499Y-80923423D01*
X163377752Y-80907000D01*
X163266248Y-80907000D01*
X163099501Y-80923423D01*
X162885553Y-80988324D01*
X162874379Y-80994297D01*
X162796180Y-80952498D01*
X162676482Y-80916188D01*
X162552000Y-80903928D01*
X161552000Y-80903928D01*
X161427518Y-80916188D01*
X161307820Y-80952498D01*
X161197506Y-81011463D01*
X161100815Y-81090815D01*
X161021463Y-81187506D01*
X160962498Y-81297820D01*
X160926188Y-81417518D01*
X160913928Y-81542000D01*
X109383901Y-81542000D01*
X108997148Y-81286457D01*
X106973605Y-83310000D01*
X106614395Y-83310000D01*
X104590852Y-81286457D01*
X104172882Y-81562627D01*
X103882351Y-82107557D01*
X103703713Y-82698696D01*
X103643832Y-83313328D01*
X101802000Y-83313328D01*
X101802000Y-81106852D01*
X104770457Y-81106852D01*
X106794000Y-83130395D01*
X108817543Y-81106852D01*
X108541373Y-80688882D01*
X107996443Y-80398351D01*
X107405304Y-80219713D01*
X106790672Y-80159832D01*
X106176169Y-80221010D01*
X105585408Y-80400897D01*
X105046627Y-80688882D01*
X104770457Y-81106852D01*
X101802000Y-81106852D01*
X101802000Y-79610044D01*
X101821877Y-79407317D01*
X166984500Y-79407317D01*
X166984500Y-79749083D01*
X167051175Y-80084281D01*
X167181963Y-80400031D01*
X167371837Y-80684198D01*
X167613502Y-80925863D01*
X167897669Y-81115737D01*
X168213419Y-81246525D01*
X168548617Y-81313200D01*
X168890383Y-81313200D01*
X169225581Y-81246525D01*
X169541331Y-81115737D01*
X169825498Y-80925863D01*
X170067163Y-80684198D01*
X170257037Y-80400031D01*
X170387825Y-80084281D01*
X170454500Y-79749083D01*
X170454500Y-79407317D01*
X170387825Y-79072119D01*
X170257037Y-78756369D01*
X170067163Y-78472202D01*
X169825498Y-78230537D01*
X169541331Y-78040663D01*
X169225581Y-77909875D01*
X168890383Y-77843200D01*
X168548617Y-77843200D01*
X168213419Y-77909875D01*
X167897669Y-78040663D01*
X167613502Y-78230537D01*
X167371837Y-78472202D01*
X167181963Y-78756369D01*
X167051175Y-79072119D01*
X166984500Y-79407317D01*
X101821877Y-79407317D01*
X101840640Y-79215960D01*
X101945842Y-78867514D01*
X102116722Y-78546135D01*
X102346765Y-78264076D01*
X102627220Y-78032062D01*
X102947390Y-77858948D01*
X103296427Y-77750902D01*
X103670598Y-77710100D01*
X168684779Y-77710100D01*
X169081687Y-77749018D01*
M02*
