G04 #@! TF.GenerationSoftware,KiCad,Pcbnew,(5.1.4-0-10_14)*
G04 #@! TF.CreationDate,2019-11-07T13:02:38-08:00*
G04 #@! TF.ProjectId,BSPD_2019,42535044-5f32-4303-9139-2e6b69636164,rev?*
G04 #@! TF.SameCoordinates,Original*
G04 #@! TF.FileFunction,Soldermask,Top*
G04 #@! TF.FilePolarity,Negative*
%FSLAX46Y46*%
G04 Gerber Fmt 4.6, Leading zero omitted, Abs format (unit mm)*
G04 Created by KiCad (PCBNEW (5.1.4-0-10_14)) date 2019-11-07 13:02:38*
%MOMM*%
%LPD*%
G04 APERTURE LIST*
%ADD10C,0.100000*%
%ADD11C,0.150000*%
%ADD12C,0.300000*%
%ADD13C,0.400000*%
G04 APERTURE END LIST*
D10*
D11*
X177002200Y-166007200D02*
X177002200Y-198007200D01*
X285002200Y-198007200D01*
X285002200Y-166007200D01*
X177002200Y-166007200D01*
D10*
D11*
X10000000Y-10000000D02*
X10000000Y-200007200D01*
X287002200Y-200007200D01*
X287002200Y-10000000D01*
X10000000Y-10000000D01*
D10*
D11*
X12000000Y-12000000D02*
X12000000Y-198007200D01*
X285002200Y-198007200D01*
X285002200Y-12000000D01*
X12000000Y-12000000D01*
D10*
D11*
X60000000Y-12000000D02*
X60000000Y-10000000D01*
D10*
D11*
X110000000Y-12000000D02*
X110000000Y-10000000D01*
D10*
D11*
X160000000Y-12000000D02*
X160000000Y-10000000D01*
D10*
D11*
X210000000Y-12000000D02*
X210000000Y-10000000D01*
D10*
D11*
X260000000Y-12000000D02*
X260000000Y-10000000D01*
D10*
D11*
X36065476Y-11588095D02*
X35322619Y-11588095D01*
X35694047Y-11588095D02*
X35694047Y-10288095D01*
X35570238Y-10473809D01*
X35446428Y-10597619D01*
X35322619Y-10659523D01*
D10*
D11*
X85322619Y-10411904D02*
X85384523Y-10350000D01*
X85508333Y-10288095D01*
X85817857Y-10288095D01*
X85941666Y-10350000D01*
X86003571Y-10411904D01*
X86065476Y-10535714D01*
X86065476Y-10659523D01*
X86003571Y-10845238D01*
X85260714Y-11588095D01*
X86065476Y-11588095D01*
D10*
D11*
X135260714Y-10288095D02*
X136065476Y-10288095D01*
X135632142Y-10783333D01*
X135817857Y-10783333D01*
X135941666Y-10845238D01*
X136003571Y-10907142D01*
X136065476Y-11030952D01*
X136065476Y-11340476D01*
X136003571Y-11464285D01*
X135941666Y-11526190D01*
X135817857Y-11588095D01*
X135446428Y-11588095D01*
X135322619Y-11526190D01*
X135260714Y-11464285D01*
D10*
D11*
X185941666Y-10721428D02*
X185941666Y-11588095D01*
X185632142Y-10226190D02*
X185322619Y-11154761D01*
X186127380Y-11154761D01*
D10*
D11*
X236003571Y-10288095D02*
X235384523Y-10288095D01*
X235322619Y-10907142D01*
X235384523Y-10845238D01*
X235508333Y-10783333D01*
X235817857Y-10783333D01*
X235941666Y-10845238D01*
X236003571Y-10907142D01*
X236065476Y-11030952D01*
X236065476Y-11340476D01*
X236003571Y-11464285D01*
X235941666Y-11526190D01*
X235817857Y-11588095D01*
X235508333Y-11588095D01*
X235384523Y-11526190D01*
X235322619Y-11464285D01*
D10*
D11*
X285941666Y-10288095D02*
X285694047Y-10288095D01*
X285570238Y-10350000D01*
X285508333Y-10411904D01*
X285384523Y-10597619D01*
X285322619Y-10845238D01*
X285322619Y-11340476D01*
X285384523Y-11464285D01*
X285446428Y-11526190D01*
X285570238Y-11588095D01*
X285817857Y-11588095D01*
X285941666Y-11526190D01*
X286003571Y-11464285D01*
X286065476Y-11340476D01*
X286065476Y-11030952D01*
X286003571Y-10907142D01*
X285941666Y-10845238D01*
X285817857Y-10783333D01*
X285570238Y-10783333D01*
X285446428Y-10845238D01*
X285384523Y-10907142D01*
X285322619Y-11030952D01*
D10*
D11*
X60000000Y-198007200D02*
X60000000Y-200007200D01*
D10*
D11*
X110000000Y-198007200D02*
X110000000Y-200007200D01*
D10*
D11*
X160000000Y-198007200D02*
X160000000Y-200007200D01*
D10*
D11*
X210000000Y-198007200D02*
X210000000Y-200007200D01*
D10*
D11*
X260000000Y-198007200D02*
X260000000Y-200007200D01*
D10*
D11*
X36065476Y-199595295D02*
X35322619Y-199595295D01*
X35694047Y-199595295D02*
X35694047Y-198295295D01*
X35570238Y-198481009D01*
X35446428Y-198604819D01*
X35322619Y-198666723D01*
D10*
D11*
X85322619Y-198419104D02*
X85384523Y-198357200D01*
X85508333Y-198295295D01*
X85817857Y-198295295D01*
X85941666Y-198357200D01*
X86003571Y-198419104D01*
X86065476Y-198542914D01*
X86065476Y-198666723D01*
X86003571Y-198852438D01*
X85260714Y-199595295D01*
X86065476Y-199595295D01*
D10*
D11*
X135260714Y-198295295D02*
X136065476Y-198295295D01*
X135632142Y-198790533D01*
X135817857Y-198790533D01*
X135941666Y-198852438D01*
X136003571Y-198914342D01*
X136065476Y-199038152D01*
X136065476Y-199347676D01*
X136003571Y-199471485D01*
X135941666Y-199533390D01*
X135817857Y-199595295D01*
X135446428Y-199595295D01*
X135322619Y-199533390D01*
X135260714Y-199471485D01*
D10*
D11*
X185941666Y-198728628D02*
X185941666Y-199595295D01*
X185632142Y-198233390D02*
X185322619Y-199161961D01*
X186127380Y-199161961D01*
D10*
D11*
X236003571Y-198295295D02*
X235384523Y-198295295D01*
X235322619Y-198914342D01*
X235384523Y-198852438D01*
X235508333Y-198790533D01*
X235817857Y-198790533D01*
X235941666Y-198852438D01*
X236003571Y-198914342D01*
X236065476Y-199038152D01*
X236065476Y-199347676D01*
X236003571Y-199471485D01*
X235941666Y-199533390D01*
X235817857Y-199595295D01*
X235508333Y-199595295D01*
X235384523Y-199533390D01*
X235322619Y-199471485D01*
D10*
D11*
X285941666Y-198295295D02*
X285694047Y-198295295D01*
X285570238Y-198357200D01*
X285508333Y-198419104D01*
X285384523Y-198604819D01*
X285322619Y-198852438D01*
X285322619Y-199347676D01*
X285384523Y-199471485D01*
X285446428Y-199533390D01*
X285570238Y-199595295D01*
X285817857Y-199595295D01*
X285941666Y-199533390D01*
X286003571Y-199471485D01*
X286065476Y-199347676D01*
X286065476Y-199038152D01*
X286003571Y-198914342D01*
X285941666Y-198852438D01*
X285817857Y-198790533D01*
X285570238Y-198790533D01*
X285446428Y-198852438D01*
X285384523Y-198914342D01*
X285322619Y-199038152D01*
D10*
D11*
X10000000Y-60000000D02*
X12000000Y-60000000D01*
D10*
D11*
X10000000Y-110000000D02*
X12000000Y-110000000D01*
D10*
D11*
X10000000Y-160000000D02*
X12000000Y-160000000D01*
D10*
D11*
X10690476Y-35216666D02*
X11309523Y-35216666D01*
X10566666Y-35588095D02*
X11000000Y-34288095D01*
X11433333Y-35588095D01*
D10*
D11*
X11092857Y-84907142D02*
X11278571Y-84969047D01*
X11340476Y-85030952D01*
X11402380Y-85154761D01*
X11402380Y-85340476D01*
X11340476Y-85464285D01*
X11278571Y-85526190D01*
X11154761Y-85588095D01*
X10659523Y-85588095D01*
X10659523Y-84288095D01*
X11092857Y-84288095D01*
X11216666Y-84350000D01*
X11278571Y-84411904D01*
X11340476Y-84535714D01*
X11340476Y-84659523D01*
X11278571Y-84783333D01*
X11216666Y-84845238D01*
X11092857Y-84907142D01*
X10659523Y-84907142D01*
D10*
D11*
X11402380Y-135464285D02*
X11340476Y-135526190D01*
X11154761Y-135588095D01*
X11030952Y-135588095D01*
X10845238Y-135526190D01*
X10721428Y-135402380D01*
X10659523Y-135278571D01*
X10597619Y-135030952D01*
X10597619Y-134845238D01*
X10659523Y-134597619D01*
X10721428Y-134473809D01*
X10845238Y-134350000D01*
X11030952Y-134288095D01*
X11154761Y-134288095D01*
X11340476Y-134350000D01*
X11402380Y-134411904D01*
D10*
D11*
X10659523Y-185588095D02*
X10659523Y-184288095D01*
X10969047Y-184288095D01*
X11154761Y-184350000D01*
X11278571Y-184473809D01*
X11340476Y-184597619D01*
X11402380Y-184845238D01*
X11402380Y-185030952D01*
X11340476Y-185278571D01*
X11278571Y-185402380D01*
X11154761Y-185526190D01*
X10969047Y-185588095D01*
X10659523Y-185588095D01*
D10*
D11*
X287002200Y-60000000D02*
X285002200Y-60000000D01*
D10*
D11*
X287002200Y-110000000D02*
X285002200Y-110000000D01*
D10*
D11*
X287002200Y-160000000D02*
X285002200Y-160000000D01*
D10*
D11*
X285692676Y-35216666D02*
X286311723Y-35216666D01*
X285568866Y-35588095D02*
X286002200Y-34288095D01*
X286435533Y-35588095D01*
D10*
D11*
X286095057Y-84907142D02*
X286280771Y-84969047D01*
X286342676Y-85030952D01*
X286404580Y-85154761D01*
X286404580Y-85340476D01*
X286342676Y-85464285D01*
X286280771Y-85526190D01*
X286156961Y-85588095D01*
X285661723Y-85588095D01*
X285661723Y-84288095D01*
X286095057Y-84288095D01*
X286218866Y-84350000D01*
X286280771Y-84411904D01*
X286342676Y-84535714D01*
X286342676Y-84659523D01*
X286280771Y-84783333D01*
X286218866Y-84845238D01*
X286095057Y-84907142D01*
X285661723Y-84907142D01*
D10*
D11*
X286404580Y-135464285D02*
X286342676Y-135526190D01*
X286156961Y-135588095D01*
X286033152Y-135588095D01*
X285847438Y-135526190D01*
X285723628Y-135402380D01*
X285661723Y-135278571D01*
X285599819Y-135030952D01*
X285599819Y-134845238D01*
X285661723Y-134597619D01*
X285723628Y-134473809D01*
X285847438Y-134350000D01*
X286033152Y-134288095D01*
X286156961Y-134288095D01*
X286342676Y-134350000D01*
X286404580Y-134411904D01*
D10*
D11*
X285661723Y-185588095D02*
X285661723Y-184288095D01*
X285971247Y-184288095D01*
X286156961Y-184350000D01*
X286280771Y-184473809D01*
X286342676Y-184597619D01*
X286404580Y-184845238D01*
X286404580Y-185030952D01*
X286342676Y-185278571D01*
X286280771Y-185402380D01*
X286156961Y-185526190D01*
X285971247Y-185588095D01*
X285661723Y-185588095D01*
D10*
D11*
X200434342Y-193785771D02*
X200434342Y-192285771D01*
X200791485Y-192285771D01*
X201005771Y-192357200D01*
X201148628Y-192500057D01*
X201220057Y-192642914D01*
X201291485Y-192928628D01*
X201291485Y-193142914D01*
X201220057Y-193428628D01*
X201148628Y-193571485D01*
X201005771Y-193714342D01*
X200791485Y-193785771D01*
X200434342Y-193785771D01*
X202577200Y-193785771D02*
X202577200Y-193000057D01*
X202505771Y-192857200D01*
X202362914Y-192785771D01*
X202077200Y-192785771D01*
X201934342Y-192857200D01*
X202577200Y-193714342D02*
X202434342Y-193785771D01*
X202077200Y-193785771D01*
X201934342Y-193714342D01*
X201862914Y-193571485D01*
X201862914Y-193428628D01*
X201934342Y-193285771D01*
X202077200Y-193214342D01*
X202434342Y-193214342D01*
X202577200Y-193142914D01*
X203077200Y-192785771D02*
X203648628Y-192785771D01*
X203291485Y-192285771D02*
X203291485Y-193571485D01*
X203362914Y-193714342D01*
X203505771Y-193785771D01*
X203648628Y-193785771D01*
X204720057Y-193714342D02*
X204577200Y-193785771D01*
X204291485Y-193785771D01*
X204148628Y-193714342D01*
X204077200Y-193571485D01*
X204077200Y-193000057D01*
X204148628Y-192857200D01*
X204291485Y-192785771D01*
X204577200Y-192785771D01*
X204720057Y-192857200D01*
X204791485Y-193000057D01*
X204791485Y-193142914D01*
X204077200Y-193285771D01*
X205434342Y-193642914D02*
X205505771Y-193714342D01*
X205434342Y-193785771D01*
X205362914Y-193714342D01*
X205434342Y-193642914D01*
X205434342Y-193785771D01*
X205434342Y-192857200D02*
X205505771Y-192928628D01*
X205434342Y-193000057D01*
X205362914Y-192928628D01*
X205434342Y-192857200D01*
X205434342Y-193000057D01*
D10*
D11*
X177002200Y-194507200D02*
X285002200Y-194507200D01*
D10*
D11*
X178434342Y-196585771D02*
X178434342Y-195085771D01*
X179291485Y-196585771D02*
X178648628Y-195728628D01*
X179291485Y-195085771D02*
X178434342Y-195942914D01*
X179934342Y-196585771D02*
X179934342Y-195585771D01*
X179934342Y-195085771D02*
X179862914Y-195157200D01*
X179934342Y-195228628D01*
X180005771Y-195157200D01*
X179934342Y-195085771D01*
X179934342Y-195228628D01*
X181505771Y-196442914D02*
X181434342Y-196514342D01*
X181220057Y-196585771D01*
X181077200Y-196585771D01*
X180862914Y-196514342D01*
X180720057Y-196371485D01*
X180648628Y-196228628D01*
X180577200Y-195942914D01*
X180577200Y-195728628D01*
X180648628Y-195442914D01*
X180720057Y-195300057D01*
X180862914Y-195157200D01*
X181077200Y-195085771D01*
X181220057Y-195085771D01*
X181434342Y-195157200D01*
X181505771Y-195228628D01*
X182791485Y-196585771D02*
X182791485Y-195800057D01*
X182720057Y-195657200D01*
X182577200Y-195585771D01*
X182291485Y-195585771D01*
X182148628Y-195657200D01*
X182791485Y-196514342D02*
X182648628Y-196585771D01*
X182291485Y-196585771D01*
X182148628Y-196514342D01*
X182077200Y-196371485D01*
X182077200Y-196228628D01*
X182148628Y-196085771D01*
X182291485Y-196014342D01*
X182648628Y-196014342D01*
X182791485Y-195942914D01*
X184148628Y-196585771D02*
X184148628Y-195085771D01*
X184148628Y-196514342D02*
X184005771Y-196585771D01*
X183720057Y-196585771D01*
X183577200Y-196514342D01*
X183505771Y-196442914D01*
X183434342Y-196300057D01*
X183434342Y-195871485D01*
X183505771Y-195728628D01*
X183577200Y-195657200D01*
X183720057Y-195585771D01*
X184005771Y-195585771D01*
X184148628Y-195657200D01*
X186005771Y-195800057D02*
X186505771Y-195800057D01*
X186720057Y-196585771D02*
X186005771Y-196585771D01*
X186005771Y-195085771D01*
X186720057Y-195085771D01*
X187362914Y-196442914D02*
X187434342Y-196514342D01*
X187362914Y-196585771D01*
X187291485Y-196514342D01*
X187362914Y-196442914D01*
X187362914Y-196585771D01*
X188077200Y-196585771D02*
X188077200Y-195085771D01*
X188434342Y-195085771D01*
X188648628Y-195157200D01*
X188791485Y-195300057D01*
X188862914Y-195442914D01*
X188934342Y-195728628D01*
X188934342Y-195942914D01*
X188862914Y-196228628D01*
X188791485Y-196371485D01*
X188648628Y-196514342D01*
X188434342Y-196585771D01*
X188077200Y-196585771D01*
X189577200Y-196442914D02*
X189648628Y-196514342D01*
X189577200Y-196585771D01*
X189505771Y-196514342D01*
X189577200Y-196442914D01*
X189577200Y-196585771D01*
X190220057Y-196157200D02*
X190934342Y-196157200D01*
X190077200Y-196585771D02*
X190577200Y-195085771D01*
X191077200Y-196585771D01*
X191577200Y-196442914D02*
X191648628Y-196514342D01*
X191577200Y-196585771D01*
X191505771Y-196514342D01*
X191577200Y-196442914D01*
X191577200Y-196585771D01*
X194577200Y-196585771D02*
X194577200Y-195085771D01*
X194720057Y-196014342D02*
X195148628Y-196585771D01*
X195148628Y-195585771D02*
X194577200Y-196157200D01*
X195791485Y-196585771D02*
X195791485Y-195585771D01*
X195791485Y-195085771D02*
X195720057Y-195157200D01*
X195791485Y-195228628D01*
X195862914Y-195157200D01*
X195791485Y-195085771D01*
X195791485Y-195228628D01*
X197148628Y-196514342D02*
X197005771Y-196585771D01*
X196720057Y-196585771D01*
X196577200Y-196514342D01*
X196505771Y-196442914D01*
X196434342Y-196300057D01*
X196434342Y-195871485D01*
X196505771Y-195728628D01*
X196577200Y-195657200D01*
X196720057Y-195585771D01*
X197005771Y-195585771D01*
X197148628Y-195657200D01*
X198434342Y-196585771D02*
X198434342Y-195800057D01*
X198362914Y-195657200D01*
X198220057Y-195585771D01*
X197934342Y-195585771D01*
X197791485Y-195657200D01*
X198434342Y-196514342D02*
X198291485Y-196585771D01*
X197934342Y-196585771D01*
X197791485Y-196514342D01*
X197720057Y-196371485D01*
X197720057Y-196228628D01*
X197791485Y-196085771D01*
X197934342Y-196014342D01*
X198291485Y-196014342D01*
X198434342Y-195942914D01*
X199791485Y-196585771D02*
X199791485Y-195085771D01*
X199791485Y-196514342D02*
X199648628Y-196585771D01*
X199362914Y-196585771D01*
X199220057Y-196514342D01*
X199148628Y-196442914D01*
X199077200Y-196300057D01*
X199077200Y-195871485D01*
X199148628Y-195728628D01*
X199220057Y-195657200D01*
X199362914Y-195585771D01*
X199648628Y-195585771D01*
X199791485Y-195657200D01*
X202077200Y-197157200D02*
X202005771Y-197085771D01*
X201862914Y-196871485D01*
X201791485Y-196728628D01*
X201720057Y-196514342D01*
X201648628Y-196157200D01*
X201648628Y-195871485D01*
X201720057Y-195514342D01*
X201791485Y-195300057D01*
X201862914Y-195157200D01*
X202005771Y-194942914D01*
X202077200Y-194871485D01*
X203362914Y-195085771D02*
X202648628Y-195085771D01*
X202577200Y-195800057D01*
X202648628Y-195728628D01*
X202791485Y-195657200D01*
X203148628Y-195657200D01*
X203291485Y-195728628D01*
X203362914Y-195800057D01*
X203434342Y-195942914D01*
X203434342Y-196300057D01*
X203362914Y-196442914D01*
X203291485Y-196514342D01*
X203148628Y-196585771D01*
X202791485Y-196585771D01*
X202648628Y-196514342D01*
X202577200Y-196442914D01*
X204077200Y-196442914D02*
X204148628Y-196514342D01*
X204077200Y-196585771D01*
X204005771Y-196514342D01*
X204077200Y-196442914D01*
X204077200Y-196585771D01*
X205577200Y-196585771D02*
X204720057Y-196585771D01*
X205148628Y-196585771D02*
X205148628Y-195085771D01*
X205005771Y-195300057D01*
X204862914Y-195442914D01*
X204720057Y-195514342D01*
X206220057Y-196442914D02*
X206291485Y-196514342D01*
X206220057Y-196585771D01*
X206148628Y-196514342D01*
X206220057Y-196442914D01*
X206220057Y-196585771D01*
X207577200Y-195585771D02*
X207577200Y-196585771D01*
X207220057Y-195014342D02*
X206862914Y-196085771D01*
X207791485Y-196085771D01*
X208362914Y-196014342D02*
X209505771Y-196014342D01*
X210505771Y-195085771D02*
X210648628Y-195085771D01*
X210791485Y-195157200D01*
X210862914Y-195228628D01*
X210934342Y-195371485D01*
X211005771Y-195657200D01*
X211005771Y-196014342D01*
X210934342Y-196300057D01*
X210862914Y-196442914D01*
X210791485Y-196514342D01*
X210648628Y-196585771D01*
X210505771Y-196585771D01*
X210362914Y-196514342D01*
X210291485Y-196442914D01*
X210220057Y-196300057D01*
X210148628Y-196014342D01*
X210148628Y-195657200D01*
X210220057Y-195371485D01*
X210291485Y-195228628D01*
X210362914Y-195157200D01*
X210505771Y-195085771D01*
X211648628Y-196014342D02*
X212791485Y-196014342D01*
X214291485Y-196585771D02*
X213434342Y-196585771D01*
X213862914Y-196585771D02*
X213862914Y-195085771D01*
X213720057Y-195300057D01*
X213577200Y-195442914D01*
X213434342Y-195514342D01*
X215220057Y-195085771D02*
X215362914Y-195085771D01*
X215505771Y-195157200D01*
X215577200Y-195228628D01*
X215648628Y-195371485D01*
X215720057Y-195657200D01*
X215720057Y-196014342D01*
X215648628Y-196300057D01*
X215577200Y-196442914D01*
X215505771Y-196514342D01*
X215362914Y-196585771D01*
X215220057Y-196585771D01*
X215077200Y-196514342D01*
X215005771Y-196442914D01*
X214934342Y-196300057D01*
X214862914Y-196014342D01*
X214862914Y-195657200D01*
X214934342Y-195371485D01*
X215005771Y-195228628D01*
X215077200Y-195157200D01*
X215220057Y-195085771D01*
X216005771Y-196728628D02*
X217148628Y-196728628D01*
X218291485Y-196585771D02*
X217434342Y-196585771D01*
X217862914Y-196585771D02*
X217862914Y-195085771D01*
X217720057Y-195300057D01*
X217577200Y-195442914D01*
X217434342Y-195514342D01*
X219577200Y-195585771D02*
X219577200Y-196585771D01*
X219220057Y-195014342D02*
X218862914Y-196085771D01*
X219791485Y-196085771D01*
X220220057Y-197157200D02*
X220291485Y-197085771D01*
X220434342Y-196871485D01*
X220505771Y-196728628D01*
X220577200Y-196514342D01*
X220648628Y-196157200D01*
X220648628Y-195871485D01*
X220577200Y-195514342D01*
X220505771Y-195300057D01*
X220434342Y-195157200D01*
X220291485Y-194942914D01*
X220220057Y-194871485D01*
D10*
D11*
X177002200Y-191507200D02*
X285002200Y-191507200D01*
D10*
D12*
X264411485Y-193785771D02*
X263911485Y-193071485D01*
X263554342Y-193785771D02*
X263554342Y-192285771D01*
X264125771Y-192285771D01*
X264268628Y-192357200D01*
X264340057Y-192428628D01*
X264411485Y-192571485D01*
X264411485Y-192785771D01*
X264340057Y-192928628D01*
X264268628Y-193000057D01*
X264125771Y-193071485D01*
X263554342Y-193071485D01*
X265625771Y-193714342D02*
X265482914Y-193785771D01*
X265197200Y-193785771D01*
X265054342Y-193714342D01*
X264982914Y-193571485D01*
X264982914Y-193000057D01*
X265054342Y-192857200D01*
X265197200Y-192785771D01*
X265482914Y-192785771D01*
X265625771Y-192857200D01*
X265697200Y-193000057D01*
X265697200Y-193142914D01*
X264982914Y-193285771D01*
X266197200Y-192785771D02*
X266554342Y-193785771D01*
X266911485Y-192785771D01*
X267482914Y-193642914D02*
X267554342Y-193714342D01*
X267482914Y-193785771D01*
X267411485Y-193714342D01*
X267482914Y-193642914D01*
X267482914Y-193785771D01*
X267482914Y-192857200D02*
X267554342Y-192928628D01*
X267482914Y-193000057D01*
X267411485Y-192928628D01*
X267482914Y-192857200D01*
X267482914Y-193000057D01*
D10*
D11*
X178362914Y-193714342D02*
X178577200Y-193785771D01*
X178934342Y-193785771D01*
X179077200Y-193714342D01*
X179148628Y-193642914D01*
X179220057Y-193500057D01*
X179220057Y-193357200D01*
X179148628Y-193214342D01*
X179077200Y-193142914D01*
X178934342Y-193071485D01*
X178648628Y-193000057D01*
X178505771Y-192928628D01*
X178434342Y-192857200D01*
X178362914Y-192714342D01*
X178362914Y-192571485D01*
X178434342Y-192428628D01*
X178505771Y-192357200D01*
X178648628Y-192285771D01*
X179005771Y-192285771D01*
X179220057Y-192357200D01*
X179862914Y-193785771D02*
X179862914Y-192785771D01*
X179862914Y-192285771D02*
X179791485Y-192357200D01*
X179862914Y-192428628D01*
X179934342Y-192357200D01*
X179862914Y-192285771D01*
X179862914Y-192428628D01*
X180434342Y-192785771D02*
X181220057Y-192785771D01*
X180434342Y-193785771D01*
X181220057Y-193785771D01*
X182362914Y-193714342D02*
X182220057Y-193785771D01*
X181934342Y-193785771D01*
X181791485Y-193714342D01*
X181720057Y-193571485D01*
X181720057Y-193000057D01*
X181791485Y-192857200D01*
X181934342Y-192785771D01*
X182220057Y-192785771D01*
X182362914Y-192857200D01*
X182434342Y-193000057D01*
X182434342Y-193142914D01*
X181720057Y-193285771D01*
X183077200Y-193642914D02*
X183148628Y-193714342D01*
X183077200Y-193785771D01*
X183005771Y-193714342D01*
X183077200Y-193642914D01*
X183077200Y-193785771D01*
X183077200Y-192857200D02*
X183148628Y-192928628D01*
X183077200Y-193000057D01*
X183005771Y-192928628D01*
X183077200Y-192857200D01*
X183077200Y-193000057D01*
X184862914Y-193357200D02*
X185577200Y-193357200D01*
X184720057Y-193785771D02*
X185220057Y-192285771D01*
X185720057Y-193785771D01*
X186862914Y-192785771D02*
X186862914Y-193785771D01*
X186505771Y-192214342D02*
X186148628Y-193285771D01*
X187077200Y-193285771D01*
D10*
D11*
X263434342Y-196585771D02*
X263434342Y-195085771D01*
X264791485Y-196585771D02*
X264791485Y-195085771D01*
X264791485Y-196514342D02*
X264648628Y-196585771D01*
X264362914Y-196585771D01*
X264220057Y-196514342D01*
X264148628Y-196442914D01*
X264077200Y-196300057D01*
X264077200Y-195871485D01*
X264148628Y-195728628D01*
X264220057Y-195657200D01*
X264362914Y-195585771D01*
X264648628Y-195585771D01*
X264791485Y-195657200D01*
X265505771Y-196442914D02*
X265577200Y-196514342D01*
X265505771Y-196585771D01*
X265434342Y-196514342D01*
X265505771Y-196442914D01*
X265505771Y-196585771D01*
X265505771Y-195657200D02*
X265577200Y-195728628D01*
X265505771Y-195800057D01*
X265434342Y-195728628D01*
X265505771Y-195657200D01*
X265505771Y-195800057D01*
X268148628Y-196585771D02*
X267291485Y-196585771D01*
X267720057Y-196585771D02*
X267720057Y-195085771D01*
X267577200Y-195300057D01*
X267434342Y-195442914D01*
X267291485Y-195514342D01*
X269862914Y-195014342D02*
X268577200Y-196942914D01*
X271148628Y-196585771D02*
X270291485Y-196585771D01*
X270720057Y-196585771D02*
X270720057Y-195085771D01*
X270577200Y-195300057D01*
X270434342Y-195442914D01*
X270291485Y-195514342D01*
D10*
D11*
X177002200Y-187507200D02*
X285002200Y-187507200D01*
D10*
D13*
X178714580Y-188211961D02*
X179857438Y-188211961D01*
X179036009Y-190211961D02*
X179286009Y-188211961D01*
X180274104Y-190211961D02*
X180440771Y-188878628D01*
X180524104Y-188211961D02*
X180416961Y-188307200D01*
X180500295Y-188402438D01*
X180607438Y-188307200D01*
X180524104Y-188211961D01*
X180500295Y-188402438D01*
X181107438Y-188878628D02*
X181869342Y-188878628D01*
X181476485Y-188211961D02*
X181262200Y-189926247D01*
X181333628Y-190116723D01*
X181512200Y-190211961D01*
X181702676Y-190211961D01*
X182655057Y-190211961D02*
X182476485Y-190116723D01*
X182405057Y-189926247D01*
X182619342Y-188211961D01*
X184190771Y-190116723D02*
X183988390Y-190211961D01*
X183607438Y-190211961D01*
X183428866Y-190116723D01*
X183357438Y-189926247D01*
X183452676Y-189164342D01*
X183571723Y-188973866D01*
X183774104Y-188878628D01*
X184155057Y-188878628D01*
X184333628Y-188973866D01*
X184405057Y-189164342D01*
X184381247Y-189354819D01*
X183405057Y-189545295D01*
X185155057Y-190021485D02*
X185238390Y-190116723D01*
X185131247Y-190211961D01*
X185047914Y-190116723D01*
X185155057Y-190021485D01*
X185131247Y-190211961D01*
X185286009Y-188973866D02*
X185369342Y-189069104D01*
X185262200Y-189164342D01*
X185178866Y-189069104D01*
X185286009Y-188973866D01*
X185262200Y-189164342D01*
D10*
D11*
X178934342Y-185600057D02*
X178434342Y-185600057D01*
X178434342Y-186385771D02*
X178434342Y-184885771D01*
X179148628Y-184885771D01*
X179720057Y-186385771D02*
X179720057Y-185385771D01*
X179720057Y-184885771D02*
X179648628Y-184957200D01*
X179720057Y-185028628D01*
X179791485Y-184957200D01*
X179720057Y-184885771D01*
X179720057Y-185028628D01*
X180648628Y-186385771D02*
X180505771Y-186314342D01*
X180434342Y-186171485D01*
X180434342Y-184885771D01*
X181791485Y-186314342D02*
X181648628Y-186385771D01*
X181362914Y-186385771D01*
X181220057Y-186314342D01*
X181148628Y-186171485D01*
X181148628Y-185600057D01*
X181220057Y-185457200D01*
X181362914Y-185385771D01*
X181648628Y-185385771D01*
X181791485Y-185457200D01*
X181862914Y-185600057D01*
X181862914Y-185742914D01*
X181148628Y-185885771D01*
X182505771Y-186242914D02*
X182577200Y-186314342D01*
X182505771Y-186385771D01*
X182434342Y-186314342D01*
X182505771Y-186242914D01*
X182505771Y-186385771D01*
X182505771Y-185457200D02*
X182577200Y-185528628D01*
X182505771Y-185600057D01*
X182434342Y-185528628D01*
X182505771Y-185457200D01*
X182505771Y-185600057D01*
X184862914Y-185600057D02*
X185077200Y-185671485D01*
X185148628Y-185742914D01*
X185220057Y-185885771D01*
X185220057Y-186100057D01*
X185148628Y-186242914D01*
X185077200Y-186314342D01*
X184934342Y-186385771D01*
X184362914Y-186385771D01*
X184362914Y-184885771D01*
X184862914Y-184885771D01*
X185005771Y-184957200D01*
X185077200Y-185028628D01*
X185148628Y-185171485D01*
X185148628Y-185314342D01*
X185077200Y-185457200D01*
X185005771Y-185528628D01*
X184862914Y-185600057D01*
X184362914Y-185600057D01*
X185791485Y-186314342D02*
X186005771Y-186385771D01*
X186362914Y-186385771D01*
X186505771Y-186314342D01*
X186577200Y-186242914D01*
X186648628Y-186100057D01*
X186648628Y-185957200D01*
X186577200Y-185814342D01*
X186505771Y-185742914D01*
X186362914Y-185671485D01*
X186077200Y-185600057D01*
X185934342Y-185528628D01*
X185862914Y-185457200D01*
X185791485Y-185314342D01*
X185791485Y-185171485D01*
X185862914Y-185028628D01*
X185934342Y-184957200D01*
X186077200Y-184885771D01*
X186434342Y-184885771D01*
X186648628Y-184957200D01*
X187291485Y-186385771D02*
X187291485Y-184885771D01*
X187862914Y-184885771D01*
X188005771Y-184957200D01*
X188077200Y-185028628D01*
X188148628Y-185171485D01*
X188148628Y-185385771D01*
X188077200Y-185528628D01*
X188005771Y-185600057D01*
X187862914Y-185671485D01*
X187291485Y-185671485D01*
X188791485Y-186385771D02*
X188791485Y-184885771D01*
X189148628Y-184885771D01*
X189362914Y-184957200D01*
X189505771Y-185100057D01*
X189577200Y-185242914D01*
X189648628Y-185528628D01*
X189648628Y-185742914D01*
X189577200Y-186028628D01*
X189505771Y-186171485D01*
X189362914Y-186314342D01*
X189148628Y-186385771D01*
X188791485Y-186385771D01*
X189934342Y-186528628D02*
X191077200Y-186528628D01*
X191362914Y-185028628D02*
X191434342Y-184957200D01*
X191577200Y-184885771D01*
X191934342Y-184885771D01*
X192077200Y-184957200D01*
X192148628Y-185028628D01*
X192220057Y-185171485D01*
X192220057Y-185314342D01*
X192148628Y-185528628D01*
X191291485Y-186385771D01*
X192220057Y-186385771D01*
X193148628Y-184885771D02*
X193291485Y-184885771D01*
X193434342Y-184957200D01*
X193505771Y-185028628D01*
X193577200Y-185171485D01*
X193648628Y-185457200D01*
X193648628Y-185814342D01*
X193577200Y-186100057D01*
X193505771Y-186242914D01*
X193434342Y-186314342D01*
X193291485Y-186385771D01*
X193148628Y-186385771D01*
X193005771Y-186314342D01*
X192934342Y-186242914D01*
X192862914Y-186100057D01*
X192791485Y-185814342D01*
X192791485Y-185457200D01*
X192862914Y-185171485D01*
X192934342Y-185028628D01*
X193005771Y-184957200D01*
X193148628Y-184885771D01*
X195077200Y-186385771D02*
X194220057Y-186385771D01*
X194648628Y-186385771D02*
X194648628Y-184885771D01*
X194505771Y-185100057D01*
X194362914Y-185242914D01*
X194220057Y-185314342D01*
X195791485Y-186385771D02*
X196077200Y-186385771D01*
X196220057Y-186314342D01*
X196291485Y-186242914D01*
X196434342Y-186028628D01*
X196505771Y-185742914D01*
X196505771Y-185171485D01*
X196434342Y-185028628D01*
X196362914Y-184957200D01*
X196220057Y-184885771D01*
X195934342Y-184885771D01*
X195791485Y-184957200D01*
X195720057Y-185028628D01*
X195648628Y-185171485D01*
X195648628Y-185528628D01*
X195720057Y-185671485D01*
X195791485Y-185742914D01*
X195934342Y-185814342D01*
X196220057Y-185814342D01*
X196362914Y-185742914D01*
X196434342Y-185671485D01*
X196505771Y-185528628D01*
X197148628Y-186242914D02*
X197220057Y-186314342D01*
X197148628Y-186385771D01*
X197077200Y-186314342D01*
X197148628Y-186242914D01*
X197148628Y-186385771D01*
X197862914Y-186385771D02*
X197862914Y-184885771D01*
X198005771Y-185814342D02*
X198434342Y-186385771D01*
X198434342Y-185385771D02*
X197862914Y-185957200D01*
X199077200Y-186385771D02*
X199077200Y-185385771D01*
X199077200Y-184885771D02*
X199005771Y-184957200D01*
X199077200Y-185028628D01*
X199148628Y-184957200D01*
X199077200Y-184885771D01*
X199077200Y-185028628D01*
X200434342Y-186314342D02*
X200291485Y-186385771D01*
X200005771Y-186385771D01*
X199862914Y-186314342D01*
X199791485Y-186242914D01*
X199720057Y-186100057D01*
X199720057Y-185671485D01*
X199791485Y-185528628D01*
X199862914Y-185457200D01*
X200005771Y-185385771D01*
X200291485Y-185385771D01*
X200434342Y-185457200D01*
X201720057Y-186385771D02*
X201720057Y-185600057D01*
X201648628Y-185457200D01*
X201505771Y-185385771D01*
X201220057Y-185385771D01*
X201077200Y-185457200D01*
X201720057Y-186314342D02*
X201577200Y-186385771D01*
X201220057Y-186385771D01*
X201077200Y-186314342D01*
X201005771Y-186171485D01*
X201005771Y-186028628D01*
X201077200Y-185885771D01*
X201220057Y-185814342D01*
X201577200Y-185814342D01*
X201720057Y-185742914D01*
X203077200Y-186385771D02*
X203077200Y-184885771D01*
X203077200Y-186314342D02*
X202934342Y-186385771D01*
X202648628Y-186385771D01*
X202505771Y-186314342D01*
X202434342Y-186242914D01*
X202362914Y-186100057D01*
X202362914Y-185671485D01*
X202434342Y-185528628D01*
X202505771Y-185457200D01*
X202648628Y-185385771D01*
X202934342Y-185385771D01*
X203077200Y-185457200D01*
X203434342Y-186528628D02*
X204577200Y-186528628D01*
X204934342Y-185385771D02*
X204934342Y-186885771D01*
X204934342Y-185457200D02*
X205077200Y-185385771D01*
X205362914Y-185385771D01*
X205505771Y-185457200D01*
X205577200Y-185528628D01*
X205648628Y-185671485D01*
X205648628Y-186100057D01*
X205577200Y-186242914D01*
X205505771Y-186314342D01*
X205362914Y-186385771D01*
X205077200Y-186385771D01*
X204934342Y-186314342D01*
X206934342Y-186314342D02*
X206791485Y-186385771D01*
X206505771Y-186385771D01*
X206362914Y-186314342D01*
X206291485Y-186242914D01*
X206220057Y-186100057D01*
X206220057Y-185671485D01*
X206291485Y-185528628D01*
X206362914Y-185457200D01*
X206505771Y-185385771D01*
X206791485Y-185385771D01*
X206934342Y-185457200D01*
X207577200Y-186385771D02*
X207577200Y-184885771D01*
X207577200Y-185457200D02*
X207720057Y-185385771D01*
X208005771Y-185385771D01*
X208148628Y-185457200D01*
X208220057Y-185528628D01*
X208291485Y-185671485D01*
X208291485Y-186100057D01*
X208220057Y-186242914D01*
X208148628Y-186314342D01*
X208005771Y-186385771D01*
X207720057Y-186385771D01*
X207577200Y-186314342D01*
D10*
D11*
X177002200Y-181507200D02*
X285002200Y-181507200D01*
D10*
D11*
X178362914Y-183614342D02*
X178577200Y-183685771D01*
X178934342Y-183685771D01*
X179077200Y-183614342D01*
X179148628Y-183542914D01*
X179220057Y-183400057D01*
X179220057Y-183257200D01*
X179148628Y-183114342D01*
X179077200Y-183042914D01*
X178934342Y-182971485D01*
X178648628Y-182900057D01*
X178505771Y-182828628D01*
X178434342Y-182757200D01*
X178362914Y-182614342D01*
X178362914Y-182471485D01*
X178434342Y-182328628D01*
X178505771Y-182257200D01*
X178648628Y-182185771D01*
X179005771Y-182185771D01*
X179220057Y-182257200D01*
X179862914Y-183685771D02*
X179862914Y-182185771D01*
X180505771Y-183685771D02*
X180505771Y-182900057D01*
X180434342Y-182757200D01*
X180291485Y-182685771D01*
X180077200Y-182685771D01*
X179934342Y-182757200D01*
X179862914Y-182828628D01*
X181791485Y-183614342D02*
X181648628Y-183685771D01*
X181362914Y-183685771D01*
X181220057Y-183614342D01*
X181148628Y-183471485D01*
X181148628Y-182900057D01*
X181220057Y-182757200D01*
X181362914Y-182685771D01*
X181648628Y-182685771D01*
X181791485Y-182757200D01*
X181862914Y-182900057D01*
X181862914Y-183042914D01*
X181148628Y-183185771D01*
X183077200Y-183614342D02*
X182934342Y-183685771D01*
X182648628Y-183685771D01*
X182505771Y-183614342D01*
X182434342Y-183471485D01*
X182434342Y-182900057D01*
X182505771Y-182757200D01*
X182648628Y-182685771D01*
X182934342Y-182685771D01*
X183077200Y-182757200D01*
X183148628Y-182900057D01*
X183148628Y-183042914D01*
X182434342Y-183185771D01*
X183577200Y-182685771D02*
X184148628Y-182685771D01*
X183791485Y-182185771D02*
X183791485Y-183471485D01*
X183862914Y-183614342D01*
X184005771Y-183685771D01*
X184148628Y-183685771D01*
X184648628Y-183542914D02*
X184720057Y-183614342D01*
X184648628Y-183685771D01*
X184577200Y-183614342D01*
X184648628Y-183542914D01*
X184648628Y-183685771D01*
X184648628Y-182757200D02*
X184720057Y-182828628D01*
X184648628Y-182900057D01*
X184577200Y-182828628D01*
X184648628Y-182757200D01*
X184648628Y-182900057D01*
D10*
D11*
X197002200Y-191507200D02*
X197002200Y-194507200D01*
D10*
D11*
X261002200Y-191507200D02*
X261002200Y-198007200D01*
D10*
G36*
X169055176Y-117320925D02*
G01*
X169264609Y-117407674D01*
X169453094Y-117533616D01*
X169613384Y-117693906D01*
X169739326Y-117882391D01*
X169826075Y-118091824D01*
X169870300Y-118314156D01*
X169870300Y-118540844D01*
X169826075Y-118763176D01*
X169739326Y-118972609D01*
X169613384Y-119161094D01*
X169453094Y-119321384D01*
X169264609Y-119447326D01*
X169055176Y-119534075D01*
X168832844Y-119578300D01*
X168606156Y-119578300D01*
X168383824Y-119534075D01*
X168174391Y-119447326D01*
X167985906Y-119321384D01*
X167825616Y-119161094D01*
X167699674Y-118972609D01*
X167612925Y-118763176D01*
X167568700Y-118540844D01*
X167568700Y-118314156D01*
X167612925Y-118091824D01*
X167699674Y-117882391D01*
X167825616Y-117693906D01*
X167985906Y-117533616D01*
X168174391Y-117407674D01*
X168383824Y-117320925D01*
X168606156Y-117276700D01*
X168832844Y-117276700D01*
X169055176Y-117320925D01*
X169055176Y-117320925D01*
G37*
G36*
X107538041Y-112357226D02*
G01*
X108002257Y-112549510D01*
X108420042Y-112828665D01*
X108775335Y-113183958D01*
X109054490Y-113601743D01*
X109246774Y-114065959D01*
X109344800Y-114558768D01*
X109344800Y-115061232D01*
X109246774Y-115554041D01*
X109054490Y-116018257D01*
X108775335Y-116436042D01*
X108420042Y-116791335D01*
X108002257Y-117070490D01*
X107538041Y-117262774D01*
X107045232Y-117360800D01*
X106542768Y-117360800D01*
X106049959Y-117262774D01*
X105585743Y-117070490D01*
X105167958Y-116791335D01*
X104812665Y-116436042D01*
X104533510Y-116018257D01*
X104341226Y-115554041D01*
X104243200Y-115061232D01*
X104243200Y-114558768D01*
X104341226Y-114065959D01*
X104533510Y-113601743D01*
X104812665Y-113183958D01*
X105167958Y-112828665D01*
X105585743Y-112549510D01*
X106049959Y-112357226D01*
X106542768Y-112259200D01*
X107045232Y-112259200D01*
X107538041Y-112357226D01*
X107538041Y-112357226D01*
G37*
G36*
X144390684Y-115278404D02*
G01*
X144435191Y-115291905D01*
X144476212Y-115313831D01*
X144512164Y-115343336D01*
X144541669Y-115379288D01*
X144563595Y-115420309D01*
X144577096Y-115464816D01*
X144581900Y-115513593D01*
X144581900Y-116185207D01*
X144577096Y-116233984D01*
X144563595Y-116278491D01*
X144541669Y-116319512D01*
X144512164Y-116355464D01*
X144476212Y-116384969D01*
X144435191Y-116406895D01*
X144390684Y-116420396D01*
X144341907Y-116425200D01*
X143770293Y-116425200D01*
X143721516Y-116420396D01*
X143677009Y-116406895D01*
X143635988Y-116384969D01*
X143600036Y-116355464D01*
X143570531Y-116319512D01*
X143548605Y-116278491D01*
X143535104Y-116233984D01*
X143530300Y-116185207D01*
X143530300Y-115513593D01*
X143535104Y-115464816D01*
X143548605Y-115420309D01*
X143570531Y-115379288D01*
X143600036Y-115343336D01*
X143635988Y-115313831D01*
X143677009Y-115291905D01*
X143721516Y-115278404D01*
X143770293Y-115273600D01*
X144341907Y-115273600D01*
X144390684Y-115278404D01*
X144390684Y-115278404D01*
G37*
G36*
X122991184Y-115278404D02*
G01*
X123035691Y-115291905D01*
X123076712Y-115313831D01*
X123112664Y-115343336D01*
X123142169Y-115379288D01*
X123164095Y-115420309D01*
X123177596Y-115464816D01*
X123182400Y-115513593D01*
X123182400Y-116185207D01*
X123177596Y-116233984D01*
X123164095Y-116278491D01*
X123142169Y-116319512D01*
X123112664Y-116355464D01*
X123076712Y-116384969D01*
X123035691Y-116406895D01*
X122991184Y-116420396D01*
X122942407Y-116425200D01*
X122370793Y-116425200D01*
X122322016Y-116420396D01*
X122277509Y-116406895D01*
X122236488Y-116384969D01*
X122200536Y-116355464D01*
X122171031Y-116319512D01*
X122149105Y-116278491D01*
X122135604Y-116233984D01*
X122130800Y-116185207D01*
X122130800Y-115513593D01*
X122135604Y-115464816D01*
X122149105Y-115420309D01*
X122171031Y-115379288D01*
X122200536Y-115343336D01*
X122236488Y-115313831D01*
X122277509Y-115291905D01*
X122322016Y-115278404D01*
X122370793Y-115273600D01*
X122942407Y-115273600D01*
X122991184Y-115278404D01*
X122991184Y-115278404D01*
G37*
G36*
X138967855Y-113715878D02*
G01*
X139011138Y-113729008D01*
X139051024Y-113750328D01*
X139085983Y-113779017D01*
X139114672Y-113813976D01*
X139135992Y-113853862D01*
X139149122Y-113897145D01*
X139153800Y-113944642D01*
X139153800Y-116179358D01*
X139149122Y-116226855D01*
X139135992Y-116270138D01*
X139114672Y-116310024D01*
X139085983Y-116344983D01*
X139051024Y-116373672D01*
X139011138Y-116394992D01*
X138967855Y-116408122D01*
X138920358Y-116412800D01*
X137685642Y-116412800D01*
X137638145Y-116408122D01*
X137594862Y-116394992D01*
X137554976Y-116373672D01*
X137520017Y-116344983D01*
X137491328Y-116310024D01*
X137470008Y-116270138D01*
X137456878Y-116226855D01*
X137452200Y-116179358D01*
X137452200Y-113944642D01*
X137456878Y-113897145D01*
X137470008Y-113853862D01*
X137491328Y-113813976D01*
X137520017Y-113779017D01*
X137554976Y-113750328D01*
X137594862Y-113729008D01*
X137638145Y-113715878D01*
X137685642Y-113711200D01*
X138920358Y-113711200D01*
X138967855Y-113715878D01*
X138967855Y-113715878D01*
G37*
G36*
X134827584Y-115250404D02*
G01*
X134872091Y-115263905D01*
X134913112Y-115285831D01*
X134949064Y-115315336D01*
X134978569Y-115351288D01*
X135000495Y-115392309D01*
X135013996Y-115436816D01*
X135018800Y-115485593D01*
X135018800Y-116157207D01*
X135013996Y-116205984D01*
X135000495Y-116250491D01*
X134978569Y-116291512D01*
X134949064Y-116327464D01*
X134913112Y-116356969D01*
X134872091Y-116378895D01*
X134827584Y-116392396D01*
X134778807Y-116397200D01*
X134207193Y-116397200D01*
X134158416Y-116392396D01*
X134113909Y-116378895D01*
X134072888Y-116356969D01*
X134036936Y-116327464D01*
X134007431Y-116291512D01*
X133985505Y-116250491D01*
X133972004Y-116205984D01*
X133967200Y-116157207D01*
X133967200Y-115485593D01*
X133972004Y-115436816D01*
X133985505Y-115392309D01*
X134007431Y-115351288D01*
X134036936Y-115315336D01*
X134072888Y-115285831D01*
X134113909Y-115263905D01*
X134158416Y-115250404D01*
X134207193Y-115245600D01*
X134778807Y-115245600D01*
X134827584Y-115250404D01*
X134827584Y-115250404D01*
G37*
G36*
X119524155Y-113699778D02*
G01*
X119567438Y-113712908D01*
X119607324Y-113734228D01*
X119642283Y-113762917D01*
X119670972Y-113797876D01*
X119692292Y-113837762D01*
X119705422Y-113881045D01*
X119710100Y-113928542D01*
X119710100Y-116163258D01*
X119705422Y-116210755D01*
X119692292Y-116254038D01*
X119670972Y-116293924D01*
X119642283Y-116328883D01*
X119607324Y-116357572D01*
X119567438Y-116378892D01*
X119524155Y-116392022D01*
X119476658Y-116396700D01*
X118241942Y-116396700D01*
X118194445Y-116392022D01*
X118151162Y-116378892D01*
X118111276Y-116357572D01*
X118076317Y-116328883D01*
X118047628Y-116293924D01*
X118026308Y-116254038D01*
X118013178Y-116210755D01*
X118008500Y-116163258D01*
X118008500Y-113928542D01*
X118013178Y-113881045D01*
X118026308Y-113837762D01*
X118047628Y-113797876D01*
X118076317Y-113762917D01*
X118111276Y-113734228D01*
X118151162Y-113712908D01*
X118194445Y-113699778D01*
X118241942Y-113695100D01*
X119476658Y-113695100D01*
X119524155Y-113699778D01*
X119524155Y-113699778D01*
G37*
G36*
X152353584Y-115239004D02*
G01*
X152398091Y-115252505D01*
X152439112Y-115274431D01*
X152475064Y-115303936D01*
X152504569Y-115339888D01*
X152526495Y-115380909D01*
X152539996Y-115425416D01*
X152544800Y-115474193D01*
X152544800Y-116145807D01*
X152539996Y-116194584D01*
X152526495Y-116239091D01*
X152504569Y-116280112D01*
X152475064Y-116316064D01*
X152439112Y-116345569D01*
X152398091Y-116367495D01*
X152353584Y-116380996D01*
X152304807Y-116385800D01*
X151733193Y-116385800D01*
X151684416Y-116380996D01*
X151639909Y-116367495D01*
X151598888Y-116345569D01*
X151562936Y-116316064D01*
X151533431Y-116280112D01*
X151511505Y-116239091D01*
X151498004Y-116194584D01*
X151493200Y-116145807D01*
X151493200Y-115474193D01*
X151498004Y-115425416D01*
X151511505Y-115380909D01*
X151533431Y-115339888D01*
X151562936Y-115303936D01*
X151598888Y-115274431D01*
X151639909Y-115252505D01*
X151684416Y-115239004D01*
X151733193Y-115234200D01*
X152304807Y-115234200D01*
X152353584Y-115239004D01*
X152353584Y-115239004D01*
G37*
G36*
X160164084Y-115225004D02*
G01*
X160208591Y-115238505D01*
X160249612Y-115260431D01*
X160285564Y-115289936D01*
X160315069Y-115325888D01*
X160336995Y-115366909D01*
X160350496Y-115411416D01*
X160355300Y-115460193D01*
X160355300Y-116131807D01*
X160350496Y-116180584D01*
X160336995Y-116225091D01*
X160315069Y-116266112D01*
X160285564Y-116302064D01*
X160249612Y-116331569D01*
X160208591Y-116353495D01*
X160164084Y-116366996D01*
X160115307Y-116371800D01*
X159543693Y-116371800D01*
X159494916Y-116366996D01*
X159450409Y-116353495D01*
X159409388Y-116331569D01*
X159373436Y-116302064D01*
X159343931Y-116266112D01*
X159322005Y-116225091D01*
X159308504Y-116180584D01*
X159303700Y-116131807D01*
X159303700Y-115460193D01*
X159308504Y-115411416D01*
X159322005Y-115366909D01*
X159343931Y-115325888D01*
X159373436Y-115289936D01*
X159409388Y-115260431D01*
X159450409Y-115238505D01*
X159494916Y-115225004D01*
X159543693Y-115220200D01*
X160115307Y-115220200D01*
X160164084Y-115225004D01*
X160164084Y-115225004D01*
G37*
G36*
X163294800Y-116274800D02*
G01*
X162593200Y-116274800D01*
X162593200Y-115373200D01*
X163294800Y-115373200D01*
X163294800Y-116274800D01*
X163294800Y-116274800D01*
G37*
G36*
X161894800Y-116274800D02*
G01*
X161193200Y-116274800D01*
X161193200Y-115373200D01*
X161894800Y-115373200D01*
X161894800Y-116274800D01*
X161894800Y-116274800D01*
G37*
G36*
X147531100Y-116274800D02*
G01*
X146829500Y-116274800D01*
X146829500Y-115373200D01*
X147531100Y-115373200D01*
X147531100Y-116274800D01*
X147531100Y-116274800D01*
G37*
G36*
X146131100Y-116274800D02*
G01*
X145429500Y-116274800D01*
X145429500Y-115373200D01*
X146131100Y-115373200D01*
X146131100Y-116274800D01*
X146131100Y-116274800D01*
G37*
G36*
X155609800Y-116249400D02*
G01*
X154908200Y-116249400D01*
X154908200Y-115347800D01*
X155609800Y-115347800D01*
X155609800Y-116249400D01*
X155609800Y-116249400D01*
G37*
G36*
X154209800Y-116249400D02*
G01*
X153508200Y-116249400D01*
X153508200Y-115347800D01*
X154209800Y-115347800D01*
X154209800Y-116249400D01*
X154209800Y-116249400D01*
G37*
G36*
X126524800Y-116232400D02*
G01*
X124223200Y-116232400D01*
X124223200Y-114630800D01*
X126524800Y-114630800D01*
X126524800Y-116232400D01*
X126524800Y-116232400D01*
G37*
G36*
X132824800Y-115082400D02*
G01*
X130523200Y-115082400D01*
X130523200Y-111180800D01*
X132824800Y-111180800D01*
X132824800Y-115082400D01*
X132824800Y-115082400D01*
G37*
G36*
X122991184Y-113528404D02*
G01*
X123035691Y-113541905D01*
X123076712Y-113563831D01*
X123112664Y-113593336D01*
X123142169Y-113629288D01*
X123164095Y-113670309D01*
X123177596Y-113714816D01*
X123182400Y-113763593D01*
X123182400Y-114435207D01*
X123177596Y-114483984D01*
X123164095Y-114528491D01*
X123142169Y-114569512D01*
X123112664Y-114605464D01*
X123076712Y-114634969D01*
X123035691Y-114656895D01*
X122991184Y-114670396D01*
X122942407Y-114675200D01*
X122370793Y-114675200D01*
X122322016Y-114670396D01*
X122277509Y-114656895D01*
X122236488Y-114634969D01*
X122200536Y-114605464D01*
X122171031Y-114569512D01*
X122149105Y-114528491D01*
X122135604Y-114483984D01*
X122130800Y-114435207D01*
X122130800Y-113763593D01*
X122135604Y-113714816D01*
X122149105Y-113670309D01*
X122171031Y-113629288D01*
X122200536Y-113593336D01*
X122236488Y-113563831D01*
X122277509Y-113541905D01*
X122322016Y-113528404D01*
X122370793Y-113523600D01*
X122942407Y-113523600D01*
X122991184Y-113528404D01*
X122991184Y-113528404D01*
G37*
G36*
X144390684Y-113528404D02*
G01*
X144435191Y-113541905D01*
X144476212Y-113563831D01*
X144512164Y-113593336D01*
X144541669Y-113629288D01*
X144563595Y-113670309D01*
X144577096Y-113714816D01*
X144581900Y-113763593D01*
X144581900Y-114435207D01*
X144577096Y-114483984D01*
X144563595Y-114528491D01*
X144541669Y-114569512D01*
X144512164Y-114605464D01*
X144476212Y-114634969D01*
X144435191Y-114656895D01*
X144390684Y-114670396D01*
X144341907Y-114675200D01*
X143770293Y-114675200D01*
X143721516Y-114670396D01*
X143677009Y-114656895D01*
X143635988Y-114634969D01*
X143600036Y-114605464D01*
X143570531Y-114569512D01*
X143548605Y-114528491D01*
X143535104Y-114483984D01*
X143530300Y-114435207D01*
X143530300Y-113763593D01*
X143535104Y-113714816D01*
X143548605Y-113670309D01*
X143570531Y-113629288D01*
X143600036Y-113593336D01*
X143635988Y-113563831D01*
X143677009Y-113541905D01*
X143721516Y-113528404D01*
X143770293Y-113523600D01*
X144341907Y-113523600D01*
X144390684Y-113528404D01*
X144390684Y-113528404D01*
G37*
G36*
X134827584Y-113500404D02*
G01*
X134872091Y-113513905D01*
X134913112Y-113535831D01*
X134949064Y-113565336D01*
X134978569Y-113601288D01*
X135000495Y-113642309D01*
X135013996Y-113686816D01*
X135018800Y-113735593D01*
X135018800Y-114407207D01*
X135013996Y-114455984D01*
X135000495Y-114500491D01*
X134978569Y-114541512D01*
X134949064Y-114577464D01*
X134913112Y-114606969D01*
X134872091Y-114628895D01*
X134827584Y-114642396D01*
X134778807Y-114647200D01*
X134207193Y-114647200D01*
X134158416Y-114642396D01*
X134113909Y-114628895D01*
X134072888Y-114606969D01*
X134036936Y-114577464D01*
X134007431Y-114541512D01*
X133985505Y-114500491D01*
X133972004Y-114455984D01*
X133967200Y-114407207D01*
X133967200Y-113735593D01*
X133972004Y-113686816D01*
X133985505Y-113642309D01*
X134007431Y-113601288D01*
X134036936Y-113565336D01*
X134072888Y-113535831D01*
X134113909Y-113513905D01*
X134158416Y-113500404D01*
X134207193Y-113495600D01*
X134778807Y-113495600D01*
X134827584Y-113500404D01*
X134827584Y-113500404D01*
G37*
G36*
X152353584Y-113489004D02*
G01*
X152398091Y-113502505D01*
X152439112Y-113524431D01*
X152475064Y-113553936D01*
X152504569Y-113589888D01*
X152526495Y-113630909D01*
X152539996Y-113675416D01*
X152544800Y-113724193D01*
X152544800Y-114395807D01*
X152539996Y-114444584D01*
X152526495Y-114489091D01*
X152504569Y-114530112D01*
X152475064Y-114566064D01*
X152439112Y-114595569D01*
X152398091Y-114617495D01*
X152353584Y-114630996D01*
X152304807Y-114635800D01*
X151733193Y-114635800D01*
X151684416Y-114630996D01*
X151639909Y-114617495D01*
X151598888Y-114595569D01*
X151562936Y-114566064D01*
X151533431Y-114530112D01*
X151511505Y-114489091D01*
X151498004Y-114444584D01*
X151493200Y-114395807D01*
X151493200Y-113724193D01*
X151498004Y-113675416D01*
X151511505Y-113630909D01*
X151533431Y-113589888D01*
X151562936Y-113553936D01*
X151598888Y-113524431D01*
X151639909Y-113502505D01*
X151684416Y-113489004D01*
X151733193Y-113484200D01*
X152304807Y-113484200D01*
X152353584Y-113489004D01*
X152353584Y-113489004D01*
G37*
G36*
X160164084Y-113475004D02*
G01*
X160208591Y-113488505D01*
X160249612Y-113510431D01*
X160285564Y-113539936D01*
X160315069Y-113575888D01*
X160336995Y-113616909D01*
X160350496Y-113661416D01*
X160355300Y-113710193D01*
X160355300Y-114381807D01*
X160350496Y-114430584D01*
X160336995Y-114475091D01*
X160315069Y-114516112D01*
X160285564Y-114552064D01*
X160249612Y-114581569D01*
X160208591Y-114603495D01*
X160164084Y-114616996D01*
X160115307Y-114621800D01*
X159543693Y-114621800D01*
X159494916Y-114616996D01*
X159450409Y-114603495D01*
X159409388Y-114581569D01*
X159373436Y-114552064D01*
X159343931Y-114516112D01*
X159322005Y-114475091D01*
X159308504Y-114430584D01*
X159303700Y-114381807D01*
X159303700Y-113710193D01*
X159308504Y-113661416D01*
X159322005Y-113616909D01*
X159343931Y-113575888D01*
X159373436Y-113539936D01*
X159409388Y-113510431D01*
X159450409Y-113488505D01*
X159494916Y-113475004D01*
X159543693Y-113470200D01*
X160115307Y-113470200D01*
X160164084Y-113475004D01*
X160164084Y-113475004D01*
G37*
G36*
X147550300Y-114546000D02*
G01*
X146810300Y-114546000D01*
X146810300Y-113106000D01*
X147550300Y-113106000D01*
X147550300Y-114546000D01*
X147550300Y-114546000D01*
G37*
G36*
X155589400Y-114444400D02*
G01*
X154849400Y-114444400D01*
X154849400Y-113004400D01*
X155589400Y-113004400D01*
X155589400Y-114444400D01*
X155589400Y-114444400D01*
G37*
G36*
X163374500Y-114355500D02*
G01*
X162634500Y-114355500D01*
X162634500Y-112915500D01*
X163374500Y-112915500D01*
X163374500Y-114355500D01*
X163374500Y-114355500D01*
G37*
G36*
X113303000Y-114264000D02*
G01*
X112401400Y-114264000D01*
X112401400Y-113562400D01*
X113303000Y-113562400D01*
X113303000Y-114264000D01*
X113303000Y-114264000D01*
G37*
G36*
X126524800Y-113932400D02*
G01*
X124223200Y-113932400D01*
X124223200Y-112330800D01*
X126524800Y-112330800D01*
X126524800Y-113932400D01*
X126524800Y-113932400D01*
G37*
G36*
X169153008Y-111448082D02*
G01*
X169344241Y-111527293D01*
X169516347Y-111642291D01*
X169662709Y-111788653D01*
X169777707Y-111960759D01*
X169856918Y-112151992D01*
X169897300Y-112355005D01*
X169897300Y-112561995D01*
X169856918Y-112765008D01*
X169777707Y-112956241D01*
X169662709Y-113128347D01*
X169516347Y-113274709D01*
X169344241Y-113389707D01*
X169153008Y-113468918D01*
X168949995Y-113509300D01*
X168743005Y-113509300D01*
X168539992Y-113468918D01*
X168348759Y-113389707D01*
X168176653Y-113274709D01*
X168030291Y-113128347D01*
X167915293Y-112956241D01*
X167836082Y-112765008D01*
X167795700Y-112561995D01*
X167795700Y-112355005D01*
X167836082Y-112151992D01*
X167915293Y-111960759D01*
X168030291Y-111788653D01*
X168176653Y-111642291D01*
X168348759Y-111527293D01*
X168539992Y-111448082D01*
X168743005Y-111407700D01*
X168949995Y-111407700D01*
X169153008Y-111448082D01*
X169153008Y-111448082D01*
G37*
G36*
X113303000Y-112864000D02*
G01*
X112401400Y-112864000D01*
X112401400Y-112162400D01*
X113303000Y-112162400D01*
X113303000Y-112864000D01*
X113303000Y-112864000D01*
G37*
G36*
X138967855Y-110115878D02*
G01*
X139011138Y-110129008D01*
X139051024Y-110150328D01*
X139085983Y-110179017D01*
X139114672Y-110213976D01*
X139135992Y-110253862D01*
X139149122Y-110297145D01*
X139153800Y-110344642D01*
X139153800Y-112579358D01*
X139149122Y-112626855D01*
X139135992Y-112670138D01*
X139114672Y-112710024D01*
X139085983Y-112744983D01*
X139051024Y-112773672D01*
X139011138Y-112794992D01*
X138967855Y-112808122D01*
X138920358Y-112812800D01*
X137685642Y-112812800D01*
X137638145Y-112808122D01*
X137594862Y-112794992D01*
X137554976Y-112773672D01*
X137520017Y-112744983D01*
X137491328Y-112710024D01*
X137470008Y-112670138D01*
X137456878Y-112626855D01*
X137452200Y-112579358D01*
X137452200Y-110344642D01*
X137456878Y-110297145D01*
X137470008Y-110253862D01*
X137491328Y-110213976D01*
X137520017Y-110179017D01*
X137554976Y-110150328D01*
X137594862Y-110129008D01*
X137638145Y-110115878D01*
X137685642Y-110111200D01*
X138920358Y-110111200D01*
X138967855Y-110115878D01*
X138967855Y-110115878D01*
G37*
G36*
X119524155Y-110099778D02*
G01*
X119567438Y-110112908D01*
X119607324Y-110134228D01*
X119642283Y-110162917D01*
X119670972Y-110197876D01*
X119692292Y-110237762D01*
X119705422Y-110281045D01*
X119710100Y-110328542D01*
X119710100Y-112563258D01*
X119705422Y-112610755D01*
X119692292Y-112654038D01*
X119670972Y-112693924D01*
X119642283Y-112728883D01*
X119607324Y-112757572D01*
X119567438Y-112778892D01*
X119524155Y-112792022D01*
X119476658Y-112796700D01*
X118241942Y-112796700D01*
X118194445Y-112792022D01*
X118151162Y-112778892D01*
X118111276Y-112757572D01*
X118076317Y-112728883D01*
X118047628Y-112693924D01*
X118026308Y-112654038D01*
X118013178Y-112610755D01*
X118008500Y-112563258D01*
X118008500Y-110328542D01*
X118013178Y-110281045D01*
X118026308Y-110237762D01*
X118047628Y-110197876D01*
X118076317Y-110162917D01*
X118111276Y-110134228D01*
X118151162Y-110112908D01*
X118194445Y-110099778D01*
X118241942Y-110095100D01*
X119476658Y-110095100D01*
X119524155Y-110099778D01*
X119524155Y-110099778D01*
G37*
G36*
X146600300Y-112446000D02*
G01*
X145860300Y-112446000D01*
X145860300Y-111006000D01*
X146600300Y-111006000D01*
X146600300Y-112446000D01*
X146600300Y-112446000D01*
G37*
G36*
X148500300Y-112446000D02*
G01*
X147760300Y-112446000D01*
X147760300Y-111006000D01*
X148500300Y-111006000D01*
X148500300Y-112446000D01*
X148500300Y-112446000D01*
G37*
G36*
X156539400Y-112344400D02*
G01*
X155799400Y-112344400D01*
X155799400Y-110904400D01*
X156539400Y-110904400D01*
X156539400Y-112344400D01*
X156539400Y-112344400D01*
G37*
G36*
X154639400Y-112344400D02*
G01*
X153899400Y-112344400D01*
X153899400Y-110904400D01*
X154639400Y-110904400D01*
X154639400Y-112344400D01*
X154639400Y-112344400D01*
G37*
G36*
X164324500Y-112255500D02*
G01*
X163584500Y-112255500D01*
X163584500Y-110815500D01*
X164324500Y-110815500D01*
X164324500Y-112255500D01*
X164324500Y-112255500D01*
G37*
G36*
X162424500Y-112255500D02*
G01*
X161684500Y-112255500D01*
X161684500Y-110815500D01*
X162424500Y-110815500D01*
X162424500Y-112255500D01*
X162424500Y-112255500D01*
G37*
G36*
X126524800Y-111632400D02*
G01*
X124223200Y-111632400D01*
X124223200Y-110030800D01*
X126524800Y-110030800D01*
X126524800Y-111632400D01*
X126524800Y-111632400D01*
G37*
G36*
X115571708Y-109022382D02*
G01*
X115762941Y-109101593D01*
X115935047Y-109216591D01*
X116081409Y-109362953D01*
X116196407Y-109535059D01*
X116275618Y-109726292D01*
X116316000Y-109929305D01*
X116316000Y-110136295D01*
X116275618Y-110339308D01*
X116196407Y-110530541D01*
X116081409Y-110702647D01*
X115935047Y-110849009D01*
X115762941Y-110964007D01*
X115571708Y-111043218D01*
X115368695Y-111083600D01*
X115161705Y-111083600D01*
X114958692Y-111043218D01*
X114767459Y-110964007D01*
X114595353Y-110849009D01*
X114448991Y-110702647D01*
X114333993Y-110530541D01*
X114254782Y-110339308D01*
X114214400Y-110136295D01*
X114214400Y-109929305D01*
X114254782Y-109726292D01*
X114333993Y-109535059D01*
X114448991Y-109362953D01*
X114595353Y-109216591D01*
X114767459Y-109101593D01*
X114958692Y-109022382D01*
X115161705Y-108982000D01*
X115368695Y-108982000D01*
X115571708Y-109022382D01*
X115571708Y-109022382D01*
G37*
G36*
X146729284Y-109257804D02*
G01*
X146773791Y-109271305D01*
X146814812Y-109293231D01*
X146850764Y-109322736D01*
X146880269Y-109358688D01*
X146902195Y-109399709D01*
X146915696Y-109444216D01*
X146920500Y-109492993D01*
X146920500Y-110064607D01*
X146915696Y-110113384D01*
X146902195Y-110157891D01*
X146880269Y-110198912D01*
X146850764Y-110234864D01*
X146814812Y-110264369D01*
X146773791Y-110286295D01*
X146729284Y-110299796D01*
X146680507Y-110304600D01*
X146008893Y-110304600D01*
X145960116Y-110299796D01*
X145915609Y-110286295D01*
X145874588Y-110264369D01*
X145838636Y-110234864D01*
X145809131Y-110198912D01*
X145787205Y-110157891D01*
X145773704Y-110113384D01*
X145768900Y-110064607D01*
X145768900Y-109492993D01*
X145773704Y-109444216D01*
X145787205Y-109399709D01*
X145809131Y-109358688D01*
X145838636Y-109322736D01*
X145874588Y-109293231D01*
X145915609Y-109271305D01*
X145960116Y-109257804D01*
X146008893Y-109253000D01*
X146680507Y-109253000D01*
X146729284Y-109257804D01*
X146729284Y-109257804D01*
G37*
G36*
X148479284Y-109257804D02*
G01*
X148523791Y-109271305D01*
X148564812Y-109293231D01*
X148600764Y-109322736D01*
X148630269Y-109358688D01*
X148652195Y-109399709D01*
X148665696Y-109444216D01*
X148670500Y-109492993D01*
X148670500Y-110064607D01*
X148665696Y-110113384D01*
X148652195Y-110157891D01*
X148630269Y-110198912D01*
X148600764Y-110234864D01*
X148564812Y-110264369D01*
X148523791Y-110286295D01*
X148479284Y-110299796D01*
X148430507Y-110304600D01*
X147758893Y-110304600D01*
X147710116Y-110299796D01*
X147665609Y-110286295D01*
X147624588Y-110264369D01*
X147588636Y-110234864D01*
X147559131Y-110198912D01*
X147537205Y-110157891D01*
X147523704Y-110113384D01*
X147518900Y-110064607D01*
X147518900Y-109492993D01*
X147523704Y-109444216D01*
X147537205Y-109399709D01*
X147559131Y-109358688D01*
X147588636Y-109322736D01*
X147624588Y-109293231D01*
X147665609Y-109271305D01*
X147710116Y-109257804D01*
X147758893Y-109253000D01*
X148430507Y-109253000D01*
X148479284Y-109257804D01*
X148479284Y-109257804D01*
G37*
G36*
X156555184Y-109181604D02*
G01*
X156599691Y-109195105D01*
X156640712Y-109217031D01*
X156676664Y-109246536D01*
X156706169Y-109282488D01*
X156728095Y-109323509D01*
X156741596Y-109368016D01*
X156746400Y-109416793D01*
X156746400Y-109988407D01*
X156741596Y-110037184D01*
X156728095Y-110081691D01*
X156706169Y-110122712D01*
X156676664Y-110158664D01*
X156640712Y-110188169D01*
X156599691Y-110210095D01*
X156555184Y-110223596D01*
X156506407Y-110228400D01*
X155834793Y-110228400D01*
X155786016Y-110223596D01*
X155741509Y-110210095D01*
X155700488Y-110188169D01*
X155664536Y-110158664D01*
X155635031Y-110122712D01*
X155613105Y-110081691D01*
X155599604Y-110037184D01*
X155594800Y-109988407D01*
X155594800Y-109416793D01*
X155599604Y-109368016D01*
X155613105Y-109323509D01*
X155635031Y-109282488D01*
X155664536Y-109246536D01*
X155700488Y-109217031D01*
X155741509Y-109195105D01*
X155786016Y-109181604D01*
X155834793Y-109176800D01*
X156506407Y-109176800D01*
X156555184Y-109181604D01*
X156555184Y-109181604D01*
G37*
G36*
X154805184Y-109181604D02*
G01*
X154849691Y-109195105D01*
X154890712Y-109217031D01*
X154926664Y-109246536D01*
X154956169Y-109282488D01*
X154978095Y-109323509D01*
X154991596Y-109368016D01*
X154996400Y-109416793D01*
X154996400Y-109988407D01*
X154991596Y-110037184D01*
X154978095Y-110081691D01*
X154956169Y-110122712D01*
X154926664Y-110158664D01*
X154890712Y-110188169D01*
X154849691Y-110210095D01*
X154805184Y-110223596D01*
X154756407Y-110228400D01*
X154084793Y-110228400D01*
X154036016Y-110223596D01*
X153991509Y-110210095D01*
X153950488Y-110188169D01*
X153914536Y-110158664D01*
X153885031Y-110122712D01*
X153863105Y-110081691D01*
X153849604Y-110037184D01*
X153844800Y-109988407D01*
X153844800Y-109416793D01*
X153849604Y-109368016D01*
X153863105Y-109323509D01*
X153885031Y-109282488D01*
X153914536Y-109246536D01*
X153950488Y-109217031D01*
X153991509Y-109195105D01*
X154036016Y-109181604D01*
X154084793Y-109176800D01*
X154756407Y-109176800D01*
X154805184Y-109181604D01*
X154805184Y-109181604D01*
G37*
G36*
X112873430Y-106559189D02*
G01*
X113110160Y-106657245D01*
X113323213Y-106799603D01*
X113504397Y-106980787D01*
X113646755Y-107193840D01*
X113744811Y-107430570D01*
X113794800Y-107681882D01*
X113794800Y-107938118D01*
X113744811Y-108189430D01*
X113646755Y-108426160D01*
X113504397Y-108639213D01*
X113323213Y-108820397D01*
X113110160Y-108962755D01*
X112873430Y-109060811D01*
X112622118Y-109110800D01*
X112365882Y-109110800D01*
X112114570Y-109060811D01*
X111877840Y-108962755D01*
X111664787Y-108820397D01*
X111483603Y-108639213D01*
X111341245Y-108426160D01*
X111243189Y-108189430D01*
X111193200Y-107938118D01*
X111193200Y-107681882D01*
X111243189Y-107430570D01*
X111341245Y-107193840D01*
X111483603Y-106980787D01*
X111664787Y-106799603D01*
X111877840Y-106657245D01*
X112114570Y-106559189D01*
X112365882Y-106509200D01*
X112622118Y-106509200D01*
X112873430Y-106559189D01*
X112873430Y-106559189D01*
G37*
G36*
X109373430Y-106559189D02*
G01*
X109610160Y-106657245D01*
X109823213Y-106799603D01*
X110004397Y-106980787D01*
X110146755Y-107193840D01*
X110244811Y-107430570D01*
X110294800Y-107681882D01*
X110294800Y-107938118D01*
X110244811Y-108189430D01*
X110146755Y-108426160D01*
X110004397Y-108639213D01*
X109823213Y-108820397D01*
X109610160Y-108962755D01*
X109373430Y-109060811D01*
X109122118Y-109110800D01*
X108865882Y-109110800D01*
X108614570Y-109060811D01*
X108377840Y-108962755D01*
X108164787Y-108820397D01*
X107983603Y-108639213D01*
X107841245Y-108426160D01*
X107743189Y-108189430D01*
X107693200Y-107938118D01*
X107693200Y-107681882D01*
X107743189Y-107430570D01*
X107841245Y-107193840D01*
X107983603Y-106980787D01*
X108164787Y-106799603D01*
X108377840Y-106657245D01*
X108614570Y-106559189D01*
X108865882Y-106509200D01*
X109122118Y-106509200D01*
X109373430Y-106559189D01*
X109373430Y-106559189D01*
G37*
G36*
X138596808Y-106812582D02*
G01*
X138788041Y-106891793D01*
X138960147Y-107006791D01*
X139106509Y-107153153D01*
X139221507Y-107325259D01*
X139300718Y-107516492D01*
X139341100Y-107719505D01*
X139341100Y-107926495D01*
X139300718Y-108129508D01*
X139221507Y-108320741D01*
X139106509Y-108492847D01*
X138960147Y-108639209D01*
X138788041Y-108754207D01*
X138596808Y-108833418D01*
X138393795Y-108873800D01*
X138186805Y-108873800D01*
X137983792Y-108833418D01*
X137792559Y-108754207D01*
X137620453Y-108639209D01*
X137474091Y-108492847D01*
X137359093Y-108320741D01*
X137279882Y-108129508D01*
X137239500Y-107926495D01*
X137239500Y-107719505D01*
X137279882Y-107516492D01*
X137359093Y-107325259D01*
X137474091Y-107153153D01*
X137620453Y-107006791D01*
X137792559Y-106891793D01*
X137983792Y-106812582D01*
X138186805Y-106772200D01*
X138393795Y-106772200D01*
X138596808Y-106812582D01*
X138596808Y-106812582D01*
G37*
G36*
X122135600Y-108153000D02*
G01*
X120834000Y-108153000D01*
X120834000Y-106851400D01*
X122135600Y-106851400D01*
X122135600Y-108153000D01*
X122135600Y-108153000D01*
G37*
G36*
X119035600Y-107353000D02*
G01*
X117434000Y-107353000D01*
X117434000Y-105651400D01*
X119035600Y-105651400D01*
X119035600Y-107353000D01*
X119035600Y-107353000D01*
G37*
G36*
X122135600Y-106153000D02*
G01*
X120834000Y-106153000D01*
X120834000Y-104851400D01*
X122135600Y-104851400D01*
X122135600Y-106153000D01*
X122135600Y-106153000D01*
G37*
G36*
X126802984Y-104838204D02*
G01*
X126847491Y-104851705D01*
X126888512Y-104873631D01*
X126924464Y-104903136D01*
X126953969Y-104939088D01*
X126975895Y-104980109D01*
X126989396Y-105024616D01*
X126994200Y-105073393D01*
X126994200Y-105645007D01*
X126989396Y-105693784D01*
X126975895Y-105738291D01*
X126953969Y-105779312D01*
X126924464Y-105815264D01*
X126888512Y-105844769D01*
X126847491Y-105866695D01*
X126802984Y-105880196D01*
X126754207Y-105885000D01*
X126082593Y-105885000D01*
X126033816Y-105880196D01*
X125989309Y-105866695D01*
X125948288Y-105844769D01*
X125912336Y-105815264D01*
X125882831Y-105779312D01*
X125860905Y-105738291D01*
X125847404Y-105693784D01*
X125842600Y-105645007D01*
X125842600Y-105073393D01*
X125847404Y-105024616D01*
X125860905Y-104980109D01*
X125882831Y-104939088D01*
X125912336Y-104903136D01*
X125948288Y-104873631D01*
X125989309Y-104851705D01*
X126033816Y-104838204D01*
X126082593Y-104833400D01*
X126754207Y-104833400D01*
X126802984Y-104838204D01*
X126802984Y-104838204D01*
G37*
G36*
X128552984Y-104838204D02*
G01*
X128597491Y-104851705D01*
X128638512Y-104873631D01*
X128674464Y-104903136D01*
X128703969Y-104939088D01*
X128725895Y-104980109D01*
X128739396Y-105024616D01*
X128744200Y-105073393D01*
X128744200Y-105645007D01*
X128739396Y-105693784D01*
X128725895Y-105738291D01*
X128703969Y-105779312D01*
X128674464Y-105815264D01*
X128638512Y-105844769D01*
X128597491Y-105866695D01*
X128552984Y-105880196D01*
X128504207Y-105885000D01*
X127832593Y-105885000D01*
X127783816Y-105880196D01*
X127739309Y-105866695D01*
X127698288Y-105844769D01*
X127662336Y-105815264D01*
X127632831Y-105779312D01*
X127610905Y-105738291D01*
X127597404Y-105693784D01*
X127592600Y-105645007D01*
X127592600Y-105073393D01*
X127597404Y-105024616D01*
X127610905Y-104980109D01*
X127632831Y-104939088D01*
X127662336Y-104903136D01*
X127698288Y-104873631D01*
X127739309Y-104851705D01*
X127783816Y-104838204D01*
X127832593Y-104833400D01*
X128504207Y-104833400D01*
X128552984Y-104838204D01*
X128552984Y-104838204D01*
G37*
G36*
X112873430Y-103059189D02*
G01*
X113110160Y-103157245D01*
X113323213Y-103299603D01*
X113504397Y-103480787D01*
X113646755Y-103693840D01*
X113744811Y-103930570D01*
X113794800Y-104181882D01*
X113794800Y-104438118D01*
X113744811Y-104689430D01*
X113646755Y-104926160D01*
X113504397Y-105139213D01*
X113323213Y-105320397D01*
X113110160Y-105462755D01*
X112873430Y-105560811D01*
X112622118Y-105610800D01*
X112365882Y-105610800D01*
X112114570Y-105560811D01*
X111877840Y-105462755D01*
X111664787Y-105320397D01*
X111483603Y-105139213D01*
X111341245Y-104926160D01*
X111243189Y-104689430D01*
X111193200Y-104438118D01*
X111193200Y-104181882D01*
X111243189Y-103930570D01*
X111341245Y-103693840D01*
X111483603Y-103480787D01*
X111664787Y-103299603D01*
X111877840Y-103157245D01*
X112114570Y-103059189D01*
X112365882Y-103009200D01*
X112622118Y-103009200D01*
X112873430Y-103059189D01*
X112873430Y-103059189D01*
G37*
G36*
X109373430Y-103059189D02*
G01*
X109610160Y-103157245D01*
X109823213Y-103299603D01*
X110004397Y-103480787D01*
X110146755Y-103693840D01*
X110244811Y-103930570D01*
X110294800Y-104181882D01*
X110294800Y-104438118D01*
X110244811Y-104689430D01*
X110146755Y-104926160D01*
X110004397Y-105139213D01*
X109823213Y-105320397D01*
X109610160Y-105462755D01*
X109373430Y-105560811D01*
X109122118Y-105610800D01*
X108865882Y-105610800D01*
X108614570Y-105560811D01*
X108377840Y-105462755D01*
X108164787Y-105320397D01*
X107983603Y-105139213D01*
X107841245Y-104926160D01*
X107743189Y-104689430D01*
X107693200Y-104438118D01*
X107693200Y-104181882D01*
X107743189Y-103930570D01*
X107841245Y-103693840D01*
X107983603Y-103480787D01*
X108164787Y-103299603D01*
X108377840Y-103157245D01*
X108614570Y-103059189D01*
X108865882Y-103009200D01*
X109122118Y-103009200D01*
X109373430Y-103059189D01*
X109373430Y-103059189D01*
G37*
G36*
X137646984Y-103745504D02*
G01*
X137691491Y-103759005D01*
X137732512Y-103780931D01*
X137768464Y-103810436D01*
X137797969Y-103846388D01*
X137819895Y-103887409D01*
X137833396Y-103931916D01*
X137838200Y-103980693D01*
X137838200Y-104652307D01*
X137833396Y-104701084D01*
X137819895Y-104745591D01*
X137797969Y-104786612D01*
X137768464Y-104822564D01*
X137732512Y-104852069D01*
X137691491Y-104873995D01*
X137646984Y-104887496D01*
X137598207Y-104892300D01*
X137026593Y-104892300D01*
X136977816Y-104887496D01*
X136933309Y-104873995D01*
X136892288Y-104852069D01*
X136856336Y-104822564D01*
X136826831Y-104786612D01*
X136804905Y-104745591D01*
X136791404Y-104701084D01*
X136786600Y-104652307D01*
X136786600Y-103980693D01*
X136791404Y-103931916D01*
X136804905Y-103887409D01*
X136826831Y-103846388D01*
X136856336Y-103810436D01*
X136892288Y-103780931D01*
X136933309Y-103759005D01*
X136977816Y-103745504D01*
X137026593Y-103740700D01*
X137598207Y-103740700D01*
X137646984Y-103745504D01*
X137646984Y-103745504D01*
G37*
G36*
X135767384Y-103745504D02*
G01*
X135811891Y-103759005D01*
X135852912Y-103780931D01*
X135888864Y-103810436D01*
X135918369Y-103846388D01*
X135940295Y-103887409D01*
X135953796Y-103931916D01*
X135958600Y-103980693D01*
X135958600Y-104652307D01*
X135953796Y-104701084D01*
X135940295Y-104745591D01*
X135918369Y-104786612D01*
X135888864Y-104822564D01*
X135852912Y-104852069D01*
X135811891Y-104873995D01*
X135767384Y-104887496D01*
X135718607Y-104892300D01*
X135146993Y-104892300D01*
X135098216Y-104887496D01*
X135053709Y-104873995D01*
X135012688Y-104852069D01*
X134976736Y-104822564D01*
X134947231Y-104786612D01*
X134925305Y-104745591D01*
X134911804Y-104701084D01*
X134907000Y-104652307D01*
X134907000Y-103980693D01*
X134911804Y-103931916D01*
X134925305Y-103887409D01*
X134947231Y-103846388D01*
X134976736Y-103810436D01*
X135012688Y-103780931D01*
X135053709Y-103759005D01*
X135098216Y-103745504D01*
X135146993Y-103740700D01*
X135718607Y-103740700D01*
X135767384Y-103745504D01*
X135767384Y-103745504D01*
G37*
G36*
X130509584Y-103693404D02*
G01*
X130554091Y-103706905D01*
X130595112Y-103728831D01*
X130631064Y-103758336D01*
X130660569Y-103794288D01*
X130682495Y-103835309D01*
X130695996Y-103879816D01*
X130700800Y-103928593D01*
X130700800Y-104600207D01*
X130695996Y-104648984D01*
X130682495Y-104693491D01*
X130660569Y-104734512D01*
X130631064Y-104770464D01*
X130595112Y-104799969D01*
X130554091Y-104821895D01*
X130509584Y-104835396D01*
X130460807Y-104840200D01*
X129889193Y-104840200D01*
X129840416Y-104835396D01*
X129795909Y-104821895D01*
X129754888Y-104799969D01*
X129718936Y-104770464D01*
X129689431Y-104734512D01*
X129667505Y-104693491D01*
X129654004Y-104648984D01*
X129649200Y-104600207D01*
X129649200Y-103928593D01*
X129654004Y-103879816D01*
X129667505Y-103835309D01*
X129689431Y-103794288D01*
X129718936Y-103758336D01*
X129754888Y-103728831D01*
X129795909Y-103706905D01*
X129840416Y-103693404D01*
X129889193Y-103688600D01*
X130460807Y-103688600D01*
X130509584Y-103693404D01*
X130509584Y-103693404D01*
G37*
G36*
X118395584Y-102755404D02*
G01*
X118440091Y-102768905D01*
X118481112Y-102790831D01*
X118517064Y-102820336D01*
X118546569Y-102856288D01*
X118568495Y-102897309D01*
X118581996Y-102941816D01*
X118586800Y-102990593D01*
X118586800Y-103562207D01*
X118581996Y-103610984D01*
X118568495Y-103655491D01*
X118546569Y-103696512D01*
X118517064Y-103732464D01*
X118481112Y-103761969D01*
X118440091Y-103783895D01*
X118395584Y-103797396D01*
X118346807Y-103802200D01*
X117675193Y-103802200D01*
X117626416Y-103797396D01*
X117581909Y-103783895D01*
X117540888Y-103761969D01*
X117504936Y-103732464D01*
X117475431Y-103696512D01*
X117453505Y-103655491D01*
X117440004Y-103610984D01*
X117435200Y-103562207D01*
X117435200Y-102990593D01*
X117440004Y-102941816D01*
X117453505Y-102897309D01*
X117475431Y-102856288D01*
X117504936Y-102820336D01*
X117540888Y-102790831D01*
X117581909Y-102768905D01*
X117626416Y-102755404D01*
X117675193Y-102750600D01*
X118346807Y-102750600D01*
X118395584Y-102755404D01*
X118395584Y-102755404D01*
G37*
G36*
X120145584Y-102755404D02*
G01*
X120190091Y-102768905D01*
X120231112Y-102790831D01*
X120267064Y-102820336D01*
X120296569Y-102856288D01*
X120318495Y-102897309D01*
X120331996Y-102941816D01*
X120336800Y-102990593D01*
X120336800Y-103562207D01*
X120331996Y-103610984D01*
X120318495Y-103655491D01*
X120296569Y-103696512D01*
X120267064Y-103732464D01*
X120231112Y-103761969D01*
X120190091Y-103783895D01*
X120145584Y-103797396D01*
X120096807Y-103802200D01*
X119425193Y-103802200D01*
X119376416Y-103797396D01*
X119331909Y-103783895D01*
X119290888Y-103761969D01*
X119254936Y-103732464D01*
X119225431Y-103696512D01*
X119203505Y-103655491D01*
X119190004Y-103610984D01*
X119185200Y-103562207D01*
X119185200Y-102990593D01*
X119190004Y-102941816D01*
X119203505Y-102897309D01*
X119225431Y-102856288D01*
X119254936Y-102820336D01*
X119290888Y-102790831D01*
X119331909Y-102768905D01*
X119376416Y-102755404D01*
X119425193Y-102750600D01*
X120096807Y-102750600D01*
X120145584Y-102755404D01*
X120145584Y-102755404D01*
G37*
G36*
X123848200Y-103576400D02*
G01*
X121746600Y-103576400D01*
X121746600Y-102874800D01*
X123848200Y-102874800D01*
X123848200Y-103576400D01*
X123848200Y-103576400D01*
G37*
G36*
X128748200Y-103576400D02*
G01*
X126646600Y-103576400D01*
X126646600Y-102874800D01*
X128748200Y-102874800D01*
X128748200Y-103576400D01*
X128748200Y-103576400D01*
G37*
G36*
X137646984Y-101995504D02*
G01*
X137691491Y-102009005D01*
X137732512Y-102030931D01*
X137768464Y-102060436D01*
X137797969Y-102096388D01*
X137819895Y-102137409D01*
X137833396Y-102181916D01*
X137838200Y-102230693D01*
X137838200Y-102902307D01*
X137833396Y-102951084D01*
X137819895Y-102995591D01*
X137797969Y-103036612D01*
X137768464Y-103072564D01*
X137732512Y-103102069D01*
X137691491Y-103123995D01*
X137646984Y-103137496D01*
X137598207Y-103142300D01*
X137026593Y-103142300D01*
X136977816Y-103137496D01*
X136933309Y-103123995D01*
X136892288Y-103102069D01*
X136856336Y-103072564D01*
X136826831Y-103036612D01*
X136804905Y-102995591D01*
X136791404Y-102951084D01*
X136786600Y-102902307D01*
X136786600Y-102230693D01*
X136791404Y-102181916D01*
X136804905Y-102137409D01*
X136826831Y-102096388D01*
X136856336Y-102060436D01*
X136892288Y-102030931D01*
X136933309Y-102009005D01*
X136977816Y-101995504D01*
X137026593Y-101990700D01*
X137598207Y-101990700D01*
X137646984Y-101995504D01*
X137646984Y-101995504D01*
G37*
G36*
X135767384Y-101995504D02*
G01*
X135811891Y-102009005D01*
X135852912Y-102030931D01*
X135888864Y-102060436D01*
X135918369Y-102096388D01*
X135940295Y-102137409D01*
X135953796Y-102181916D01*
X135958600Y-102230693D01*
X135958600Y-102902307D01*
X135953796Y-102951084D01*
X135940295Y-102995591D01*
X135918369Y-103036612D01*
X135888864Y-103072564D01*
X135852912Y-103102069D01*
X135811891Y-103123995D01*
X135767384Y-103137496D01*
X135718607Y-103142300D01*
X135146993Y-103142300D01*
X135098216Y-103137496D01*
X135053709Y-103123995D01*
X135012688Y-103102069D01*
X134976736Y-103072564D01*
X134947231Y-103036612D01*
X134925305Y-102995591D01*
X134911804Y-102951084D01*
X134907000Y-102902307D01*
X134907000Y-102230693D01*
X134911804Y-102181916D01*
X134925305Y-102137409D01*
X134947231Y-102096388D01*
X134976736Y-102060436D01*
X135012688Y-102030931D01*
X135053709Y-102009005D01*
X135098216Y-101995504D01*
X135146993Y-101990700D01*
X135718607Y-101990700D01*
X135767384Y-101995504D01*
X135767384Y-101995504D01*
G37*
G36*
X130509584Y-101943404D02*
G01*
X130554091Y-101956905D01*
X130595112Y-101978831D01*
X130631064Y-102008336D01*
X130660569Y-102044288D01*
X130682495Y-102085309D01*
X130695996Y-102129816D01*
X130700800Y-102178593D01*
X130700800Y-102850207D01*
X130695996Y-102898984D01*
X130682495Y-102943491D01*
X130660569Y-102984512D01*
X130631064Y-103020464D01*
X130595112Y-103049969D01*
X130554091Y-103071895D01*
X130509584Y-103085396D01*
X130460807Y-103090200D01*
X129889193Y-103090200D01*
X129840416Y-103085396D01*
X129795909Y-103071895D01*
X129754888Y-103049969D01*
X129718936Y-103020464D01*
X129689431Y-102984512D01*
X129667505Y-102943491D01*
X129654004Y-102898984D01*
X129649200Y-102850207D01*
X129649200Y-102178593D01*
X129654004Y-102129816D01*
X129667505Y-102085309D01*
X129689431Y-102044288D01*
X129718936Y-102008336D01*
X129754888Y-101978831D01*
X129795909Y-101956905D01*
X129840416Y-101943404D01*
X129889193Y-101938600D01*
X130460807Y-101938600D01*
X130509584Y-101943404D01*
X130509584Y-101943404D01*
G37*
G36*
X156338761Y-100548346D02*
G01*
X156557291Y-100638864D01*
X156753967Y-100770279D01*
X156921221Y-100937533D01*
X157052636Y-101134209D01*
X157143154Y-101352739D01*
X157189300Y-101584731D01*
X157189300Y-101821269D01*
X157143154Y-102053261D01*
X157052636Y-102271791D01*
X156921221Y-102468467D01*
X156753967Y-102635721D01*
X156557291Y-102767136D01*
X156338761Y-102857654D01*
X156106769Y-102903800D01*
X155870231Y-102903800D01*
X155638239Y-102857654D01*
X155419709Y-102767136D01*
X155223033Y-102635721D01*
X155055779Y-102468467D01*
X154924364Y-102271791D01*
X154833846Y-102053261D01*
X154787700Y-101821269D01*
X154787700Y-101584731D01*
X154833846Y-101352739D01*
X154924364Y-101134209D01*
X155055779Y-100937533D01*
X155223033Y-100770279D01*
X155419709Y-100638864D01*
X155638239Y-100548346D01*
X155870231Y-100502200D01*
X156106769Y-100502200D01*
X156338761Y-100548346D01*
X156338761Y-100548346D01*
G37*
G36*
X168338761Y-100548346D02*
G01*
X168557291Y-100638864D01*
X168753967Y-100770279D01*
X168921221Y-100937533D01*
X169052636Y-101134209D01*
X169143154Y-101352739D01*
X169189300Y-101584731D01*
X169189300Y-101821269D01*
X169143154Y-102053261D01*
X169052636Y-102271791D01*
X168921221Y-102468467D01*
X168753967Y-102635721D01*
X168557291Y-102767136D01*
X168338761Y-102857654D01*
X168106769Y-102903800D01*
X167870231Y-102903800D01*
X167638239Y-102857654D01*
X167419709Y-102767136D01*
X167223033Y-102635721D01*
X167055779Y-102468467D01*
X166924364Y-102271791D01*
X166833846Y-102053261D01*
X166787700Y-101821269D01*
X166787700Y-101584731D01*
X166833846Y-101352739D01*
X166924364Y-101134209D01*
X167055779Y-100937533D01*
X167223033Y-100770279D01*
X167419709Y-100638864D01*
X167638239Y-100548346D01*
X167870231Y-100502200D01*
X168106769Y-100502200D01*
X168338761Y-100548346D01*
X168338761Y-100548346D01*
G37*
G36*
X151528800Y-102670800D02*
G01*
X150477200Y-102670800D01*
X150477200Y-101669200D01*
X151528800Y-101669200D01*
X151528800Y-102670800D01*
X151528800Y-102670800D01*
G37*
G36*
X123848200Y-102306400D02*
G01*
X121746600Y-102306400D01*
X121746600Y-101604800D01*
X123848200Y-101604800D01*
X123848200Y-102306400D01*
X123848200Y-102306400D01*
G37*
G36*
X128748200Y-102306400D02*
G01*
X126646600Y-102306400D01*
X126646600Y-101604800D01*
X128748200Y-101604800D01*
X128748200Y-102306400D01*
X128748200Y-102306400D01*
G37*
G36*
X112873430Y-99559189D02*
G01*
X113110160Y-99657245D01*
X113323213Y-99799603D01*
X113504397Y-99980787D01*
X113646755Y-100193840D01*
X113744811Y-100430570D01*
X113794800Y-100681882D01*
X113794800Y-100938118D01*
X113744811Y-101189430D01*
X113646755Y-101426160D01*
X113504397Y-101639213D01*
X113323213Y-101820397D01*
X113110160Y-101962755D01*
X112873430Y-102060811D01*
X112622118Y-102110800D01*
X112365882Y-102110800D01*
X112114570Y-102060811D01*
X111877840Y-101962755D01*
X111664787Y-101820397D01*
X111483603Y-101639213D01*
X111341245Y-101426160D01*
X111243189Y-101189430D01*
X111193200Y-100938118D01*
X111193200Y-100681882D01*
X111243189Y-100430570D01*
X111341245Y-100193840D01*
X111483603Y-99980787D01*
X111664787Y-99799603D01*
X111877840Y-99657245D01*
X112114570Y-99559189D01*
X112365882Y-99509200D01*
X112622118Y-99509200D01*
X112873430Y-99559189D01*
X112873430Y-99559189D01*
G37*
G36*
X109373430Y-99559189D02*
G01*
X109610160Y-99657245D01*
X109823213Y-99799603D01*
X110004397Y-99980787D01*
X110146755Y-100193840D01*
X110244811Y-100430570D01*
X110294800Y-100681882D01*
X110294800Y-100938118D01*
X110244811Y-101189430D01*
X110146755Y-101426160D01*
X110004397Y-101639213D01*
X109823213Y-101820397D01*
X109610160Y-101962755D01*
X109373430Y-102060811D01*
X109122118Y-102110800D01*
X108865882Y-102110800D01*
X108614570Y-102060811D01*
X108377840Y-101962755D01*
X108164787Y-101820397D01*
X107983603Y-101639213D01*
X107841245Y-101426160D01*
X107743189Y-101189430D01*
X107693200Y-100938118D01*
X107693200Y-100681882D01*
X107743189Y-100430570D01*
X107841245Y-100193840D01*
X107983603Y-99980787D01*
X108164787Y-99799603D01*
X108377840Y-99657245D01*
X108614570Y-99559189D01*
X108865882Y-99509200D01*
X109122118Y-99509200D01*
X109373430Y-99559189D01*
X109373430Y-99559189D01*
G37*
G36*
X146393100Y-102107200D02*
G01*
X144953100Y-102107200D01*
X144953100Y-101367200D01*
X146393100Y-101367200D01*
X146393100Y-102107200D01*
X146393100Y-102107200D01*
G37*
G36*
X141973500Y-102094500D02*
G01*
X140533500Y-102094500D01*
X140533500Y-101354500D01*
X141973500Y-101354500D01*
X141973500Y-102094500D01*
X141973500Y-102094500D01*
G37*
G36*
X137620784Y-100228104D02*
G01*
X137665291Y-100241605D01*
X137706312Y-100263531D01*
X137742264Y-100293036D01*
X137771769Y-100328988D01*
X137793695Y-100370009D01*
X137807196Y-100414516D01*
X137812000Y-100463293D01*
X137812000Y-101034907D01*
X137807196Y-101083684D01*
X137793695Y-101128191D01*
X137771769Y-101169212D01*
X137742264Y-101205164D01*
X137706312Y-101234669D01*
X137665291Y-101256595D01*
X137620784Y-101270096D01*
X137572007Y-101274900D01*
X136900393Y-101274900D01*
X136851616Y-101270096D01*
X136807109Y-101256595D01*
X136766088Y-101234669D01*
X136730136Y-101205164D01*
X136700631Y-101169212D01*
X136678705Y-101128191D01*
X136665204Y-101083684D01*
X136660400Y-101034907D01*
X136660400Y-100463293D01*
X136665204Y-100414516D01*
X136678705Y-100370009D01*
X136700631Y-100328988D01*
X136730136Y-100293036D01*
X136766088Y-100263531D01*
X136807109Y-100241605D01*
X136851616Y-100228104D01*
X136900393Y-100223300D01*
X137572007Y-100223300D01*
X137620784Y-100228104D01*
X137620784Y-100228104D01*
G37*
G36*
X135870784Y-100228104D02*
G01*
X135915291Y-100241605D01*
X135956312Y-100263531D01*
X135992264Y-100293036D01*
X136021769Y-100328988D01*
X136043695Y-100370009D01*
X136057196Y-100414516D01*
X136062000Y-100463293D01*
X136062000Y-101034907D01*
X136057196Y-101083684D01*
X136043695Y-101128191D01*
X136021769Y-101169212D01*
X135992264Y-101205164D01*
X135956312Y-101234669D01*
X135915291Y-101256595D01*
X135870784Y-101270096D01*
X135822007Y-101274900D01*
X135150393Y-101274900D01*
X135101616Y-101270096D01*
X135057109Y-101256595D01*
X135016088Y-101234669D01*
X134980136Y-101205164D01*
X134950631Y-101169212D01*
X134928705Y-101128191D01*
X134915204Y-101083684D01*
X134910400Y-101034907D01*
X134910400Y-100463293D01*
X134915204Y-100414516D01*
X134928705Y-100370009D01*
X134950631Y-100328988D01*
X134980136Y-100293036D01*
X135016088Y-100263531D01*
X135057109Y-100241605D01*
X135101616Y-100228104D01*
X135150393Y-100223300D01*
X135822007Y-100223300D01*
X135870784Y-100228104D01*
X135870784Y-100228104D01*
G37*
G36*
X118395584Y-100215404D02*
G01*
X118440091Y-100228905D01*
X118481112Y-100250831D01*
X118517064Y-100280336D01*
X118546569Y-100316288D01*
X118568495Y-100357309D01*
X118581996Y-100401816D01*
X118586800Y-100450593D01*
X118586800Y-101022207D01*
X118581996Y-101070984D01*
X118568495Y-101115491D01*
X118546569Y-101156512D01*
X118517064Y-101192464D01*
X118481112Y-101221969D01*
X118440091Y-101243895D01*
X118395584Y-101257396D01*
X118346807Y-101262200D01*
X117675193Y-101262200D01*
X117626416Y-101257396D01*
X117581909Y-101243895D01*
X117540888Y-101221969D01*
X117504936Y-101192464D01*
X117475431Y-101156512D01*
X117453505Y-101115491D01*
X117440004Y-101070984D01*
X117435200Y-101022207D01*
X117435200Y-100450593D01*
X117440004Y-100401816D01*
X117453505Y-100357309D01*
X117475431Y-100316288D01*
X117504936Y-100280336D01*
X117540888Y-100250831D01*
X117581909Y-100228905D01*
X117626416Y-100215404D01*
X117675193Y-100210600D01*
X118346807Y-100210600D01*
X118395584Y-100215404D01*
X118395584Y-100215404D01*
G37*
G36*
X120145584Y-100215404D02*
G01*
X120190091Y-100228905D01*
X120231112Y-100250831D01*
X120267064Y-100280336D01*
X120296569Y-100316288D01*
X120318495Y-100357309D01*
X120331996Y-100401816D01*
X120336800Y-100450593D01*
X120336800Y-101022207D01*
X120331996Y-101070984D01*
X120318495Y-101115491D01*
X120296569Y-101156512D01*
X120267064Y-101192464D01*
X120231112Y-101221969D01*
X120190091Y-101243895D01*
X120145584Y-101257396D01*
X120096807Y-101262200D01*
X119425193Y-101262200D01*
X119376416Y-101257396D01*
X119331909Y-101243895D01*
X119290888Y-101221969D01*
X119254936Y-101192464D01*
X119225431Y-101156512D01*
X119203505Y-101115491D01*
X119190004Y-101070984D01*
X119185200Y-101022207D01*
X119185200Y-100450593D01*
X119190004Y-100401816D01*
X119203505Y-100357309D01*
X119225431Y-100316288D01*
X119254936Y-100280336D01*
X119290888Y-100250831D01*
X119331909Y-100228905D01*
X119376416Y-100215404D01*
X119425193Y-100210600D01*
X120096807Y-100210600D01*
X120145584Y-100215404D01*
X120145584Y-100215404D01*
G37*
G36*
X130534984Y-100114604D02*
G01*
X130579491Y-100128105D01*
X130620512Y-100150031D01*
X130656464Y-100179536D01*
X130685969Y-100215488D01*
X130707895Y-100256509D01*
X130721396Y-100301016D01*
X130726200Y-100349793D01*
X130726200Y-101021407D01*
X130721396Y-101070184D01*
X130707895Y-101114691D01*
X130685969Y-101155712D01*
X130656464Y-101191664D01*
X130620512Y-101221169D01*
X130579491Y-101243095D01*
X130534984Y-101256596D01*
X130486207Y-101261400D01*
X129914593Y-101261400D01*
X129865816Y-101256596D01*
X129821309Y-101243095D01*
X129780288Y-101221169D01*
X129744336Y-101191664D01*
X129714831Y-101155712D01*
X129692905Y-101114691D01*
X129679404Y-101070184D01*
X129674600Y-101021407D01*
X129674600Y-100349793D01*
X129679404Y-100301016D01*
X129692905Y-100256509D01*
X129714831Y-100215488D01*
X129744336Y-100179536D01*
X129780288Y-100150031D01*
X129821309Y-100128105D01*
X129865816Y-100114604D01*
X129914593Y-100109800D01*
X130486207Y-100109800D01*
X130534984Y-100114604D01*
X130534984Y-100114604D01*
G37*
G36*
X132414584Y-100112004D02*
G01*
X132459091Y-100125505D01*
X132500112Y-100147431D01*
X132536064Y-100176936D01*
X132565569Y-100212888D01*
X132587495Y-100253909D01*
X132600996Y-100298416D01*
X132605800Y-100347193D01*
X132605800Y-101018807D01*
X132600996Y-101067584D01*
X132587495Y-101112091D01*
X132565569Y-101153112D01*
X132536064Y-101189064D01*
X132500112Y-101218569D01*
X132459091Y-101240495D01*
X132414584Y-101253996D01*
X132365807Y-101258800D01*
X131794193Y-101258800D01*
X131745416Y-101253996D01*
X131700909Y-101240495D01*
X131659888Y-101218569D01*
X131623936Y-101189064D01*
X131594431Y-101153112D01*
X131572505Y-101112091D01*
X131559004Y-101067584D01*
X131554200Y-101018807D01*
X131554200Y-100347193D01*
X131559004Y-100298416D01*
X131572505Y-100253909D01*
X131594431Y-100212888D01*
X131623936Y-100176936D01*
X131659888Y-100147431D01*
X131700909Y-100125505D01*
X131745416Y-100112004D01*
X131794193Y-100107200D01*
X132365807Y-100107200D01*
X132414584Y-100112004D01*
X132414584Y-100112004D01*
G37*
G36*
X148493100Y-101157200D02*
G01*
X147053100Y-101157200D01*
X147053100Y-100417200D01*
X148493100Y-100417200D01*
X148493100Y-101157200D01*
X148493100Y-101157200D01*
G37*
G36*
X144073500Y-101144500D02*
G01*
X142633500Y-101144500D01*
X142633500Y-100404500D01*
X144073500Y-100404500D01*
X144073500Y-101144500D01*
X144073500Y-101144500D01*
G37*
G36*
X128748200Y-101036400D02*
G01*
X126646600Y-101036400D01*
X126646600Y-100334800D01*
X128748200Y-100334800D01*
X128748200Y-101036400D01*
X128748200Y-101036400D01*
G37*
G36*
X123848200Y-101036400D02*
G01*
X121746600Y-101036400D01*
X121746600Y-100334800D01*
X123848200Y-100334800D01*
X123848200Y-101036400D01*
X123848200Y-101036400D01*
G37*
G36*
X146393100Y-100207200D02*
G01*
X144953100Y-100207200D01*
X144953100Y-99467200D01*
X146393100Y-99467200D01*
X146393100Y-100207200D01*
X146393100Y-100207200D01*
G37*
G36*
X141973500Y-100194500D02*
G01*
X140533500Y-100194500D01*
X140533500Y-99454500D01*
X141973500Y-99454500D01*
X141973500Y-100194500D01*
X141973500Y-100194500D01*
G37*
G36*
X128748200Y-99766400D02*
G01*
X126646600Y-99766400D01*
X126646600Y-99064800D01*
X128748200Y-99064800D01*
X128748200Y-99766400D01*
X128748200Y-99766400D01*
G37*
G36*
X123848200Y-99766400D02*
G01*
X121746600Y-99766400D01*
X121746600Y-99064800D01*
X123848200Y-99064800D01*
X123848200Y-99766400D01*
X123848200Y-99766400D01*
G37*
G36*
X120145584Y-98488204D02*
G01*
X120190091Y-98501705D01*
X120231112Y-98523631D01*
X120267064Y-98553136D01*
X120296569Y-98589088D01*
X120318495Y-98630109D01*
X120331996Y-98674616D01*
X120336800Y-98723393D01*
X120336800Y-99295007D01*
X120331996Y-99343784D01*
X120318495Y-99388291D01*
X120296569Y-99429312D01*
X120267064Y-99465264D01*
X120231112Y-99494769D01*
X120190091Y-99516695D01*
X120145584Y-99530196D01*
X120096807Y-99535000D01*
X119425193Y-99535000D01*
X119376416Y-99530196D01*
X119331909Y-99516695D01*
X119290888Y-99494769D01*
X119254936Y-99465264D01*
X119225431Y-99429312D01*
X119203505Y-99388291D01*
X119190004Y-99343784D01*
X119185200Y-99295007D01*
X119185200Y-98723393D01*
X119190004Y-98674616D01*
X119203505Y-98630109D01*
X119225431Y-98589088D01*
X119254936Y-98553136D01*
X119290888Y-98523631D01*
X119331909Y-98501705D01*
X119376416Y-98488204D01*
X119425193Y-98483400D01*
X120096807Y-98483400D01*
X120145584Y-98488204D01*
X120145584Y-98488204D01*
G37*
G36*
X118395584Y-98488204D02*
G01*
X118440091Y-98501705D01*
X118481112Y-98523631D01*
X118517064Y-98553136D01*
X118546569Y-98589088D01*
X118568495Y-98630109D01*
X118581996Y-98674616D01*
X118586800Y-98723393D01*
X118586800Y-99295007D01*
X118581996Y-99343784D01*
X118568495Y-99388291D01*
X118546569Y-99429312D01*
X118517064Y-99465264D01*
X118481112Y-99494769D01*
X118440091Y-99516695D01*
X118395584Y-99530196D01*
X118346807Y-99535000D01*
X117675193Y-99535000D01*
X117626416Y-99530196D01*
X117581909Y-99516695D01*
X117540888Y-99494769D01*
X117504936Y-99465264D01*
X117475431Y-99429312D01*
X117453505Y-99388291D01*
X117440004Y-99343784D01*
X117435200Y-99295007D01*
X117435200Y-98723393D01*
X117440004Y-98674616D01*
X117453505Y-98630109D01*
X117475431Y-98589088D01*
X117504936Y-98553136D01*
X117540888Y-98523631D01*
X117581909Y-98501705D01*
X117626416Y-98488204D01*
X117675193Y-98483400D01*
X118346807Y-98483400D01*
X118395584Y-98488204D01*
X118395584Y-98488204D01*
G37*
G36*
X130534984Y-98364604D02*
G01*
X130579491Y-98378105D01*
X130620512Y-98400031D01*
X130656464Y-98429536D01*
X130685969Y-98465488D01*
X130707895Y-98506509D01*
X130721396Y-98551016D01*
X130726200Y-98599793D01*
X130726200Y-99271407D01*
X130721396Y-99320184D01*
X130707895Y-99364691D01*
X130685969Y-99405712D01*
X130656464Y-99441664D01*
X130620512Y-99471169D01*
X130579491Y-99493095D01*
X130534984Y-99506596D01*
X130486207Y-99511400D01*
X129914593Y-99511400D01*
X129865816Y-99506596D01*
X129821309Y-99493095D01*
X129780288Y-99471169D01*
X129744336Y-99441664D01*
X129714831Y-99405712D01*
X129692905Y-99364691D01*
X129679404Y-99320184D01*
X129674600Y-99271407D01*
X129674600Y-98599793D01*
X129679404Y-98551016D01*
X129692905Y-98506509D01*
X129714831Y-98465488D01*
X129744336Y-98429536D01*
X129780288Y-98400031D01*
X129821309Y-98378105D01*
X129865816Y-98364604D01*
X129914593Y-98359800D01*
X130486207Y-98359800D01*
X130534984Y-98364604D01*
X130534984Y-98364604D01*
G37*
G36*
X132414584Y-98362004D02*
G01*
X132459091Y-98375505D01*
X132500112Y-98397431D01*
X132536064Y-98426936D01*
X132565569Y-98462888D01*
X132587495Y-98503909D01*
X132600996Y-98548416D01*
X132605800Y-98597193D01*
X132605800Y-99268807D01*
X132600996Y-99317584D01*
X132587495Y-99362091D01*
X132565569Y-99403112D01*
X132536064Y-99439064D01*
X132500112Y-99468569D01*
X132459091Y-99490495D01*
X132414584Y-99503996D01*
X132365807Y-99508800D01*
X131794193Y-99508800D01*
X131745416Y-99503996D01*
X131700909Y-99490495D01*
X131659888Y-99468569D01*
X131623936Y-99439064D01*
X131594431Y-99403112D01*
X131572505Y-99362091D01*
X131559004Y-99317584D01*
X131554200Y-99268807D01*
X131554200Y-98597193D01*
X131559004Y-98548416D01*
X131572505Y-98503909D01*
X131594431Y-98462888D01*
X131623936Y-98426936D01*
X131659888Y-98397431D01*
X131700909Y-98375505D01*
X131745416Y-98362004D01*
X131794193Y-98357200D01*
X132365807Y-98357200D01*
X132414584Y-98362004D01*
X132414584Y-98362004D01*
G37*
G36*
X136387000Y-98734500D02*
G01*
X135647000Y-98734500D01*
X135647000Y-97294500D01*
X136387000Y-97294500D01*
X136387000Y-98734500D01*
X136387000Y-98734500D01*
G37*
G36*
X109373430Y-96059189D02*
G01*
X109610160Y-96157245D01*
X109823213Y-96299603D01*
X110004397Y-96480787D01*
X110146755Y-96693840D01*
X110244811Y-96930570D01*
X110294800Y-97181882D01*
X110294800Y-97438118D01*
X110244811Y-97689430D01*
X110146755Y-97926160D01*
X110004397Y-98139213D01*
X109823213Y-98320397D01*
X109610160Y-98462755D01*
X109373430Y-98560811D01*
X109122118Y-98610800D01*
X108865882Y-98610800D01*
X108614570Y-98560811D01*
X108377840Y-98462755D01*
X108164787Y-98320397D01*
X107983603Y-98139213D01*
X107841245Y-97926160D01*
X107743189Y-97689430D01*
X107693200Y-97438118D01*
X107693200Y-97181882D01*
X107743189Y-96930570D01*
X107841245Y-96693840D01*
X107983603Y-96480787D01*
X108164787Y-96299603D01*
X108377840Y-96157245D01*
X108614570Y-96059189D01*
X108865882Y-96009200D01*
X109122118Y-96009200D01*
X109373430Y-96059189D01*
X109373430Y-96059189D01*
G37*
G36*
X112873430Y-96059189D02*
G01*
X113110160Y-96157245D01*
X113323213Y-96299603D01*
X113504397Y-96480787D01*
X113646755Y-96693840D01*
X113744811Y-96930570D01*
X113794800Y-97181882D01*
X113794800Y-97438118D01*
X113744811Y-97689430D01*
X113646755Y-97926160D01*
X113504397Y-98139213D01*
X113323213Y-98320397D01*
X113110160Y-98462755D01*
X112873430Y-98560811D01*
X112622118Y-98610800D01*
X112365882Y-98610800D01*
X112114570Y-98560811D01*
X111877840Y-98462755D01*
X111664787Y-98320397D01*
X111483603Y-98139213D01*
X111341245Y-97926160D01*
X111243189Y-97689430D01*
X111193200Y-97438118D01*
X111193200Y-97181882D01*
X111243189Y-96930570D01*
X111341245Y-96693840D01*
X111483603Y-96480787D01*
X111664787Y-96299603D01*
X111877840Y-96157245D01*
X112114570Y-96059189D01*
X112365882Y-96009200D01*
X112622118Y-96009200D01*
X112873430Y-96059189D01*
X112873430Y-96059189D01*
G37*
G36*
X144049584Y-97015004D02*
G01*
X144094091Y-97028505D01*
X144135112Y-97050431D01*
X144171064Y-97079936D01*
X144200569Y-97115888D01*
X144222495Y-97156909D01*
X144235996Y-97201416D01*
X144240800Y-97250193D01*
X144240800Y-97821807D01*
X144235996Y-97870584D01*
X144222495Y-97915091D01*
X144200569Y-97956112D01*
X144171064Y-97992064D01*
X144135112Y-98021569D01*
X144094091Y-98043495D01*
X144049584Y-98056996D01*
X144000807Y-98061800D01*
X143329193Y-98061800D01*
X143280416Y-98056996D01*
X143235909Y-98043495D01*
X143194888Y-98021569D01*
X143158936Y-97992064D01*
X143129431Y-97956112D01*
X143107505Y-97915091D01*
X143094004Y-97870584D01*
X143089200Y-97821807D01*
X143089200Y-97250193D01*
X143094004Y-97201416D01*
X143107505Y-97156909D01*
X143129431Y-97115888D01*
X143158936Y-97079936D01*
X143194888Y-97050431D01*
X143235909Y-97028505D01*
X143280416Y-97015004D01*
X143329193Y-97010200D01*
X144000807Y-97010200D01*
X144049584Y-97015004D01*
X144049584Y-97015004D01*
G37*
G36*
X145799584Y-97015004D02*
G01*
X145844091Y-97028505D01*
X145885112Y-97050431D01*
X145921064Y-97079936D01*
X145950569Y-97115888D01*
X145972495Y-97156909D01*
X145985996Y-97201416D01*
X145990800Y-97250193D01*
X145990800Y-97821807D01*
X145985996Y-97870584D01*
X145972495Y-97915091D01*
X145950569Y-97956112D01*
X145921064Y-97992064D01*
X145885112Y-98021569D01*
X145844091Y-98043495D01*
X145799584Y-98056996D01*
X145750807Y-98061800D01*
X145079193Y-98061800D01*
X145030416Y-98056996D01*
X144985909Y-98043495D01*
X144944888Y-98021569D01*
X144908936Y-97992064D01*
X144879431Y-97956112D01*
X144857505Y-97915091D01*
X144844004Y-97870584D01*
X144839200Y-97821807D01*
X144839200Y-97250193D01*
X144844004Y-97201416D01*
X144857505Y-97156909D01*
X144879431Y-97115888D01*
X144908936Y-97079936D01*
X144944888Y-97050431D01*
X144985909Y-97028505D01*
X145030416Y-97015004D01*
X145079193Y-97010200D01*
X145750807Y-97010200D01*
X145799584Y-97015004D01*
X145799584Y-97015004D01*
G37*
G36*
X126952784Y-96710204D02*
G01*
X126997291Y-96723705D01*
X127038312Y-96745631D01*
X127074264Y-96775136D01*
X127103769Y-96811088D01*
X127125695Y-96852109D01*
X127139196Y-96896616D01*
X127144000Y-96945393D01*
X127144000Y-97517007D01*
X127139196Y-97565784D01*
X127125695Y-97610291D01*
X127103769Y-97651312D01*
X127074264Y-97687264D01*
X127038312Y-97716769D01*
X126997291Y-97738695D01*
X126952784Y-97752196D01*
X126904007Y-97757000D01*
X126232393Y-97757000D01*
X126183616Y-97752196D01*
X126139109Y-97738695D01*
X126098088Y-97716769D01*
X126062136Y-97687264D01*
X126032631Y-97651312D01*
X126010705Y-97610291D01*
X125997204Y-97565784D01*
X125992400Y-97517007D01*
X125992400Y-96945393D01*
X125997204Y-96896616D01*
X126010705Y-96852109D01*
X126032631Y-96811088D01*
X126062136Y-96775136D01*
X126098088Y-96745631D01*
X126139109Y-96723705D01*
X126183616Y-96710204D01*
X126232393Y-96705400D01*
X126904007Y-96705400D01*
X126952784Y-96710204D01*
X126952784Y-96710204D01*
G37*
G36*
X128702784Y-96710204D02*
G01*
X128747291Y-96723705D01*
X128788312Y-96745631D01*
X128824264Y-96775136D01*
X128853769Y-96811088D01*
X128875695Y-96852109D01*
X128889196Y-96896616D01*
X128894000Y-96945393D01*
X128894000Y-97517007D01*
X128889196Y-97565784D01*
X128875695Y-97610291D01*
X128853769Y-97651312D01*
X128824264Y-97687264D01*
X128788312Y-97716769D01*
X128747291Y-97738695D01*
X128702784Y-97752196D01*
X128654007Y-97757000D01*
X127982393Y-97757000D01*
X127933616Y-97752196D01*
X127889109Y-97738695D01*
X127848088Y-97716769D01*
X127812136Y-97687264D01*
X127782631Y-97651312D01*
X127760705Y-97610291D01*
X127747204Y-97565784D01*
X127742400Y-97517007D01*
X127742400Y-96945393D01*
X127747204Y-96896616D01*
X127760705Y-96852109D01*
X127782631Y-96811088D01*
X127812136Y-96775136D01*
X127848088Y-96745631D01*
X127889109Y-96723705D01*
X127933616Y-96710204D01*
X127982393Y-96705400D01*
X128654007Y-96705400D01*
X128702784Y-96710204D01*
X128702784Y-96710204D01*
G37*
G36*
X151528800Y-97720800D02*
G01*
X150477200Y-97720800D01*
X150477200Y-96719200D01*
X151528800Y-96719200D01*
X151528800Y-97720800D01*
X151528800Y-97720800D01*
G37*
G36*
X123861300Y-97669300D02*
G01*
X123159700Y-97669300D01*
X123159700Y-96767700D01*
X123861300Y-96767700D01*
X123861300Y-97669300D01*
X123861300Y-97669300D01*
G37*
G36*
X122461300Y-97669300D02*
G01*
X121759700Y-97669300D01*
X121759700Y-96767700D01*
X122461300Y-96767700D01*
X122461300Y-97669300D01*
X122461300Y-97669300D01*
G37*
G36*
X119127708Y-95230182D02*
G01*
X119318941Y-95309393D01*
X119491047Y-95424391D01*
X119637409Y-95570753D01*
X119752407Y-95742859D01*
X119831618Y-95934092D01*
X119872000Y-96137105D01*
X119872000Y-96344095D01*
X119831618Y-96547108D01*
X119752407Y-96738341D01*
X119637409Y-96910447D01*
X119491047Y-97056809D01*
X119318941Y-97171807D01*
X119127708Y-97251018D01*
X118924695Y-97291400D01*
X118717705Y-97291400D01*
X118514692Y-97251018D01*
X118323459Y-97171807D01*
X118151353Y-97056809D01*
X118004991Y-96910447D01*
X117889993Y-96738341D01*
X117810782Y-96547108D01*
X117770400Y-96344095D01*
X117770400Y-96137105D01*
X117810782Y-95934092D01*
X117889993Y-95742859D01*
X118004991Y-95570753D01*
X118151353Y-95424391D01*
X118323459Y-95309393D01*
X118514692Y-95230182D01*
X118717705Y-95189800D01*
X118924695Y-95189800D01*
X119127708Y-95230182D01*
X119127708Y-95230182D01*
G37*
G36*
X137337000Y-96634500D02*
G01*
X136597000Y-96634500D01*
X136597000Y-95194500D01*
X137337000Y-95194500D01*
X137337000Y-96634500D01*
X137337000Y-96634500D01*
G37*
G36*
X135437000Y-96634500D02*
G01*
X134697000Y-96634500D01*
X134697000Y-95194500D01*
X135437000Y-95194500D01*
X135437000Y-96634500D01*
X135437000Y-96634500D01*
G37*
G36*
X112873430Y-92559189D02*
G01*
X113110160Y-92657245D01*
X113323213Y-92799603D01*
X113504397Y-92980787D01*
X113646755Y-93193840D01*
X113744811Y-93430570D01*
X113794800Y-93681882D01*
X113794800Y-93938118D01*
X113744811Y-94189430D01*
X113646755Y-94426160D01*
X113504397Y-94639213D01*
X113323213Y-94820397D01*
X113110160Y-94962755D01*
X112873430Y-95060811D01*
X112622118Y-95110800D01*
X112365882Y-95110800D01*
X112114570Y-95060811D01*
X111877840Y-94962755D01*
X111664787Y-94820397D01*
X111483603Y-94639213D01*
X111341245Y-94426160D01*
X111243189Y-94189430D01*
X111193200Y-93938118D01*
X111193200Y-93681882D01*
X111243189Y-93430570D01*
X111341245Y-93193840D01*
X111483603Y-92980787D01*
X111664787Y-92799603D01*
X111877840Y-92657245D01*
X112114570Y-92559189D01*
X112365882Y-92509200D01*
X112622118Y-92509200D01*
X112873430Y-92559189D01*
X112873430Y-92559189D01*
G37*
G36*
X109373430Y-92559189D02*
G01*
X109610160Y-92657245D01*
X109823213Y-92799603D01*
X110004397Y-92980787D01*
X110146755Y-93193840D01*
X110244811Y-93430570D01*
X110294800Y-93681882D01*
X110294800Y-93938118D01*
X110244811Y-94189430D01*
X110146755Y-94426160D01*
X110004397Y-94639213D01*
X109823213Y-94820397D01*
X109610160Y-94962755D01*
X109373430Y-95060811D01*
X109122118Y-95110800D01*
X108865882Y-95110800D01*
X108614570Y-95060811D01*
X108377840Y-94962755D01*
X108164787Y-94820397D01*
X107983603Y-94639213D01*
X107841245Y-94426160D01*
X107743189Y-94189430D01*
X107693200Y-93938118D01*
X107693200Y-93681882D01*
X107743189Y-93430570D01*
X107841245Y-93193840D01*
X107983603Y-92980787D01*
X108164787Y-92799603D01*
X108377840Y-92657245D01*
X108614570Y-92559189D01*
X108865882Y-92509200D01*
X109122118Y-92509200D01*
X109373430Y-92559189D01*
X109373430Y-92559189D01*
G37*
G36*
X141112800Y-93845800D02*
G01*
X139811200Y-93845800D01*
X139811200Y-92844200D01*
X141112800Y-92844200D01*
X141112800Y-93845800D01*
X141112800Y-93845800D01*
G37*
G36*
X122135600Y-93802000D02*
G01*
X120834000Y-93802000D01*
X120834000Y-92500400D01*
X122135600Y-92500400D01*
X122135600Y-93802000D01*
X122135600Y-93802000D01*
G37*
G36*
X138070800Y-93593800D02*
G01*
X136409200Y-93593800D01*
X136409200Y-92842200D01*
X138070800Y-92842200D01*
X138070800Y-93593800D01*
X138070800Y-93593800D01*
G37*
G36*
X135370800Y-93593800D02*
G01*
X133709200Y-93593800D01*
X133709200Y-92842200D01*
X135370800Y-92842200D01*
X135370800Y-93593800D01*
X135370800Y-93593800D01*
G37*
G36*
X144324508Y-91255082D02*
G01*
X144515741Y-91334293D01*
X144687847Y-91449291D01*
X144834209Y-91595653D01*
X144949207Y-91767759D01*
X145028418Y-91958992D01*
X145068800Y-92162005D01*
X145068800Y-92368995D01*
X145028418Y-92572008D01*
X144949207Y-92763241D01*
X144834209Y-92935347D01*
X144687847Y-93081709D01*
X144515741Y-93196707D01*
X144324508Y-93275918D01*
X144121495Y-93316300D01*
X143914505Y-93316300D01*
X143711492Y-93275918D01*
X143520259Y-93196707D01*
X143348153Y-93081709D01*
X143201791Y-92935347D01*
X143086793Y-92763241D01*
X143007582Y-92572008D01*
X142967200Y-92368995D01*
X142967200Y-92162005D01*
X143007582Y-91958992D01*
X143086793Y-91767759D01*
X143201791Y-91595653D01*
X143348153Y-91449291D01*
X143520259Y-91334293D01*
X143711492Y-91255082D01*
X143914505Y-91214700D01*
X144121495Y-91214700D01*
X144324508Y-91255082D01*
X144324508Y-91255082D01*
G37*
G36*
X119035600Y-93002000D02*
G01*
X117434000Y-93002000D01*
X117434000Y-91300400D01*
X119035600Y-91300400D01*
X119035600Y-93002000D01*
X119035600Y-93002000D01*
G37*
G36*
X135370800Y-92643800D02*
G01*
X133709200Y-92643800D01*
X133709200Y-91892200D01*
X135370800Y-91892200D01*
X135370800Y-92643800D01*
X135370800Y-92643800D01*
G37*
G36*
X122135600Y-91802000D02*
G01*
X120834000Y-91802000D01*
X120834000Y-90500400D01*
X122135600Y-90500400D01*
X122135600Y-91802000D01*
X122135600Y-91802000D01*
G37*
G36*
X138070800Y-91693800D02*
G01*
X136409200Y-91693800D01*
X136409200Y-90942200D01*
X138070800Y-90942200D01*
X138070800Y-91693800D01*
X138070800Y-91693800D01*
G37*
G36*
X135370800Y-91693800D02*
G01*
X133709200Y-91693800D01*
X133709200Y-90942200D01*
X135370800Y-90942200D01*
X135370800Y-91693800D01*
X135370800Y-91693800D01*
G37*
G36*
X112873430Y-89059189D02*
G01*
X113110160Y-89157245D01*
X113323213Y-89299603D01*
X113504397Y-89480787D01*
X113646755Y-89693840D01*
X113744811Y-89930570D01*
X113794800Y-90181882D01*
X113794800Y-90438118D01*
X113744811Y-90689430D01*
X113646755Y-90926160D01*
X113504397Y-91139213D01*
X113323213Y-91320397D01*
X113110160Y-91462755D01*
X112873430Y-91560811D01*
X112622118Y-91610800D01*
X112365882Y-91610800D01*
X112114570Y-91560811D01*
X111877840Y-91462755D01*
X111664787Y-91320397D01*
X111483603Y-91139213D01*
X111341245Y-90926160D01*
X111243189Y-90689430D01*
X111193200Y-90438118D01*
X111193200Y-90181882D01*
X111243189Y-89930570D01*
X111341245Y-89693840D01*
X111483603Y-89480787D01*
X111664787Y-89299603D01*
X111877840Y-89157245D01*
X112114570Y-89059189D01*
X112365882Y-89009200D01*
X112622118Y-89009200D01*
X112873430Y-89059189D01*
X112873430Y-89059189D01*
G37*
G36*
X109373430Y-89059189D02*
G01*
X109610160Y-89157245D01*
X109823213Y-89299603D01*
X110004397Y-89480787D01*
X110146755Y-89693840D01*
X110244811Y-89930570D01*
X110294800Y-90181882D01*
X110294800Y-90438118D01*
X110244811Y-90689430D01*
X110146755Y-90926160D01*
X110004397Y-91139213D01*
X109823213Y-91320397D01*
X109610160Y-91462755D01*
X109373430Y-91560811D01*
X109122118Y-91610800D01*
X108865882Y-91610800D01*
X108614570Y-91560811D01*
X108377840Y-91462755D01*
X108164787Y-91320397D01*
X107983603Y-91139213D01*
X107841245Y-90926160D01*
X107743189Y-90689430D01*
X107693200Y-90438118D01*
X107693200Y-90181882D01*
X107743189Y-89930570D01*
X107841245Y-89693840D01*
X107983603Y-89480787D01*
X108164787Y-89299603D01*
X108377840Y-89157245D01*
X108614570Y-89059189D01*
X108865882Y-89009200D01*
X109122118Y-89009200D01*
X109373430Y-89059189D01*
X109373430Y-89059189D01*
G37*
G36*
X126904584Y-90436404D02*
G01*
X126949091Y-90449905D01*
X126990112Y-90471831D01*
X127026064Y-90501336D01*
X127055569Y-90537288D01*
X127077495Y-90578309D01*
X127090996Y-90622816D01*
X127095800Y-90671593D01*
X127095800Y-91243207D01*
X127090996Y-91291984D01*
X127077495Y-91336491D01*
X127055569Y-91377512D01*
X127026064Y-91413464D01*
X126990112Y-91442969D01*
X126949091Y-91464895D01*
X126904584Y-91478396D01*
X126855807Y-91483200D01*
X126184193Y-91483200D01*
X126135416Y-91478396D01*
X126090909Y-91464895D01*
X126049888Y-91442969D01*
X126013936Y-91413464D01*
X125984431Y-91377512D01*
X125962505Y-91336491D01*
X125949004Y-91291984D01*
X125944200Y-91243207D01*
X125944200Y-90671593D01*
X125949004Y-90622816D01*
X125962505Y-90578309D01*
X125984431Y-90537288D01*
X126013936Y-90501336D01*
X126049888Y-90471831D01*
X126090909Y-90449905D01*
X126135416Y-90436404D01*
X126184193Y-90431600D01*
X126855807Y-90431600D01*
X126904584Y-90436404D01*
X126904584Y-90436404D01*
G37*
G36*
X128654584Y-90436404D02*
G01*
X128699091Y-90449905D01*
X128740112Y-90471831D01*
X128776064Y-90501336D01*
X128805569Y-90537288D01*
X128827495Y-90578309D01*
X128840996Y-90622816D01*
X128845800Y-90671593D01*
X128845800Y-91243207D01*
X128840996Y-91291984D01*
X128827495Y-91336491D01*
X128805569Y-91377512D01*
X128776064Y-91413464D01*
X128740112Y-91442969D01*
X128699091Y-91464895D01*
X128654584Y-91478396D01*
X128605807Y-91483200D01*
X127934193Y-91483200D01*
X127885416Y-91478396D01*
X127840909Y-91464895D01*
X127799888Y-91442969D01*
X127763936Y-91413464D01*
X127734431Y-91377512D01*
X127712505Y-91336491D01*
X127699004Y-91291984D01*
X127694200Y-91243207D01*
X127694200Y-90671593D01*
X127699004Y-90622816D01*
X127712505Y-90578309D01*
X127734431Y-90537288D01*
X127763936Y-90501336D01*
X127799888Y-90471831D01*
X127840909Y-90449905D01*
X127885416Y-90436404D01*
X127934193Y-90431600D01*
X128605807Y-90431600D01*
X128654584Y-90436404D01*
X128654584Y-90436404D01*
G37*
G36*
X149559584Y-89952004D02*
G01*
X149604091Y-89965505D01*
X149645112Y-89987431D01*
X149681064Y-90016936D01*
X149710569Y-90052888D01*
X149732495Y-90093909D01*
X149745996Y-90138416D01*
X149750800Y-90187193D01*
X149750800Y-90858807D01*
X149745996Y-90907584D01*
X149732495Y-90952091D01*
X149710569Y-90993112D01*
X149681064Y-91029064D01*
X149645112Y-91058569D01*
X149604091Y-91080495D01*
X149559584Y-91093996D01*
X149510807Y-91098800D01*
X148939193Y-91098800D01*
X148890416Y-91093996D01*
X148845909Y-91080495D01*
X148804888Y-91058569D01*
X148768936Y-91029064D01*
X148739431Y-90993112D01*
X148717505Y-90952091D01*
X148704004Y-90907584D01*
X148699200Y-90858807D01*
X148699200Y-90187193D01*
X148704004Y-90138416D01*
X148717505Y-90093909D01*
X148739431Y-90052888D01*
X148768936Y-90016936D01*
X148804888Y-89987431D01*
X148845909Y-89965505D01*
X148890416Y-89952004D01*
X148939193Y-89947200D01*
X149510807Y-89947200D01*
X149559584Y-89952004D01*
X149559584Y-89952004D01*
G37*
G36*
X152607584Y-89952004D02*
G01*
X152652091Y-89965505D01*
X152693112Y-89987431D01*
X152729064Y-90016936D01*
X152758569Y-90052888D01*
X152780495Y-90093909D01*
X152793996Y-90138416D01*
X152798800Y-90187193D01*
X152798800Y-90858807D01*
X152793996Y-90907584D01*
X152780495Y-90952091D01*
X152758569Y-90993112D01*
X152729064Y-91029064D01*
X152693112Y-91058569D01*
X152652091Y-91080495D01*
X152607584Y-91093996D01*
X152558807Y-91098800D01*
X151987193Y-91098800D01*
X151938416Y-91093996D01*
X151893909Y-91080495D01*
X151852888Y-91058569D01*
X151816936Y-91029064D01*
X151787431Y-90993112D01*
X151765505Y-90952091D01*
X151752004Y-90907584D01*
X151747200Y-90858807D01*
X151747200Y-90187193D01*
X151752004Y-90138416D01*
X151765505Y-90093909D01*
X151787431Y-90052888D01*
X151816936Y-90016936D01*
X151852888Y-89987431D01*
X151893909Y-89965505D01*
X151938416Y-89952004D01*
X151987193Y-89947200D01*
X152558807Y-89947200D01*
X152607584Y-89952004D01*
X152607584Y-89952004D01*
G37*
G36*
X147273584Y-89952004D02*
G01*
X147318091Y-89965505D01*
X147359112Y-89987431D01*
X147395064Y-90016936D01*
X147424569Y-90052888D01*
X147446495Y-90093909D01*
X147459996Y-90138416D01*
X147464800Y-90187193D01*
X147464800Y-90858807D01*
X147459996Y-90907584D01*
X147446495Y-90952091D01*
X147424569Y-90993112D01*
X147395064Y-91029064D01*
X147359112Y-91058569D01*
X147318091Y-91080495D01*
X147273584Y-91093996D01*
X147224807Y-91098800D01*
X146653193Y-91098800D01*
X146604416Y-91093996D01*
X146559909Y-91080495D01*
X146518888Y-91058569D01*
X146482936Y-91029064D01*
X146453431Y-90993112D01*
X146431505Y-90952091D01*
X146418004Y-90907584D01*
X146413200Y-90858807D01*
X146413200Y-90187193D01*
X146418004Y-90138416D01*
X146431505Y-90093909D01*
X146453431Y-90052888D01*
X146482936Y-90016936D01*
X146518888Y-89987431D01*
X146559909Y-89965505D01*
X146604416Y-89952004D01*
X146653193Y-89947200D01*
X147224807Y-89947200D01*
X147273584Y-89952004D01*
X147273584Y-89952004D01*
G37*
G36*
X168338761Y-88348346D02*
G01*
X168557291Y-88438864D01*
X168753967Y-88570279D01*
X168921221Y-88737533D01*
X169052636Y-88934209D01*
X169143154Y-89152739D01*
X169189300Y-89384731D01*
X169189300Y-89621269D01*
X169143154Y-89853261D01*
X169052636Y-90071791D01*
X168921221Y-90268467D01*
X168753967Y-90435721D01*
X168557291Y-90567136D01*
X168338761Y-90657654D01*
X168106769Y-90703800D01*
X167870231Y-90703800D01*
X167638239Y-90657654D01*
X167419709Y-90567136D01*
X167223033Y-90435721D01*
X167055779Y-90268467D01*
X166924364Y-90071791D01*
X166833846Y-89853261D01*
X166787700Y-89621269D01*
X166787700Y-89384731D01*
X166833846Y-89152739D01*
X166924364Y-88934209D01*
X167055779Y-88737533D01*
X167223033Y-88570279D01*
X167419709Y-88438864D01*
X167638239Y-88348346D01*
X167870231Y-88302200D01*
X168106769Y-88302200D01*
X168338761Y-88348346D01*
X168338761Y-88348346D01*
G37*
G36*
X156338761Y-88348346D02*
G01*
X156557291Y-88438864D01*
X156753967Y-88570279D01*
X156921221Y-88737533D01*
X157052636Y-88934209D01*
X157143154Y-89152739D01*
X157189300Y-89384731D01*
X157189300Y-89621269D01*
X157143154Y-89853261D01*
X157052636Y-90071791D01*
X156921221Y-90268467D01*
X156753967Y-90435721D01*
X156557291Y-90567136D01*
X156338761Y-90657654D01*
X156106769Y-90703800D01*
X155870231Y-90703800D01*
X155638239Y-90657654D01*
X155419709Y-90567136D01*
X155223033Y-90435721D01*
X155055779Y-90268467D01*
X154924364Y-90071791D01*
X154833846Y-89853261D01*
X154787700Y-89621269D01*
X154787700Y-89384731D01*
X154833846Y-89152739D01*
X154924364Y-88934209D01*
X155055779Y-88737533D01*
X155223033Y-88570279D01*
X155419709Y-88438864D01*
X155638239Y-88348346D01*
X155870231Y-88302200D01*
X156106769Y-88302200D01*
X156338761Y-88348346D01*
X156338761Y-88348346D01*
G37*
G36*
X141112800Y-90545800D02*
G01*
X139811200Y-90545800D01*
X139811200Y-89544200D01*
X141112800Y-89544200D01*
X141112800Y-90545800D01*
X141112800Y-90545800D01*
G37*
G36*
X130611184Y-89317004D02*
G01*
X130655691Y-89330505D01*
X130696712Y-89352431D01*
X130732664Y-89381936D01*
X130762169Y-89417888D01*
X130784095Y-89458909D01*
X130797596Y-89503416D01*
X130802400Y-89552193D01*
X130802400Y-90223807D01*
X130797596Y-90272584D01*
X130784095Y-90317091D01*
X130762169Y-90358112D01*
X130732664Y-90394064D01*
X130696712Y-90423569D01*
X130655691Y-90445495D01*
X130611184Y-90458996D01*
X130562407Y-90463800D01*
X129990793Y-90463800D01*
X129942016Y-90458996D01*
X129897509Y-90445495D01*
X129856488Y-90423569D01*
X129820536Y-90394064D01*
X129791031Y-90358112D01*
X129769105Y-90317091D01*
X129755604Y-90272584D01*
X129750800Y-90223807D01*
X129750800Y-89552193D01*
X129755604Y-89503416D01*
X129769105Y-89458909D01*
X129791031Y-89417888D01*
X129820536Y-89381936D01*
X129856488Y-89352431D01*
X129897509Y-89330505D01*
X129942016Y-89317004D01*
X129990793Y-89312200D01*
X130562407Y-89312200D01*
X130611184Y-89317004D01*
X130611184Y-89317004D01*
G37*
G36*
X134701084Y-88887004D02*
G01*
X134745591Y-88900505D01*
X134786612Y-88922431D01*
X134822564Y-88951936D01*
X134852069Y-88987888D01*
X134873995Y-89028909D01*
X134887496Y-89073416D01*
X134892300Y-89122193D01*
X134892300Y-89693807D01*
X134887496Y-89742584D01*
X134873995Y-89787091D01*
X134852069Y-89828112D01*
X134822564Y-89864064D01*
X134786612Y-89893569D01*
X134745591Y-89915495D01*
X134701084Y-89928996D01*
X134652307Y-89933800D01*
X133980693Y-89933800D01*
X133931916Y-89928996D01*
X133887409Y-89915495D01*
X133846388Y-89893569D01*
X133810436Y-89864064D01*
X133780931Y-89828112D01*
X133759005Y-89787091D01*
X133745504Y-89742584D01*
X133740700Y-89693807D01*
X133740700Y-89122193D01*
X133745504Y-89073416D01*
X133759005Y-89028909D01*
X133780931Y-88987888D01*
X133810436Y-88951936D01*
X133846388Y-88922431D01*
X133887409Y-88900505D01*
X133931916Y-88887004D01*
X133980693Y-88882200D01*
X134652307Y-88882200D01*
X134701084Y-88887004D01*
X134701084Y-88887004D01*
G37*
G36*
X136451084Y-88887004D02*
G01*
X136495591Y-88900505D01*
X136536612Y-88922431D01*
X136572564Y-88951936D01*
X136602069Y-88987888D01*
X136623995Y-89028909D01*
X136637496Y-89073416D01*
X136642300Y-89122193D01*
X136642300Y-89693807D01*
X136637496Y-89742584D01*
X136623995Y-89787091D01*
X136602069Y-89828112D01*
X136572564Y-89864064D01*
X136536612Y-89893569D01*
X136495591Y-89915495D01*
X136451084Y-89928996D01*
X136402307Y-89933800D01*
X135730693Y-89933800D01*
X135681916Y-89928996D01*
X135637409Y-89915495D01*
X135596388Y-89893569D01*
X135560436Y-89864064D01*
X135530931Y-89828112D01*
X135509005Y-89787091D01*
X135495504Y-89742584D01*
X135490700Y-89693807D01*
X135490700Y-89122193D01*
X135495504Y-89073416D01*
X135509005Y-89028909D01*
X135530931Y-88987888D01*
X135560436Y-88951936D01*
X135596388Y-88922431D01*
X135637409Y-88900505D01*
X135681916Y-88887004D01*
X135730693Y-88882200D01*
X136402307Y-88882200D01*
X136451084Y-88887004D01*
X136451084Y-88887004D01*
G37*
G36*
X120145584Y-88417104D02*
G01*
X120190091Y-88430605D01*
X120231112Y-88452531D01*
X120267064Y-88482036D01*
X120296569Y-88517988D01*
X120318495Y-88559009D01*
X120331996Y-88603516D01*
X120336800Y-88652293D01*
X120336800Y-89223907D01*
X120331996Y-89272684D01*
X120318495Y-89317191D01*
X120296569Y-89358212D01*
X120267064Y-89394164D01*
X120231112Y-89423669D01*
X120190091Y-89445595D01*
X120145584Y-89459096D01*
X120096807Y-89463900D01*
X119425193Y-89463900D01*
X119376416Y-89459096D01*
X119331909Y-89445595D01*
X119290888Y-89423669D01*
X119254936Y-89394164D01*
X119225431Y-89358212D01*
X119203505Y-89317191D01*
X119190004Y-89272684D01*
X119185200Y-89223907D01*
X119185200Y-88652293D01*
X119190004Y-88603516D01*
X119203505Y-88559009D01*
X119225431Y-88517988D01*
X119254936Y-88482036D01*
X119290888Y-88452531D01*
X119331909Y-88430605D01*
X119376416Y-88417104D01*
X119425193Y-88412300D01*
X120096807Y-88412300D01*
X120145584Y-88417104D01*
X120145584Y-88417104D01*
G37*
G36*
X118395584Y-88417104D02*
G01*
X118440091Y-88430605D01*
X118481112Y-88452531D01*
X118517064Y-88482036D01*
X118546569Y-88517988D01*
X118568495Y-88559009D01*
X118581996Y-88603516D01*
X118586800Y-88652293D01*
X118586800Y-89223907D01*
X118581996Y-89272684D01*
X118568495Y-89317191D01*
X118546569Y-89358212D01*
X118517064Y-89394164D01*
X118481112Y-89423669D01*
X118440091Y-89445595D01*
X118395584Y-89459096D01*
X118346807Y-89463900D01*
X117675193Y-89463900D01*
X117626416Y-89459096D01*
X117581909Y-89445595D01*
X117540888Y-89423669D01*
X117504936Y-89394164D01*
X117475431Y-89358212D01*
X117453505Y-89317191D01*
X117440004Y-89272684D01*
X117435200Y-89223907D01*
X117435200Y-88652293D01*
X117440004Y-88603516D01*
X117453505Y-88559009D01*
X117475431Y-88517988D01*
X117504936Y-88482036D01*
X117540888Y-88452531D01*
X117581909Y-88430605D01*
X117626416Y-88417104D01*
X117675193Y-88412300D01*
X118346807Y-88412300D01*
X118395584Y-88417104D01*
X118395584Y-88417104D01*
G37*
G36*
X152607584Y-88202004D02*
G01*
X152652091Y-88215505D01*
X152693112Y-88237431D01*
X152729064Y-88266936D01*
X152758569Y-88302888D01*
X152780495Y-88343909D01*
X152793996Y-88388416D01*
X152798800Y-88437193D01*
X152798800Y-89108807D01*
X152793996Y-89157584D01*
X152780495Y-89202091D01*
X152758569Y-89243112D01*
X152729064Y-89279064D01*
X152693112Y-89308569D01*
X152652091Y-89330495D01*
X152607584Y-89343996D01*
X152558807Y-89348800D01*
X151987193Y-89348800D01*
X151938416Y-89343996D01*
X151893909Y-89330495D01*
X151852888Y-89308569D01*
X151816936Y-89279064D01*
X151787431Y-89243112D01*
X151765505Y-89202091D01*
X151752004Y-89157584D01*
X151747200Y-89108807D01*
X151747200Y-88437193D01*
X151752004Y-88388416D01*
X151765505Y-88343909D01*
X151787431Y-88302888D01*
X151816936Y-88266936D01*
X151852888Y-88237431D01*
X151893909Y-88215505D01*
X151938416Y-88202004D01*
X151987193Y-88197200D01*
X152558807Y-88197200D01*
X152607584Y-88202004D01*
X152607584Y-88202004D01*
G37*
G36*
X147273584Y-88202004D02*
G01*
X147318091Y-88215505D01*
X147359112Y-88237431D01*
X147395064Y-88266936D01*
X147424569Y-88302888D01*
X147446495Y-88343909D01*
X147459996Y-88388416D01*
X147464800Y-88437193D01*
X147464800Y-89108807D01*
X147459996Y-89157584D01*
X147446495Y-89202091D01*
X147424569Y-89243112D01*
X147395064Y-89279064D01*
X147359112Y-89308569D01*
X147318091Y-89330495D01*
X147273584Y-89343996D01*
X147224807Y-89348800D01*
X146653193Y-89348800D01*
X146604416Y-89343996D01*
X146559909Y-89330495D01*
X146518888Y-89308569D01*
X146482936Y-89279064D01*
X146453431Y-89243112D01*
X146431505Y-89202091D01*
X146418004Y-89157584D01*
X146413200Y-89108807D01*
X146413200Y-88437193D01*
X146418004Y-88388416D01*
X146431505Y-88343909D01*
X146453431Y-88302888D01*
X146482936Y-88266936D01*
X146518888Y-88237431D01*
X146559909Y-88215505D01*
X146604416Y-88202004D01*
X146653193Y-88197200D01*
X147224807Y-88197200D01*
X147273584Y-88202004D01*
X147273584Y-88202004D01*
G37*
G36*
X149559584Y-88202004D02*
G01*
X149604091Y-88215505D01*
X149645112Y-88237431D01*
X149681064Y-88266936D01*
X149710569Y-88302888D01*
X149732495Y-88343909D01*
X149745996Y-88388416D01*
X149750800Y-88437193D01*
X149750800Y-89108807D01*
X149745996Y-89157584D01*
X149732495Y-89202091D01*
X149710569Y-89243112D01*
X149681064Y-89279064D01*
X149645112Y-89308569D01*
X149604091Y-89330495D01*
X149559584Y-89343996D01*
X149510807Y-89348800D01*
X148939193Y-89348800D01*
X148890416Y-89343996D01*
X148845909Y-89330495D01*
X148804888Y-89308569D01*
X148768936Y-89279064D01*
X148739431Y-89243112D01*
X148717505Y-89202091D01*
X148704004Y-89157584D01*
X148699200Y-89108807D01*
X148699200Y-88437193D01*
X148704004Y-88388416D01*
X148717505Y-88343909D01*
X148739431Y-88302888D01*
X148768936Y-88266936D01*
X148804888Y-88237431D01*
X148845909Y-88215505D01*
X148890416Y-88202004D01*
X148939193Y-88197200D01*
X149510807Y-88197200D01*
X149559584Y-88202004D01*
X149559584Y-88202004D01*
G37*
G36*
X128748200Y-89225400D02*
G01*
X126646600Y-89225400D01*
X126646600Y-88523800D01*
X128748200Y-88523800D01*
X128748200Y-89225400D01*
X128748200Y-89225400D01*
G37*
G36*
X123848200Y-89225400D02*
G01*
X121746600Y-89225400D01*
X121746600Y-88523800D01*
X123848200Y-88523800D01*
X123848200Y-89225400D01*
X123848200Y-89225400D01*
G37*
G36*
X130611184Y-87567004D02*
G01*
X130655691Y-87580505D01*
X130696712Y-87602431D01*
X130732664Y-87631936D01*
X130762169Y-87667888D01*
X130784095Y-87708909D01*
X130797596Y-87753416D01*
X130802400Y-87802193D01*
X130802400Y-88473807D01*
X130797596Y-88522584D01*
X130784095Y-88567091D01*
X130762169Y-88608112D01*
X130732664Y-88644064D01*
X130696712Y-88673569D01*
X130655691Y-88695495D01*
X130611184Y-88708996D01*
X130562407Y-88713800D01*
X129990793Y-88713800D01*
X129942016Y-88708996D01*
X129897509Y-88695495D01*
X129856488Y-88673569D01*
X129820536Y-88644064D01*
X129791031Y-88608112D01*
X129769105Y-88567091D01*
X129755604Y-88522584D01*
X129750800Y-88473807D01*
X129750800Y-87802193D01*
X129755604Y-87753416D01*
X129769105Y-87708909D01*
X129791031Y-87667888D01*
X129820536Y-87631936D01*
X129856488Y-87602431D01*
X129897509Y-87580505D01*
X129942016Y-87567004D01*
X129990793Y-87562200D01*
X130562407Y-87562200D01*
X130611184Y-87567004D01*
X130611184Y-87567004D01*
G37*
G36*
X163189300Y-88703800D02*
G01*
X160787700Y-88703800D01*
X160787700Y-86302200D01*
X163189300Y-86302200D01*
X163189300Y-88703800D01*
X163189300Y-88703800D01*
G37*
G36*
X128748200Y-87955400D02*
G01*
X126646600Y-87955400D01*
X126646600Y-87253800D01*
X128748200Y-87253800D01*
X128748200Y-87955400D01*
X128748200Y-87955400D01*
G37*
G36*
X123848200Y-87955400D02*
G01*
X121746600Y-87955400D01*
X121746600Y-87253800D01*
X123848200Y-87253800D01*
X123848200Y-87955400D01*
X123848200Y-87955400D01*
G37*
G36*
X115241508Y-85197182D02*
G01*
X115432741Y-85276393D01*
X115604847Y-85391391D01*
X115751209Y-85537753D01*
X115866207Y-85709859D01*
X115945418Y-85901092D01*
X115985800Y-86104105D01*
X115985800Y-86311095D01*
X115945418Y-86514108D01*
X115866207Y-86705341D01*
X115751209Y-86877447D01*
X115604847Y-87023809D01*
X115432741Y-87138807D01*
X115241508Y-87218018D01*
X115038495Y-87258400D01*
X114831505Y-87258400D01*
X114628492Y-87218018D01*
X114437259Y-87138807D01*
X114265153Y-87023809D01*
X114118791Y-86877447D01*
X114003793Y-86705341D01*
X113924582Y-86514108D01*
X113884200Y-86311095D01*
X113884200Y-86104105D01*
X113924582Y-85901092D01*
X114003793Y-85709859D01*
X114118791Y-85537753D01*
X114265153Y-85391391D01*
X114437259Y-85276393D01*
X114628492Y-85197182D01*
X114831505Y-85156800D01*
X115038495Y-85156800D01*
X115241508Y-85197182D01*
X115241508Y-85197182D01*
G37*
G36*
X152764700Y-86987300D02*
G01*
X151103100Y-86987300D01*
X151103100Y-86235700D01*
X152764700Y-86235700D01*
X152764700Y-86987300D01*
X152764700Y-86987300D01*
G37*
G36*
X150064700Y-86987300D02*
G01*
X148403100Y-86987300D01*
X148403100Y-86235700D01*
X150064700Y-86235700D01*
X150064700Y-86987300D01*
X150064700Y-86987300D01*
G37*
G36*
X139971084Y-85775004D02*
G01*
X140015591Y-85788505D01*
X140056612Y-85810431D01*
X140092564Y-85839936D01*
X140122069Y-85875888D01*
X140143995Y-85916909D01*
X140157496Y-85961416D01*
X140162300Y-86010193D01*
X140162300Y-86681807D01*
X140157496Y-86730584D01*
X140143995Y-86775091D01*
X140122069Y-86816112D01*
X140092564Y-86852064D01*
X140056612Y-86881569D01*
X140015591Y-86903495D01*
X139971084Y-86916996D01*
X139922307Y-86921800D01*
X139350693Y-86921800D01*
X139301916Y-86916996D01*
X139257409Y-86903495D01*
X139216388Y-86881569D01*
X139180436Y-86852064D01*
X139150931Y-86816112D01*
X139129005Y-86775091D01*
X139115504Y-86730584D01*
X139110700Y-86681807D01*
X139110700Y-86010193D01*
X139115504Y-85961416D01*
X139129005Y-85916909D01*
X139150931Y-85875888D01*
X139180436Y-85839936D01*
X139216388Y-85810431D01*
X139257409Y-85788505D01*
X139301916Y-85775004D01*
X139350693Y-85770200D01*
X139922307Y-85770200D01*
X139971084Y-85775004D01*
X139971084Y-85775004D01*
G37*
G36*
X138070800Y-86796800D02*
G01*
X136409200Y-86796800D01*
X136409200Y-86045200D01*
X138070800Y-86045200D01*
X138070800Y-86796800D01*
X138070800Y-86796800D01*
G37*
G36*
X135370800Y-86796800D02*
G01*
X133709200Y-86796800D01*
X133709200Y-86045200D01*
X135370800Y-86045200D01*
X135370800Y-86796800D01*
X135370800Y-86796800D01*
G37*
G36*
X118395584Y-85686604D02*
G01*
X118440091Y-85700105D01*
X118481112Y-85722031D01*
X118517064Y-85751536D01*
X118546569Y-85787488D01*
X118568495Y-85828509D01*
X118581996Y-85873016D01*
X118586800Y-85921793D01*
X118586800Y-86493407D01*
X118581996Y-86542184D01*
X118568495Y-86586691D01*
X118546569Y-86627712D01*
X118517064Y-86663664D01*
X118481112Y-86693169D01*
X118440091Y-86715095D01*
X118395584Y-86728596D01*
X118346807Y-86733400D01*
X117675193Y-86733400D01*
X117626416Y-86728596D01*
X117581909Y-86715095D01*
X117540888Y-86693169D01*
X117504936Y-86663664D01*
X117475431Y-86627712D01*
X117453505Y-86586691D01*
X117440004Y-86542184D01*
X117435200Y-86493407D01*
X117435200Y-85921793D01*
X117440004Y-85873016D01*
X117453505Y-85828509D01*
X117475431Y-85787488D01*
X117504936Y-85751536D01*
X117540888Y-85722031D01*
X117581909Y-85700105D01*
X117626416Y-85686604D01*
X117675193Y-85681800D01*
X118346807Y-85681800D01*
X118395584Y-85686604D01*
X118395584Y-85686604D01*
G37*
G36*
X120145584Y-85686604D02*
G01*
X120190091Y-85700105D01*
X120231112Y-85722031D01*
X120267064Y-85751536D01*
X120296569Y-85787488D01*
X120318495Y-85828509D01*
X120331996Y-85873016D01*
X120336800Y-85921793D01*
X120336800Y-86493407D01*
X120331996Y-86542184D01*
X120318495Y-86586691D01*
X120296569Y-86627712D01*
X120267064Y-86663664D01*
X120231112Y-86693169D01*
X120190091Y-86715095D01*
X120145584Y-86728596D01*
X120096807Y-86733400D01*
X119425193Y-86733400D01*
X119376416Y-86728596D01*
X119331909Y-86715095D01*
X119290888Y-86693169D01*
X119254936Y-86663664D01*
X119225431Y-86627712D01*
X119203505Y-86586691D01*
X119190004Y-86542184D01*
X119185200Y-86493407D01*
X119185200Y-85921793D01*
X119190004Y-85873016D01*
X119203505Y-85828509D01*
X119225431Y-85787488D01*
X119254936Y-85751536D01*
X119290888Y-85722031D01*
X119331909Y-85700105D01*
X119376416Y-85686604D01*
X119425193Y-85681800D01*
X120096807Y-85681800D01*
X120145584Y-85686604D01*
X120145584Y-85686604D01*
G37*
G36*
X128748200Y-86685400D02*
G01*
X126646600Y-86685400D01*
X126646600Y-85983800D01*
X128748200Y-85983800D01*
X128748200Y-86685400D01*
X128748200Y-86685400D01*
G37*
G36*
X123848200Y-86685400D02*
G01*
X121746600Y-86685400D01*
X121746600Y-85983800D01*
X123848200Y-85983800D01*
X123848200Y-86685400D01*
X123848200Y-86685400D01*
G37*
G36*
X146229508Y-84587582D02*
G01*
X146420741Y-84666793D01*
X146592847Y-84781791D01*
X146739209Y-84928153D01*
X146854207Y-85100259D01*
X146933418Y-85291492D01*
X146973800Y-85494505D01*
X146973800Y-85701495D01*
X146933418Y-85904508D01*
X146854207Y-86095741D01*
X146739209Y-86267847D01*
X146592847Y-86414209D01*
X146420741Y-86529207D01*
X146229508Y-86608418D01*
X146026495Y-86648800D01*
X145819505Y-86648800D01*
X145616492Y-86608418D01*
X145425259Y-86529207D01*
X145253153Y-86414209D01*
X145106791Y-86267847D01*
X144991793Y-86095741D01*
X144912582Y-85904508D01*
X144872200Y-85701495D01*
X144872200Y-85494505D01*
X144912582Y-85291492D01*
X144991793Y-85100259D01*
X145106791Y-84928153D01*
X145253153Y-84781791D01*
X145425259Y-84666793D01*
X145616492Y-84587582D01*
X145819505Y-84547200D01*
X146026495Y-84547200D01*
X146229508Y-84587582D01*
X146229508Y-84587582D01*
G37*
G36*
X132541584Y-85126004D02*
G01*
X132586091Y-85139505D01*
X132627112Y-85161431D01*
X132663064Y-85190936D01*
X132692569Y-85226888D01*
X132714495Y-85267909D01*
X132727996Y-85312416D01*
X132732800Y-85361193D01*
X132732800Y-86032807D01*
X132727996Y-86081584D01*
X132714495Y-86126091D01*
X132692569Y-86167112D01*
X132663064Y-86203064D01*
X132627112Y-86232569D01*
X132586091Y-86254495D01*
X132541584Y-86267996D01*
X132492807Y-86272800D01*
X131921193Y-86272800D01*
X131872416Y-86267996D01*
X131827909Y-86254495D01*
X131786888Y-86232569D01*
X131750936Y-86203064D01*
X131721431Y-86167112D01*
X131699505Y-86126091D01*
X131686004Y-86081584D01*
X131681200Y-86032807D01*
X131681200Y-85361193D01*
X131686004Y-85312416D01*
X131699505Y-85267909D01*
X131721431Y-85226888D01*
X131750936Y-85190936D01*
X131786888Y-85161431D01*
X131827909Y-85139505D01*
X131872416Y-85126004D01*
X131921193Y-85121200D01*
X132492807Y-85121200D01*
X132541584Y-85126004D01*
X132541584Y-85126004D01*
G37*
G36*
X130636584Y-85090504D02*
G01*
X130681091Y-85104005D01*
X130722112Y-85125931D01*
X130758064Y-85155436D01*
X130787569Y-85191388D01*
X130809495Y-85232409D01*
X130822996Y-85276916D01*
X130827800Y-85325693D01*
X130827800Y-85997307D01*
X130822996Y-86046084D01*
X130809495Y-86090591D01*
X130787569Y-86131612D01*
X130758064Y-86167564D01*
X130722112Y-86197069D01*
X130681091Y-86218995D01*
X130636584Y-86232496D01*
X130587807Y-86237300D01*
X130016193Y-86237300D01*
X129967416Y-86232496D01*
X129922909Y-86218995D01*
X129881888Y-86197069D01*
X129845936Y-86167564D01*
X129816431Y-86131612D01*
X129794505Y-86090591D01*
X129781004Y-86046084D01*
X129776200Y-85997307D01*
X129776200Y-85325693D01*
X129781004Y-85276916D01*
X129794505Y-85232409D01*
X129816431Y-85191388D01*
X129845936Y-85155436D01*
X129881888Y-85125931D01*
X129922909Y-85104005D01*
X129967416Y-85090504D01*
X130016193Y-85085700D01*
X130587807Y-85085700D01*
X130636584Y-85090504D01*
X130636584Y-85090504D01*
G37*
G36*
X150064700Y-86037300D02*
G01*
X148403100Y-86037300D01*
X148403100Y-85285700D01*
X150064700Y-85285700D01*
X150064700Y-86037300D01*
X150064700Y-86037300D01*
G37*
G36*
X107538041Y-80857226D02*
G01*
X108002257Y-81049510D01*
X108420042Y-81328665D01*
X108775335Y-81683958D01*
X109054490Y-82101743D01*
X109246774Y-82565959D01*
X109344800Y-83058768D01*
X109344800Y-83561232D01*
X109246774Y-84054041D01*
X109054490Y-84518257D01*
X108775335Y-84936042D01*
X108420042Y-85291335D01*
X108002257Y-85570490D01*
X107626563Y-85726107D01*
X107538041Y-85762774D01*
X107045232Y-85860800D01*
X106542768Y-85860800D01*
X106049959Y-85762774D01*
X105961437Y-85726107D01*
X105585743Y-85570490D01*
X105167958Y-85291335D01*
X104812665Y-84936042D01*
X104533510Y-84518257D01*
X104341226Y-84054041D01*
X104243200Y-83561232D01*
X104243200Y-83058768D01*
X104341226Y-82565959D01*
X104533510Y-82101743D01*
X104812665Y-81683958D01*
X105167958Y-81328665D01*
X105585743Y-81049510D01*
X106049959Y-80857226D01*
X106542768Y-80759200D01*
X107045232Y-80759200D01*
X107538041Y-80857226D01*
X107538041Y-80857226D01*
G37*
G36*
X135370800Y-85846800D02*
G01*
X133709200Y-85846800D01*
X133709200Y-85095200D01*
X135370800Y-85095200D01*
X135370800Y-85846800D01*
X135370800Y-85846800D01*
G37*
G36*
X123848200Y-85415400D02*
G01*
X121746600Y-85415400D01*
X121746600Y-84713800D01*
X123848200Y-84713800D01*
X123848200Y-85415400D01*
X123848200Y-85415400D01*
G37*
G36*
X128748200Y-85415400D02*
G01*
X126646600Y-85415400D01*
X126646600Y-84713800D01*
X128748200Y-84713800D01*
X128748200Y-85415400D01*
X128748200Y-85415400D01*
G37*
G36*
X139971084Y-84025004D02*
G01*
X140015591Y-84038505D01*
X140056612Y-84060431D01*
X140092564Y-84089936D01*
X140122069Y-84125888D01*
X140143995Y-84166909D01*
X140157496Y-84211416D01*
X140162300Y-84260193D01*
X140162300Y-84931807D01*
X140157496Y-84980584D01*
X140143995Y-85025091D01*
X140122069Y-85066112D01*
X140092564Y-85102064D01*
X140056612Y-85131569D01*
X140015591Y-85153495D01*
X139971084Y-85166996D01*
X139922307Y-85171800D01*
X139350693Y-85171800D01*
X139301916Y-85166996D01*
X139257409Y-85153495D01*
X139216388Y-85131569D01*
X139180436Y-85102064D01*
X139150931Y-85066112D01*
X139129005Y-85025091D01*
X139115504Y-84980584D01*
X139110700Y-84931807D01*
X139110700Y-84260193D01*
X139115504Y-84211416D01*
X139129005Y-84166909D01*
X139150931Y-84125888D01*
X139180436Y-84089936D01*
X139216388Y-84060431D01*
X139257409Y-84038505D01*
X139301916Y-84025004D01*
X139350693Y-84020200D01*
X139922307Y-84020200D01*
X139971084Y-84025004D01*
X139971084Y-84025004D01*
G37*
G36*
X152764700Y-85087300D02*
G01*
X151103100Y-85087300D01*
X151103100Y-84335700D01*
X152764700Y-84335700D01*
X152764700Y-85087300D01*
X152764700Y-85087300D01*
G37*
G36*
X150064700Y-85087300D02*
G01*
X148403100Y-85087300D01*
X148403100Y-84335700D01*
X150064700Y-84335700D01*
X150064700Y-85087300D01*
X150064700Y-85087300D01*
G37*
G36*
X118395584Y-84010204D02*
G01*
X118440091Y-84023705D01*
X118481112Y-84045631D01*
X118517064Y-84075136D01*
X118546569Y-84111088D01*
X118568495Y-84152109D01*
X118581996Y-84196616D01*
X118586800Y-84245393D01*
X118586800Y-84817007D01*
X118581996Y-84865784D01*
X118568495Y-84910291D01*
X118546569Y-84951312D01*
X118517064Y-84987264D01*
X118481112Y-85016769D01*
X118440091Y-85038695D01*
X118395584Y-85052196D01*
X118346807Y-85057000D01*
X117675193Y-85057000D01*
X117626416Y-85052196D01*
X117581909Y-85038695D01*
X117540888Y-85016769D01*
X117504936Y-84987264D01*
X117475431Y-84951312D01*
X117453505Y-84910291D01*
X117440004Y-84865784D01*
X117435200Y-84817007D01*
X117435200Y-84245393D01*
X117440004Y-84196616D01*
X117453505Y-84152109D01*
X117475431Y-84111088D01*
X117504936Y-84075136D01*
X117540888Y-84045631D01*
X117581909Y-84023705D01*
X117626416Y-84010204D01*
X117675193Y-84005400D01*
X118346807Y-84005400D01*
X118395584Y-84010204D01*
X118395584Y-84010204D01*
G37*
G36*
X120145584Y-84010204D02*
G01*
X120190091Y-84023705D01*
X120231112Y-84045631D01*
X120267064Y-84075136D01*
X120296569Y-84111088D01*
X120318495Y-84152109D01*
X120331996Y-84196616D01*
X120336800Y-84245393D01*
X120336800Y-84817007D01*
X120331996Y-84865784D01*
X120318495Y-84910291D01*
X120296569Y-84951312D01*
X120267064Y-84987264D01*
X120231112Y-85016769D01*
X120190091Y-85038695D01*
X120145584Y-85052196D01*
X120096807Y-85057000D01*
X119425193Y-85057000D01*
X119376416Y-85052196D01*
X119331909Y-85038695D01*
X119290888Y-85016769D01*
X119254936Y-84987264D01*
X119225431Y-84951312D01*
X119203505Y-84910291D01*
X119190004Y-84865784D01*
X119185200Y-84817007D01*
X119185200Y-84245393D01*
X119190004Y-84196616D01*
X119203505Y-84152109D01*
X119225431Y-84111088D01*
X119254936Y-84075136D01*
X119290888Y-84045631D01*
X119331909Y-84023705D01*
X119376416Y-84010204D01*
X119425193Y-84005400D01*
X120096807Y-84005400D01*
X120145584Y-84010204D01*
X120145584Y-84010204D01*
G37*
G36*
X135370800Y-84896800D02*
G01*
X133709200Y-84896800D01*
X133709200Y-84145200D01*
X135370800Y-84145200D01*
X135370800Y-84896800D01*
X135370800Y-84896800D01*
G37*
G36*
X138070800Y-84896800D02*
G01*
X136409200Y-84896800D01*
X136409200Y-84145200D01*
X138070800Y-84145200D01*
X138070800Y-84896800D01*
X138070800Y-84896800D01*
G37*
G36*
X132541584Y-83376004D02*
G01*
X132586091Y-83389505D01*
X132627112Y-83411431D01*
X132663064Y-83440936D01*
X132692569Y-83476888D01*
X132714495Y-83517909D01*
X132727996Y-83562416D01*
X132732800Y-83611193D01*
X132732800Y-84282807D01*
X132727996Y-84331584D01*
X132714495Y-84376091D01*
X132692569Y-84417112D01*
X132663064Y-84453064D01*
X132627112Y-84482569D01*
X132586091Y-84504495D01*
X132541584Y-84517996D01*
X132492807Y-84522800D01*
X131921193Y-84522800D01*
X131872416Y-84517996D01*
X131827909Y-84504495D01*
X131786888Y-84482569D01*
X131750936Y-84453064D01*
X131721431Y-84417112D01*
X131699505Y-84376091D01*
X131686004Y-84331584D01*
X131681200Y-84282807D01*
X131681200Y-83611193D01*
X131686004Y-83562416D01*
X131699505Y-83517909D01*
X131721431Y-83476888D01*
X131750936Y-83440936D01*
X131786888Y-83411431D01*
X131827909Y-83389505D01*
X131872416Y-83376004D01*
X131921193Y-83371200D01*
X132492807Y-83371200D01*
X132541584Y-83376004D01*
X132541584Y-83376004D01*
G37*
G36*
X130636584Y-83340504D02*
G01*
X130681091Y-83354005D01*
X130722112Y-83375931D01*
X130758064Y-83405436D01*
X130787569Y-83441388D01*
X130809495Y-83482409D01*
X130822996Y-83526916D01*
X130827800Y-83575693D01*
X130827800Y-84247307D01*
X130822996Y-84296084D01*
X130809495Y-84340591D01*
X130787569Y-84381612D01*
X130758064Y-84417564D01*
X130722112Y-84447069D01*
X130681091Y-84468995D01*
X130636584Y-84482496D01*
X130587807Y-84487300D01*
X130016193Y-84487300D01*
X129967416Y-84482496D01*
X129922909Y-84468995D01*
X129881888Y-84447069D01*
X129845936Y-84417564D01*
X129816431Y-84381612D01*
X129794505Y-84340591D01*
X129781004Y-84296084D01*
X129776200Y-84247307D01*
X129776200Y-83575693D01*
X129781004Y-83526916D01*
X129794505Y-83482409D01*
X129816431Y-83441388D01*
X129845936Y-83405436D01*
X129881888Y-83375931D01*
X129922909Y-83354005D01*
X129967416Y-83340504D01*
X130016193Y-83335700D01*
X130587807Y-83335700D01*
X130636584Y-83340504D01*
X130636584Y-83340504D01*
G37*
G36*
X141812584Y-82663504D02*
G01*
X141857091Y-82677005D01*
X141898112Y-82698931D01*
X141934064Y-82728436D01*
X141963569Y-82764388D01*
X141985495Y-82805409D01*
X141998996Y-82849916D01*
X142003800Y-82898693D01*
X142003800Y-83570307D01*
X141998996Y-83619084D01*
X141985495Y-83663591D01*
X141963569Y-83704612D01*
X141934064Y-83740564D01*
X141898112Y-83770069D01*
X141857091Y-83791995D01*
X141812584Y-83805496D01*
X141763807Y-83810300D01*
X141192193Y-83810300D01*
X141143416Y-83805496D01*
X141098909Y-83791995D01*
X141057888Y-83770069D01*
X141021936Y-83740564D01*
X140992431Y-83704612D01*
X140970505Y-83663591D01*
X140957004Y-83619084D01*
X140952200Y-83570307D01*
X140952200Y-82898693D01*
X140957004Y-82849916D01*
X140970505Y-82805409D01*
X140992431Y-82764388D01*
X141021936Y-82728436D01*
X141057888Y-82698931D01*
X141098909Y-82677005D01*
X141143416Y-82663504D01*
X141192193Y-82658700D01*
X141763807Y-82658700D01*
X141812584Y-82663504D01*
X141812584Y-82663504D01*
G37*
G36*
X143781084Y-82649504D02*
G01*
X143825591Y-82663005D01*
X143866612Y-82684931D01*
X143902564Y-82714436D01*
X143932069Y-82750388D01*
X143953995Y-82791409D01*
X143967496Y-82835916D01*
X143972300Y-82884693D01*
X143972300Y-83556307D01*
X143967496Y-83605084D01*
X143953995Y-83649591D01*
X143932069Y-83690612D01*
X143902564Y-83726564D01*
X143866612Y-83756069D01*
X143825591Y-83777995D01*
X143781084Y-83791496D01*
X143732307Y-83796300D01*
X143160693Y-83796300D01*
X143111916Y-83791496D01*
X143067409Y-83777995D01*
X143026388Y-83756069D01*
X142990436Y-83726564D01*
X142960931Y-83690612D01*
X142939005Y-83649591D01*
X142925504Y-83605084D01*
X142920700Y-83556307D01*
X142920700Y-82884693D01*
X142925504Y-82835916D01*
X142939005Y-82791409D01*
X142960931Y-82750388D01*
X142990436Y-82714436D01*
X143026388Y-82684931D01*
X143067409Y-82663005D01*
X143111916Y-82649504D01*
X143160693Y-82644700D01*
X143732307Y-82644700D01*
X143781084Y-82649504D01*
X143781084Y-82649504D01*
G37*
G36*
X123859800Y-83635800D02*
G01*
X123158200Y-83635800D01*
X123158200Y-82734200D01*
X123859800Y-82734200D01*
X123859800Y-83635800D01*
X123859800Y-83635800D01*
G37*
G36*
X122459800Y-83635800D02*
G01*
X121758200Y-83635800D01*
X121758200Y-82734200D01*
X122459800Y-82734200D01*
X122459800Y-83635800D01*
X122459800Y-83635800D01*
G37*
G36*
X128702784Y-82333804D02*
G01*
X128747291Y-82347305D01*
X128788312Y-82369231D01*
X128824264Y-82398736D01*
X128853769Y-82434688D01*
X128875695Y-82475709D01*
X128889196Y-82520216D01*
X128894000Y-82568993D01*
X128894000Y-83140607D01*
X128889196Y-83189384D01*
X128875695Y-83233891D01*
X128853769Y-83274912D01*
X128824264Y-83310864D01*
X128788312Y-83340369D01*
X128747291Y-83362295D01*
X128702784Y-83375796D01*
X128654007Y-83380600D01*
X127982393Y-83380600D01*
X127933616Y-83375796D01*
X127889109Y-83362295D01*
X127848088Y-83340369D01*
X127812136Y-83310864D01*
X127782631Y-83274912D01*
X127760705Y-83233891D01*
X127747204Y-83189384D01*
X127742400Y-83140607D01*
X127742400Y-82568993D01*
X127747204Y-82520216D01*
X127760705Y-82475709D01*
X127782631Y-82434688D01*
X127812136Y-82398736D01*
X127848088Y-82369231D01*
X127889109Y-82347305D01*
X127933616Y-82333804D01*
X127982393Y-82329000D01*
X128654007Y-82329000D01*
X128702784Y-82333804D01*
X128702784Y-82333804D01*
G37*
G36*
X126952784Y-82333804D02*
G01*
X126997291Y-82347305D01*
X127038312Y-82369231D01*
X127074264Y-82398736D01*
X127103769Y-82434688D01*
X127125695Y-82475709D01*
X127139196Y-82520216D01*
X127144000Y-82568993D01*
X127144000Y-83140607D01*
X127139196Y-83189384D01*
X127125695Y-83233891D01*
X127103769Y-83274912D01*
X127074264Y-83310864D01*
X127038312Y-83340369D01*
X126997291Y-83362295D01*
X126952784Y-83375796D01*
X126904007Y-83380600D01*
X126232393Y-83380600D01*
X126183616Y-83375796D01*
X126139109Y-83362295D01*
X126098088Y-83340369D01*
X126062136Y-83310864D01*
X126032631Y-83274912D01*
X126010705Y-83233891D01*
X125997204Y-83189384D01*
X125992400Y-83140607D01*
X125992400Y-82568993D01*
X125997204Y-82520216D01*
X126010705Y-82475709D01*
X126032631Y-82434688D01*
X126062136Y-82398736D01*
X126098088Y-82369231D01*
X126139109Y-82347305D01*
X126183616Y-82333804D01*
X126232393Y-82329000D01*
X126904007Y-82329000D01*
X126952784Y-82333804D01*
X126952784Y-82333804D01*
G37*
G36*
X150780584Y-82029004D02*
G01*
X150825091Y-82042505D01*
X150866112Y-82064431D01*
X150902064Y-82093936D01*
X150931569Y-82129888D01*
X150953495Y-82170909D01*
X150966996Y-82215416D01*
X150971800Y-82264193D01*
X150971800Y-82835807D01*
X150966996Y-82884584D01*
X150953495Y-82929091D01*
X150931569Y-82970112D01*
X150902064Y-83006064D01*
X150866112Y-83035569D01*
X150825091Y-83057495D01*
X150780584Y-83070996D01*
X150731807Y-83075800D01*
X150060193Y-83075800D01*
X150011416Y-83070996D01*
X149966909Y-83057495D01*
X149925888Y-83035569D01*
X149889936Y-83006064D01*
X149860431Y-82970112D01*
X149838505Y-82929091D01*
X149825004Y-82884584D01*
X149820200Y-82835807D01*
X149820200Y-82264193D01*
X149825004Y-82215416D01*
X149838505Y-82170909D01*
X149860431Y-82129888D01*
X149889936Y-82093936D01*
X149925888Y-82064431D01*
X149966909Y-82042505D01*
X150011416Y-82029004D01*
X150060193Y-82024200D01*
X150731807Y-82024200D01*
X150780584Y-82029004D01*
X150780584Y-82029004D01*
G37*
G36*
X152530584Y-82029004D02*
G01*
X152575091Y-82042505D01*
X152616112Y-82064431D01*
X152652064Y-82093936D01*
X152681569Y-82129888D01*
X152703495Y-82170909D01*
X152716996Y-82215416D01*
X152721800Y-82264193D01*
X152721800Y-82835807D01*
X152716996Y-82884584D01*
X152703495Y-82929091D01*
X152681569Y-82970112D01*
X152652064Y-83006064D01*
X152616112Y-83035569D01*
X152575091Y-83057495D01*
X152530584Y-83070996D01*
X152481807Y-83075800D01*
X151810193Y-83075800D01*
X151761416Y-83070996D01*
X151716909Y-83057495D01*
X151675888Y-83035569D01*
X151639936Y-83006064D01*
X151610431Y-82970112D01*
X151588505Y-82929091D01*
X151575004Y-82884584D01*
X151570200Y-82835807D01*
X151570200Y-82264193D01*
X151575004Y-82215416D01*
X151588505Y-82170909D01*
X151610431Y-82129888D01*
X151639936Y-82093936D01*
X151675888Y-82064431D01*
X151716909Y-82042505D01*
X151761416Y-82029004D01*
X151810193Y-82024200D01*
X152481807Y-82024200D01*
X152530584Y-82029004D01*
X152530584Y-82029004D01*
G37*
G36*
X134828084Y-81902004D02*
G01*
X134872591Y-81915505D01*
X134913612Y-81937431D01*
X134949564Y-81966936D01*
X134979069Y-82002888D01*
X135000995Y-82043909D01*
X135014496Y-82088416D01*
X135019300Y-82137193D01*
X135019300Y-82708807D01*
X135014496Y-82757584D01*
X135000995Y-82802091D01*
X134979069Y-82843112D01*
X134949564Y-82879064D01*
X134913612Y-82908569D01*
X134872591Y-82930495D01*
X134828084Y-82943996D01*
X134779307Y-82948800D01*
X134107693Y-82948800D01*
X134058916Y-82943996D01*
X134014409Y-82930495D01*
X133973388Y-82908569D01*
X133937436Y-82879064D01*
X133907931Y-82843112D01*
X133886005Y-82802091D01*
X133872504Y-82757584D01*
X133867700Y-82708807D01*
X133867700Y-82137193D01*
X133872504Y-82088416D01*
X133886005Y-82043909D01*
X133907931Y-82002888D01*
X133937436Y-81966936D01*
X133973388Y-81937431D01*
X134014409Y-81915505D01*
X134058916Y-81902004D01*
X134107693Y-81897200D01*
X134779307Y-81897200D01*
X134828084Y-81902004D01*
X134828084Y-81902004D01*
G37*
G36*
X136578084Y-81902004D02*
G01*
X136622591Y-81915505D01*
X136663612Y-81937431D01*
X136699564Y-81966936D01*
X136729069Y-82002888D01*
X136750995Y-82043909D01*
X136764496Y-82088416D01*
X136769300Y-82137193D01*
X136769300Y-82708807D01*
X136764496Y-82757584D01*
X136750995Y-82802091D01*
X136729069Y-82843112D01*
X136699564Y-82879064D01*
X136663612Y-82908569D01*
X136622591Y-82930495D01*
X136578084Y-82943996D01*
X136529307Y-82948800D01*
X135857693Y-82948800D01*
X135808916Y-82943996D01*
X135764409Y-82930495D01*
X135723388Y-82908569D01*
X135687436Y-82879064D01*
X135657931Y-82843112D01*
X135636005Y-82802091D01*
X135622504Y-82757584D01*
X135617700Y-82708807D01*
X135617700Y-82137193D01*
X135622504Y-82088416D01*
X135636005Y-82043909D01*
X135657931Y-82002888D01*
X135687436Y-81966936D01*
X135723388Y-81937431D01*
X135764409Y-81915505D01*
X135808916Y-81902004D01*
X135857693Y-81897200D01*
X136529307Y-81897200D01*
X136578084Y-81902004D01*
X136578084Y-81902004D01*
G37*
G36*
X162602800Y-82592800D02*
G01*
X161501200Y-82592800D01*
X161501200Y-81491200D01*
X162602800Y-81491200D01*
X162602800Y-82592800D01*
X162602800Y-82592800D01*
G37*
G36*
X163364758Y-81492746D02*
G01*
X163429970Y-81499169D01*
X163429972Y-81499170D01*
X163429976Y-81499170D01*
X163533802Y-81530665D01*
X163629489Y-81581811D01*
X163713359Y-81650641D01*
X163782189Y-81734511D01*
X163833335Y-81830198D01*
X163864830Y-81934024D01*
X163864830Y-81934028D01*
X163864831Y-81934030D01*
X163874086Y-82027995D01*
X163875465Y-82042000D01*
X163864830Y-82149976D01*
X163833335Y-82253802D01*
X163782189Y-82349489D01*
X163713359Y-82433359D01*
X163629489Y-82502189D01*
X163533802Y-82553335D01*
X163429976Y-82584830D01*
X163429972Y-82584830D01*
X163429970Y-82584831D01*
X163364758Y-82591254D01*
X163349057Y-82592800D01*
X163294943Y-82592800D01*
X163279242Y-82591254D01*
X163214030Y-82584831D01*
X163214028Y-82584830D01*
X163214024Y-82584830D01*
X163110198Y-82553335D01*
X163014511Y-82502189D01*
X162930641Y-82433359D01*
X162861811Y-82349489D01*
X162810665Y-82253802D01*
X162779170Y-82149976D01*
X162768535Y-82042000D01*
X162769914Y-82027995D01*
X162779169Y-81934030D01*
X162779170Y-81934028D01*
X162779170Y-81934024D01*
X162810665Y-81830198D01*
X162861811Y-81734511D01*
X162930641Y-81650641D01*
X163014511Y-81581811D01*
X163110198Y-81530665D01*
X163214024Y-81499170D01*
X163214028Y-81499170D01*
X163214030Y-81499169D01*
X163279242Y-81492746D01*
X163294943Y-81491200D01*
X163349057Y-81491200D01*
X163364758Y-81492746D01*
X163364758Y-81492746D01*
G37*
G36*
X149089800Y-82502300D02*
G01*
X148088200Y-82502300D01*
X148088200Y-81200700D01*
X149089800Y-81200700D01*
X149089800Y-82502300D01*
X149089800Y-82502300D01*
G37*
G36*
X145789800Y-82502300D02*
G01*
X144788200Y-82502300D01*
X144788200Y-81200700D01*
X145789800Y-81200700D01*
X145789800Y-82502300D01*
X145789800Y-82502300D01*
G37*
G36*
X141812584Y-80913504D02*
G01*
X141857091Y-80927005D01*
X141898112Y-80948931D01*
X141934064Y-80978436D01*
X141963569Y-81014388D01*
X141985495Y-81055409D01*
X141998996Y-81099916D01*
X142003800Y-81148693D01*
X142003800Y-81820307D01*
X141998996Y-81869084D01*
X141985495Y-81913591D01*
X141963569Y-81954612D01*
X141934064Y-81990564D01*
X141898112Y-82020069D01*
X141857091Y-82041995D01*
X141812584Y-82055496D01*
X141763807Y-82060300D01*
X141192193Y-82060300D01*
X141143416Y-82055496D01*
X141098909Y-82041995D01*
X141057888Y-82020069D01*
X141021936Y-81990564D01*
X140992431Y-81954612D01*
X140970505Y-81913591D01*
X140957004Y-81869084D01*
X140952200Y-81820307D01*
X140952200Y-81148693D01*
X140957004Y-81099916D01*
X140970505Y-81055409D01*
X140992431Y-81014388D01*
X141021936Y-80978436D01*
X141057888Y-80948931D01*
X141098909Y-80927005D01*
X141143416Y-80913504D01*
X141192193Y-80908700D01*
X141763807Y-80908700D01*
X141812584Y-80913504D01*
X141812584Y-80913504D01*
G37*
G36*
X143781084Y-80899504D02*
G01*
X143825591Y-80913005D01*
X143866612Y-80934931D01*
X143902564Y-80964436D01*
X143932069Y-81000388D01*
X143953995Y-81041409D01*
X143967496Y-81085916D01*
X143972300Y-81134693D01*
X143972300Y-81806307D01*
X143967496Y-81855084D01*
X143953995Y-81899591D01*
X143932069Y-81940612D01*
X143902564Y-81976564D01*
X143866612Y-82006069D01*
X143825591Y-82027995D01*
X143781084Y-82041496D01*
X143732307Y-82046300D01*
X143160693Y-82046300D01*
X143111916Y-82041496D01*
X143067409Y-82027995D01*
X143026388Y-82006069D01*
X142990436Y-81976564D01*
X142960931Y-81940612D01*
X142939005Y-81899591D01*
X142925504Y-81855084D01*
X142920700Y-81806307D01*
X142920700Y-81134693D01*
X142925504Y-81085916D01*
X142939005Y-81041409D01*
X142960931Y-81000388D01*
X142990436Y-80964436D01*
X143026388Y-80934931D01*
X143067409Y-80913005D01*
X143111916Y-80899504D01*
X143160693Y-80894700D01*
X143732307Y-80894700D01*
X143781084Y-80899504D01*
X143781084Y-80899504D01*
G37*
G36*
X169055176Y-78471625D02*
G01*
X169264609Y-78558374D01*
X169453094Y-78684316D01*
X169613384Y-78844606D01*
X169739326Y-79033091D01*
X169826075Y-79242524D01*
X169870300Y-79464856D01*
X169870300Y-79691544D01*
X169826075Y-79913876D01*
X169739326Y-80123309D01*
X169613384Y-80311794D01*
X169453094Y-80472084D01*
X169264609Y-80598026D01*
X169055176Y-80684775D01*
X168832844Y-80729000D01*
X168606156Y-80729000D01*
X168383824Y-80684775D01*
X168174391Y-80598026D01*
X167985906Y-80472084D01*
X167825616Y-80311794D01*
X167699674Y-80123309D01*
X167612925Y-79913876D01*
X167568700Y-79691544D01*
X167568700Y-79464856D01*
X167612925Y-79242524D01*
X167699674Y-79033091D01*
X167825616Y-78844606D01*
X167985906Y-78684316D01*
X168174391Y-78558374D01*
X168383824Y-78471625D01*
X168606156Y-78427400D01*
X168832844Y-78427400D01*
X169055176Y-78471625D01*
X169055176Y-78471625D01*
G37*
M02*
